<?xml version="1.0" encoding="UTF-8" standalone="no"?>
<!-- Created with Inkscape (http://www.inkscape.org/) -->

<svg
   version="1.1"
   id="svg1"
   viewBox="0 0 118.359 66.068839"
   xmlns="http://www.w3.org/2000/svg"
   xmlns:svg="http://www.w3.org/2000/svg">
  <path
     id="rect2"
     d="M 59.166209,4.7959499e-4 C 56.152879,0.01584959 54.312609,0.85502959 51.758009,3.3735266 c -1.50358,1.482294 -1.92384,2.151002 -2.48047,3.953125 -1.11892,3.6225914 -0.93697,4.1145364 1.64648,4.4511724 2.20824,0.287737 3.01885,-0.12867 3.45703,-1.775391 0.64475,-2.4230684 2.94672,-4.7295224 4.72266,-4.7324224 2.03537,-0.0033 3.90034,2.07703 3.90234,4.351563 0.001,1.5439884 -1.1186,3.2791534 -3.1582,4.8945314 -0.72699,0.575775 -1.41357,1.431535 -1.52539,1.900391 -0.11182,0.468845 -0.34715,1.032624 -0.52149,1.253906 -0.29564,0.375208 -0.0826,4.384815 0.28321,5.33789 0.10345,0.269576 -0.67555,0.556078 -2.46289,0.908204 -4.92936,0.971136 -7.19529,2.694615 -10.46875,7.960937 -3.02669,4.869245 -5.38612,6.621695 -16.38477,12.162105 -4.31189,2.1721 -9.1367,4.54993 -10.7207,5.28321 -4.12471,1.90947 -5.5267,3.07406 -5.78711,4.81054 -0.11411,0.76096 -0.3286,1.45739 -0.47656,1.54883 -0.37477,0.23161 -1.36193,-1.35549 -1.16407,-1.87109 0.11459,-0.29864 -0.2072,-0.44333 -1.1015597,-0.4961 -3.60551,-0.21268 -9.04129998,5.64248 -9.48046798,10.2129 -0.243568,2.53485 0.670068,3.03756 3.79882798,2.08789 1.16017,-0.35214 2.47319,-0.38999 6.2402297,-0.17969 5.54044,0.30931 23.792,0.25327 26.42188,-0.0488 h 50.76367 c 7.6089,0.16238 20.485921,0.0199 22.156251,-0.41406 1.64418,-0.42722 1.90943,-0.40762 4.42383,0.32031 1.47169,0.42605 2.87354,0.77539 3.11328,0.77539 0.23979,0 0.65531,-0.42411 0.92383,-0.94336 0.54938,-1.06238 0.6563,-2.39946 0.16797,-2.09765 -0.17973,0.11108 -0.32031,-0.14236 -0.32031,-0.57813 0,-1.28925 -2.17233,-5.233 -3.51563,-6.38281 -1.66603,-1.42609 -3.95076,-2.53271 -5.61914,-2.7207 -1.2734,-0.14354 -1.40424,-0.0855 -1.88477,0.84374 -0.28398,0.54915 -0.74593,0.99805 -1.02539,0.99805 -0.41902,0 -0.47068,-0.24537 -0.29687,-1.40429 0.18891,-1.25976 0.12482,-1.47423 -0.62305,-2.0625 -0.45893,-0.361 -1.36661,-0.82692 -2.01562,-1.03516 -1.38603,-0.44471 -13.655681,-6.54043 -18.005861,-8.94531 -6.8399,-3.78133 -9.2453,-5.89731 -12.03516,-10.591801 -0.84606,-1.423766 -2.01419,-3.145989 -2.5957,-3.826171 -1.24195,-1.452713 -5.01546,-3.426694 -7.17188,-3.751954 l -1.47461,-0.222656 0.41016,-1.1875 c 0.22551,-0.653133 0.33931,-1.553095 0.25391,-2 -0.1303,-0.681628 0.25519,-1.212629 2.38671,-3.292969 2.85645,-2.787799 3.67245,-4.228589 3.86915,-6.835937 0.29015,-3.8458614 -1.71498,-7.5379084 -4.95508,-9.12890641 -1.5571,-0.764578 -2.25436,-0.912585 -4.26172,-0.90234399501 z M 62.795119,5.8735266 h 0.0547 v 0.0625 c -0.0183,-0.02079 -0.0361,-0.04196 -0.0547,-0.0625 z m 8.46093,25.2246094 c 0.008,0.01373 0.0172,0.02528 0.0254,0.03906 h -0.0254 z m -12.61523,5.210942 c 0.0892,0 2.0076,0.98693 4.26367,2.19335 2.25612,1.20648 5.47058,2.91418 7.14258,3.79493 9.10932,4.79846 14.44809,7.68723 19.04101,10.30468 2.81594,1.60482 7.88659,4.31239 11.269541,6.01563 3.38288,1.70326 6.11897,3.10506 6.08007,3.11523 -0.0389,0.0102 -3.95905,-0.0618 -8.710931,-0.16015 -5.70868,-0.11812 -9.60285,-0.11529 -12.14454,0.0254 h -49.71289 c -1.2814,-0.15915 -4.25956,-0.16992 -11.86132,-0.16992 h -12.48829 l 2.91211,-1.36133 c 1.60147,-0.74849 3.10142,-1.58658 3.4043,-1.75977 l 2.38086,-1.36133 c 0.90478,-0.51735 3.58723,-1.95992 5.92969,-3.26171 2.34246,-1.30186 6.01467,-3.24243 8.16015,-4.3125 2.14554,-1.07014 4.26118,-2.19672 4.70118,-2.50391 0.78641,-0.54909 2.77107,-1.61417 11.03906,-5.91992 2.288,-1.19153 5.12216,-2.72239 6.29687,-3.40235 1.17471,-0.67995 2.20768,-1.23632 2.29688,-1.23632 z m 17.32812,1.04687 c 0.018,0.0161 0.0366,0.0327 0.0547,0.0488 h -0.0547 z" />
</svg>
