<?xml version="1.0" encoding="UTF-8" standalone="no"?>
<!-- Created with Inkscape (http://www.inkscape.org/) -->

<svg
   version="1.1"
   id="svg1"
   viewBox="0 0 118.359 66.068839"
   xmlns="http://www.w3.org/2000/svg"
   xmlns:svg="http://www.w3.org/2000/svg">
  <defs
     id="defs1">
    <linearGradient
       id="swatch23">
      <stop
         style="stop-color:#000000;stop-opacity:1;"
         offset="0"
         id="stop23" />
    </linearGradient>
  </defs>
  <path
     id="rect2"
     style="display:inline;fill:#372520;fill-opacity:1;stroke-width:1.002"
     d="M 59.166209,4.7959499e-4 C 56.152879,0.01584959 54.312619,0.85502759 51.758009,3.3735266 c -1.50358,1.482296 -1.92384,2.151 -2.48047,3.953125 -1.11892,3.6225954 -0.93697,4.1145364 1.64648,4.4511724 2.20824,0.287738 3.01885,-0.128668 3.45703,-1.775391 0.64475,-2.4230704 2.94672,-4.7295224 4.72266,-4.7324224 2.03537,-0.0033 3.90034,2.077028 3.90234,4.351563 0.001,1.5439904 -1.1186,3.2791524 -3.1582,4.8945314 -0.72699,0.575776 -1.41357,1.431535 -1.52539,1.900391 -0.11182,0.468846 -0.34715,1.032624 -0.52149,1.253906 -0.29564,0.375209 -0.0826,4.384814 0.28321,5.33789 0.10345,0.269576 -0.67555,0.556078 -2.46289,0.908204 -4.92936,0.971137 -7.19528,2.69461 -10.46875,7.960937 -3.02669,4.869245 -5.38611,6.621685 -16.38477,12.162105 -4.3119,2.1721 -9.1367,4.54993 -10.7207,5.28321 -4.12471,1.90947 -5.5267,3.07405 -5.78711,4.81054 -0.11411,0.76096 -0.3286,1.45739 -0.47656,1.54883 -0.37477,0.23161 -1.36193,-1.35549 -1.16407,-1.87109 0.11459,-0.29864 -0.2072,-0.44333 -1.1015597,-0.4961 -3.60551,-0.21269 -9.04129998,5.64248 -9.48046798,10.2129 -0.243569,2.53486 0.670068,3.03756 3.79882798,2.08789 1.16017,-0.35214 2.47318,-0.38999 6.2402297,-0.17969 5.54044,0.30931 23.792,0.25327 26.42188,-0.0488 h 50.76367 c 7.60891,0.16238 20.485921,0.0199 22.156251,-0.41406 1.64418,-0.42722 1.90943,-0.40762 4.42383,0.32031 1.47169,0.42605 2.87354,0.77539 3.11328,0.77539 0.23979,0 0.65531,-0.42411 0.92383,-0.94336 0.54938,-1.06238 0.6563,-2.39946 0.16797,-2.09765 -0.17973,0.11108 -0.32031,-0.14236 -0.32031,-0.57813 0,-1.28925 -2.17233,-5.233 -3.51563,-6.38281 -1.66603,-1.42609 -3.95076,-2.5327 -5.61914,-2.7207 -1.2734,-0.14354 -1.40424,-0.0855 -1.88477,0.84374 -0.28398,0.54915 -0.74593,0.99805 -1.02539,0.99805 -0.41902,0 -0.47068,-0.24536 -0.29687,-1.40429 0.18891,-1.25976 0.12482,-1.47422 -0.62305,-2.0625 -0.45893,-0.361 -1.36661,-0.82692 -2.01562,-1.03516 -1.38603,-0.44471 -13.655671,-6.54042 -18.005861,-8.94531 -6.8399,-3.78133 -9.2453,-5.89731 -12.03516,-10.591801 -0.84606,-1.423768 -2.01419,-3.145988 -2.5957,-3.826171 -1.24195,-1.452714 -5.01546,-3.426694 -7.17188,-3.751954 l -1.47461,-0.222656 0.41016,-1.1875 c 0.22551,-0.653134 0.33931,-1.553095 0.25391,-2 -0.1303,-0.681629 0.25518,-1.212627 2.38671,-3.292969 2.85645,-2.787802 3.67245,-4.228586 3.86915,-6.835937 0.29015,-3.8458654 -1.71497,-7.5379064 -4.95508,-9.12890641 -1.5571,-0.764578 -2.25436,-0.912585 -4.26172,-0.90234399501 z M 59.154509,1.2758696 c 1.84016,0.0057 2.717,0.170221 3.69336,0.691407 2.6449,1.411851 4.01723,3.637411 4.25,6.890625 0.24365,3.4052484 -0.98007,5.4211264 -5.36914,8.8476564 -0.65984,0.515121 -0.82756,0.977472 -0.96094,2.654297 -0.14557,1.830804 -0.23395,2.03876 -0.91211,2.134765 -0.74991,0.106155 -0.75213,0.09992 -0.64062,-2.902343 l 0.11132,-3.009766 2.01954,-1.869141 c 2.3551,-2.179745 2.9414,-3.168027 2.9414,-4.9589844 0,-2.613191 -1.64608,-4.810507 -4.20117,-5.607422 -1.63376,-0.509571 -1.00031,-0.631188 0.75195,-0.144531 0.65453,0.181782 1.62474,0.697612 2.15821,1.146484 0.53347,0.448883 0.9707,0.672094 0.9707,0.496094 0,-0.483791 -1.86186,-1.949439 -2.76367,-2.175781 -1.01312,-0.254276 -1.8484,-0.231688 -2.72656,0.152344 v -2.332032 c 0.22369,-0.0041 0.4036,-0.01451 0.67773,-0.01367 z m 0.99414,23.3886724 c 0.77748,-0.01085 1.49731,0.02361 2.09961,0.109375 4.15714,0.591955 6.77639,2.470348 9.16602,6.574219 2.9421,5.052762 4.46943,6.520732 10.63281,10.222652 3.95551,2.37584 14.40409,7.72586 19.085941,9.77149 l 3.08593,1.34765 -0.16992,1.26172 c -0.13703,1.0217 -0.0284,1.41156 0.57031,2.04883 1.06956,1.13849 1.99672,1.02235 2.64258,-0.33203 0.64766,-1.35828 1.31861,-1.42379 3.61719,-0.35352 2.06887,0.96332 3.57144,2.47 4.67773,4.68946 0.89936,1.80432 1.50537,4.4715 1.01172,4.45508 -0.1545,-0.005 -1.43384,-0.61992 -2.84179,-1.36524 -1.408,-0.74532 -3.63899,-2.0874 -4.95899,-2.98242 -1.31994,-0.89503 -2.97569,-1.81269 -3.67969,-2.03906 -0.704,-0.22637 -2.504,-1.02666 -4,-1.7793 -3.887861,-1.95602 -22.713031,-12.12095 -29.601561,-15.98437 -5.03102,-2.82166 -11.95819,-6.240239 -12.64453,-6.240239 -0.0807,0 -0.24428,0.06286 -0.38281,0.107419 v -9.421872 c 0.57692,-0.0488 1.14887,-0.0823 1.68945,-0.08984 z m -1.50781,11.644536 c 0.0892,0 2.0076,0.98692 4.26367,2.19335 2.25612,1.20648 5.47058,2.91418 7.14258,3.79493 9.10933,4.79847 14.44808,7.68722 19.04101,10.30468 2.81594,1.60482 7.88659,4.31239 11.269541,6.01563 3.38289,1.70326 6.11897,3.10506 6.08007,3.11523 -0.0389,0.0102 -3.95904,-0.0618 -8.710931,-0.16015 -5.70868,-0.11812 -9.60285,-0.11529 -12.14454,0.0254 h -49.71289 c -1.28141,-0.15915 -4.25955,-0.16992 -11.86132,-0.16992 h -12.48829 l 2.91211,-1.36133 c 1.60147,-0.74849 3.10142,-1.58658 3.4043,-1.75977 l 2.38086,-1.36133 c 0.90478,-0.51735 3.58723,-1.95991 5.92969,-3.26171 2.34246,-1.30186 6.01466,-3.24242 8.16015,-4.3125 2.14554,-1.07014 4.26118,-2.19672 4.70118,-2.50391 0.78642,-0.54909 2.77106,-1.61416 11.03906,-5.91992 2.288,-1.19153 5.12216,-2.72239 6.29687,-3.40235 1.17471,-0.67995 2.20768,-1.23632 2.29688,-1.23632 z m 10.65625,3.87695 c 0.0309,-0.008 0.0825,-0.004 0.15039,0.0117 0.40727,0.0942 1.4061,0.58705 2.14062,1.0957 0.0557,0.0386 -0.0165,0.13455 -0.16015,0.21289 -0.14371,0.0783 -0.65475,-0.0867 -1.13672,-0.36719 -0.48196,-0.28049 -0.94159,-0.68033 -1.02149,-0.88867 -0.0138,-0.0359 -0.004,-0.0563 0.0274,-0.0645 z m 3.44336,1.67383 c 0.10507,0.0262 0.22816,0.15068 0.39648,0.38086 0.23714,0.3243 0.42969,0.48849 0.42969,0.36328 0,-0.12521 0.57725,0.0647 1.28125,0.42383 0.704,0.35915 1.2793,0.79437 1.2793,0.96679 0,0.39245 0.1169,0.42739 -1.67969,-0.50781 -0.836,-0.43518 -1.51953,-0.94004 -1.51953,-1.12305 0,-0.18302 -0.1679,-0.23105 -0.3711,-0.10547 -0.24418,0.15091 -0.28009,0.0868 -0.10937,-0.18945 0.10084,-0.16315 0.1879,-0.23515 0.29297,-0.20898 z m 4.41015,2.59765 c 0.0939,-0.0938 1.73887,0.71573 3.6543,1.79883 3.78383,2.13954 3.81114,2.15815 3.61524,2.32813 -0.0733,0.0636 -1.71635,-0.74129 -3.65235,-1.78907 -3.85659,-2.08722 -3.86329,-2.09179 -3.61719,-2.33789 z m 8.33985,4.4961 c 0.17467,0.002 0.39742,0.12182 0.56054,0.31836 0.4318,0.52029 0.0926,0.62876 -0.59765,0.1914 -0.26373,-0.16711 -0.31029,-0.35135 -0.11719,-0.4707 0.0437,-0.027 0.0961,-0.0397 0.1543,-0.0391 z m 1.5,0.87695 c 0.62649,0.14321 2.57617,1.29076 2.57617,1.57617 0,0.34295 0.0477,0.36128 -1.5332,-0.5918 -0.7552,-0.4552 -1.30431,-0.89487 -1.22071,-0.97851 0.026,-0.026 0.0882,-0.0262 0.17774,-0.006 z m 3.66601,2.03125 c 0.24216,0.0438 0.81085,0.29736 1.47071,0.66797 0.87982,0.49415 1.59943,1.00667 1.59961,1.13867 4.2e-4,0.30779 0.0894,0.3423 -1.67579,-0.66016 -0.83341,-0.47334 -1.51653,-0.97503 -1.51953,-1.11718 -7.5e-4,-0.0355 0.0443,-0.0439 0.125,-0.0293 z m 7.43946,3.80469 c 0.10706,0.001 0.33992,0.10906 0.75976,0.32617 0.81058,0.41918 1.304231,1.11523 0.79102,1.11523 -0.088,0 -0.16017,-0.1515 -0.16016,-0.33789 0,-0.18639 -0.14431,-0.24939 -0.32031,-0.14062 -0.176,0.10878 -0.31836,0.0366 -0.31836,-0.16016 0,-0.19677 -0.12955,-0.27902 -0.28711,-0.18164 -0.15756,0.0974 -0.36898,-0.0396 -0.4707,-0.30469 -0.0814,-0.21268 -0.10162,-0.3178 0.006,-0.3164 z m 2.708981,1.61719 c 0.19116,-0.19116 4.25279,1.73824 4.38281,2.08203 0.0554,0.14641 0.30792,0.18683 0.56055,0.0898 0.25263,-0.097 0.45898,-0.10359 0.45898,-0.0156 0,0.55915 -1.10774,0.32311 -3.04687,-0.64843 -2.46287,-1.23396 -2.56478,-1.29855 -2.35547,-1.50781 z m 5.99609,2.55273 c 0.0326,-0.003 0.0681,0.006 0.10547,0.0293 0.1496,0.0924 0.1891,0.301 0.0879,0.46484 -0.25876,0.41868 -0.36132,0.3716 -0.36132,-0.16797 0,-0.19219 0.07,-0.31573 0.16796,-0.32617 z m 0.71875,0.70117 c 0.57425,0.12726 2.49556,1.21088 4.39844,2.50391 1.97488,1.342 0.66235,0.86643 -2.10742,-0.76367 -1.44922,-0.85297 -2.55244,-1.63312 -2.45117,-1.73438 0.0231,-0.023 0.0781,-0.0239 0.16015,-0.006 z m -12.234371,2.0625 c 4.15687,0.0562 8.243891,0.19798 9.802731,0.42383 1.76,0.255 3.34354,0.48274 3.51954,0.50586 0.17591,0.0231 -0.0405,0.15792 -0.48047,0.29883 -0.42781,0.13701 -6.67698,0.21819 -12.841801,0.23828 v 0.008 c -1.75067,0.0226 -19.72019,0.0668 -36.80859,0.10156 v -1.36914 c 16.47153,-0.0783 34.12223,-0.14589 36.80859,-0.17773 z" />
</svg>
