<?xml version="1.0" encoding="UTF-8" standalone="no"?>
<!-- Created with Inkscape (http://www.inkscape.org/) -->

<svg
   version="1.1"
   id="svg1"
   viewBox="0 0 118.359 66.068831"
   xmlns="http://www.w3.org/2000/svg"
   xmlns:svg="http://www.w3.org/2000/svg">
  <defs
     id="defs1">
    <linearGradient
       id="swatch23">
      <stop
         style="stop-color:#000000;stop-opacity:1;"
         offset="0"
         id="stop23" />
    </linearGradient>
  </defs>
  <path
     id="rect2"
     style="display:inline;fill:#372520;fill-opacity:1;stroke-width:1.002"
     d="M 59.166205,4.5481228e-4 C 56.152875,0.01582481 54.312665,0.85499281 51.758005,3.3735018 c -1.50358,1.482306 -1.92384,2.15099 -2.48047,3.953125 -1.11892,3.6226152 -0.93696,4.1145362 1.64649,4.4511722 2.20824,0.287743 3.01885,-0.128658 3.45703,-1.775391 0.64475,-2.4230802 2.94671,-4.7295222 4.72265,-4.7324222 2.03537,-0.0033 3.90035,2.077018 3.90235,4.351563 10e-4,1.5440002 -1.11861,3.2791472 -3.15821,4.8945312 -0.72699,0.575781 -1.41357,1.431535 -1.52539,1.900391 -0.11182,0.468851 -0.34714,1.032624 -0.52148,1.253906 -0.29564,0.375214 -0.0826,4.38481 0.2832,5.337891 0.10345,0.269576 -0.67555,0.556077 -2.46289,0.908203 -4.92936,0.971142 -7.19523,2.694585 -10.46875,7.960937 -3.02669,4.86925 -5.38606,6.62164 -16.38477,12.16211 -4.31195,2.1721 -9.1367,4.54992 -10.7207,5.2832 -4.12471,1.90947 -5.5267,3.07401 -5.78711,4.81055 -0.11411,0.76096 -0.3286,1.45739 -0.47656,1.54883 -0.37477,0.23161 -1.36192,-1.3555 -1.16406,-1.8711 0.11459,-0.29864 -0.20721,-0.44332 -1.1015701,-0.49609 -3.60551,-0.21274 -9.04129997,5.64247 -9.48046497,10.21289 -0.243574,2.53491 0.670065,3.03756 3.79882497,2.08789 1.16017,-0.35214 2.47314,-0.38999 6.2402401,-0.17969 5.54044,0.30931 23.79199,0.2533 26.42187,-0.0488 h 50.76368 c 7.60896,0.16238 20.485915,0.0199 22.156245,-0.41406 1.64418,-0.42722 1.90942,-0.40762 4.42382,0.32031 1.47169,0.42605 2.87354,0.77539 3.11328,0.77539 0.23979,0 0.65531,-0.4241 0.92383,-0.94335 0.54938,-1.06238 0.6563,-2.39947 0.16797,-2.09766 -0.17973,0.11108 -0.32031,-0.14236 -0.32031,-0.57813 0,-1.28925 -2.17233,-5.233 -3.51563,-6.38281 -1.66603,-1.42609 -3.95076,-2.53265 -5.61914,-2.7207 -1.2734,-0.14354 -1.40423,-0.0855 -1.88476,0.84375 -0.28398,0.54915 -0.74593,0.99805 -1.02539,0.99805 -0.41902,0 -0.47069,-0.24532 -0.29688,-1.4043 0.18891,-1.25976 0.12483,-1.47417 -0.62304,-2.0625 -0.45893,-0.361 -1.36662,-0.82692 -2.01563,-1.03516 -1.38603,-0.44471 -13.655615,-6.54037 -18.005855,-8.94531 -6.8399,-3.78133 -9.2453,-5.8973 -12.03516,-10.591798 -0.84606,-1.423778 -2.01419,-3.145983 -2.5957,-3.826171 -1.24195,-1.452719 -5.01545,-3.426693 -7.17187,-3.751953 l -1.47461,-0.222657 0.41015,-1.1875 c 0.22551,-0.653139 0.33931,-1.553095 0.25391,-2 -0.1303,-0.681634 0.25514,-1.212617 2.38672,-3.292969 2.85645,-2.787817 3.67244,-4.228571 3.86914,-6.835937 0.29015,-3.8458852 -1.71492,-7.5378962 -4.95508,-9.12890619 -1.5571,-0.764578 -2.25436,-0.912585 -4.26172,-0.90234399772 z M 59.154505,1.2758458 c 1.84016,0.0057 2.717,0.17022 3.69336,0.691406 2.6449,1.411861 4.01723,3.637396 4.25,6.890625 0.24365,3.4052682 -0.98002,5.4211112 -5.36914,8.8476562 -0.65984,0.515126 -0.82756,0.977462 -0.96094,2.654297 -0.14557,1.830814 -0.23394,2.038756 -0.9121,2.134766 -0.74991,0.106155 -0.75214,0.09993 -0.64063,-2.902344 l 0.11133,-3.009766 2.01953,-1.86914 c 2.35515,-2.17976 2.94141,-3.168018 2.94141,-4.9589852 0,-2.613206 -1.64609,-4.810502 -4.20118,-5.607422 -1.63376,-0.509576 -1.00035,-0.631188 0.75196,-0.144531 0.65453,0.181782 1.62473,0.697607 2.1582,1.146484 0.53347,0.448883 0.9707,0.672094 0.9707,0.496094 0,-0.483796 -1.86186,-1.949439 -2.76367,-2.175781 -1.9892,-0.499257 -3.28424,0.04854 -5.58984,2.363281 -1.53399,1.540072 -2.20703,2.45488 -2.20703,3.003906 0,1.3854052 -0.6312,1.8688602 -2.16016,1.6562502 -1.60994,-0.223863 -1.6728,-0.5195502 -0.68555,-3.1582032 0.84118,-2.248225 1.94832,-3.515296 4.32227,-4.945312 1.69263,-1.01961 2.07531,-1.120031 4.27148,-1.113281 z m 0.99414,23.3886722 c 0.77748,-0.01085 1.49731,0.02361 2.09961,0.109374 4.15714,0.591955 6.77639,2.470328 9.16602,6.574219 2.94215,5.052767 4.46943,6.520687 10.63281,10.222657 3.95556,2.37584 14.40409,7.72585 19.085935,9.77148 l 3.08594,1.34766 -0.16992,1.26172 c -0.13703,1.0217 -0.0284,1.41156 0.57031,2.04883 1.06956,1.13849 1.99672,1.02235 2.64258,-0.33203 0.64766,-1.35828 1.3186,-1.42384 3.61718,-0.35352 2.06887,0.96332 3.57145,2.46999 4.67774,4.68945 0.89936,1.80432 1.50537,4.4715 1.01172,4.45508 -0.1545,-0.005 -1.4338,-0.61991 -2.8418,-1.36523 -1.408,-0.74532 -3.63899,-2.0874 -4.95899,-2.98242 -1.31994,-0.89503 -2.97568,-1.8127 -3.67968,-2.03907 -0.704,-0.22637 -2.504,-1.02665 -4,-1.77929 -3.887905,-1.95602 -22.712975,-12.12091 -29.601555,-15.98438 -5.03107,-2.82166 -11.9582,-6.240234 -12.64454,-6.240234 -0.51399,0 -1.90041,0.743064 -7.99414,4.279294 -0.792,0.45961 -3.09709,1.65484 -5.12109,2.65625 -2.024,1.00142 -4.96902,2.58532 -6.54492,3.51953 -1.57591,0.93423 -3.37386,1.86691 -3.9961,2.07227 -0.62223,0.20536 -1.7954,0.78085 -2.60547,1.2793 -0.81004,0.49845 -2.0433,1.10762 -2.74023,1.35351 -0.69694,0.24589 -2.05758,0.95317 -3.02539,1.57227 -0.96781,0.6191 -2.25625,1.33649 -2.86328,1.59375 -0.60702,0.25726 -2.91754,1.54964 -5.13281,2.87305 -2.4293,1.45122 -4.56574,2.49834 -5.38477,2.63671 -0.78631,0.13285 -1.79638,0.61397 -2.39844,1.14258 -1.4117201,1.23951 -5.2771201,3.39782 -7.7539001,4.33008 l -2.03516,0.76563 v -0.83008 c 0,-1.29769 2.19636,-5.15503 3.64844,-6.40821 0.72147,-0.62264 1.98396,-1.4769 2.80468,-1.89648 l 1.49219,-0.76172 0.70313,1.35156 c 1.0717901,2.06085 1.5340201,2.23746 2.7265601,1.04493 0.52966,-0.52966 0.78516,-1.14401 0.78516,-1.88672 0,-0.85125 0.24766,-1.31868 1.08593,-2.05469 1.09489,-0.96133 1.78483,-1.32276 7.875,-4.13086 5.03054,-2.3195 14.61744,-7.36841 16.79883,-8.84766 3.14627,-2.13353 4.93582,-4.01626 7.37305,-7.755856 2.54912,-3.911262 3.88166,-5.1507 6.63281,-6.169922 1.78967,-0.663017 4.64418,-1.100255 6.97656,-1.132812 z m -3.02929,11.11523 c 0.0227,0.002 0.0128,0.0201 -0.0312,0.0566 -0.352,0.29241 -1.57671,0.99944 -2.72071,1.57032 -1.14394,0.57087 -3.0461,1.56436 -4.22656,2.20898 -2.10813,1.1512 -2.91984,1.4587 -2.31836,0.87891 0.1672,-0.16117 2.46547,-1.3935 5.10547,-2.74024 2.31,-1.17839 4.03278,-1.98677 4.19141,-1.97461 z m 1.52148,0.5293 c 0.0892,0 2.0076,0.98688 4.26367,2.19336 2.25612,1.20648 5.47058,2.91417 7.14258,3.79492 9.10938,4.79852 14.44804,7.68718 19.04102,10.30469 2.81594,1.60482 7.88658,4.31238 11.269525,6.01562 3.38294,1.70326 6.11898,3.10507 6.08008,3.11524 -0.0389,0.0102 -3.959,-0.0618 -8.710935,-0.16016 -5.70868,-0.11812 -9.60284,-0.11528 -12.14453,0.0254 h -49.71289 c -1.28146,-0.15915 -4.25951,-0.16992 -11.86133,-0.16992 h -12.4883 l 2.91211,-1.36133 c 1.60147,-0.74849 3.10141,-1.58657 3.40429,-1.75976 l 2.38086,-1.36138 c 0.90478,-0.51735 3.58723,-1.95986 5.92969,-3.26171 2.34246,-1.30186 6.01462,-3.24237 8.16016,-4.3125 2.14554,-1.07014 4.26117,-2.19672 4.70117,-2.50391 0.78647,-0.54909 2.77101,-1.61411 11.03906,-5.91992 2.288,-1.19153 5.12217,-2.72239 6.29688,-3.40235 1.17471,-0.67995 2.20767,-1.23632 2.29687,-1.23632 z m 10.65625,3.87695 c 0.0309,-0.008 0.0825,-0.004 0.15039,0.0117 0.40727,0.0942 1.40611,0.58706 2.14063,1.09571 0.0557,0.0386 -0.0165,0.13455 -0.16016,0.21289 -0.14371,0.0783 -0.65475,-0.0867 -1.13672,-0.36719 -0.48196,-0.28049 -0.94158,-0.68033 -1.02148,-0.88867 -0.0138,-0.0359 -0.004,-0.0563 0.0273,-0.0645 z m -22.0664,0.73438 c 0.0248,0.0172 0.005,0.0596 -0.0645,0.12891 -0.176,0.17598 -1.61522,1.00214 -3.19922,1.83593 -1.58394,0.83379 -3.67262,1.98244 -4.64062,2.55274 -2.71214,1.59785 -4.47852,2.43216 -4.47852,2.11523 0,-0.15822 0.46707,-0.48075 1.03907,-0.7168 0.572,-0.23604 1.93833,-0.97337 3.03515,-1.63867 1.09682,-0.6653 2.08276,-1.20898 2.19141,-1.20898 0.10865,0 1.01133,-0.49944 2.00586,-1.10938 1.65016,-1.01202 3.93714,-2.07964 4.11133,-1.95898 z m 25.50976,0.93945 c 0.10507,0.0262 0.22817,0.15068 0.39649,0.38086 0.23714,0.3243 0.42968,0.48849 0.42968,0.36328 0,-0.12521 0.57725,0.0647 1.28125,0.42383 0.704,0.35915 1.2793,0.79438 1.2793,0.9668 0,0.39245 0.1169,0.42739 -1.67969,-0.50781 -0.836,-0.43518 -1.51953,-0.94004 -1.51953,-1.12305 0,-0.18302 -0.16789,-0.23105 -0.37109,-0.10547 -0.24418,0.15091 -0.2801,0.0868 -0.10938,-0.18945 0.10084,-0.16315 0.1879,-0.23516 0.29297,-0.20899 z m 4.41016,2.59766 c 0.0939,-0.0938 1.73886,0.71573 3.65429,1.79883 3.78383,2.13954 3.81119,2.15814 3.61524,2.32812 -0.0733,0.0636 -1.71635,-0.74128 -3.65235,-1.78906 -3.85664,-2.08727 -3.86328,-2.09179 -3.61718,-2.33789 z m -43.00391,3.13281 c 0.19658,-0.0648 0.38086,-0.007 0.38086,0.23047 0,0.20104 -0.132,0.28503 -0.29297,0.18555 -0.16097,-0.0995 -0.36723,-0.0331 -0.45703,0.14843 -0.0899,0.18151 -0.12782,0.15481 -0.0859,-0.0586 0.0497,-0.25372 0.25851,-0.441 0.45508,-0.50585 z m -1.06445,0.78906 c 0.10407,-0.0233 0.1609,-0.0209 0.16015,0.0117 -0.008,0.36928 -3.79567,2.31984 -3.96679,2.04297 -0.0837,-0.13537 0.77608,-0.70444 1.91015,-1.26367 0.85055,-0.41942 1.58428,-0.72124 1.89649,-0.79102 z m 52.4082,0.57422 c 0.17467,0.002 0.39743,0.12182 0.56055,0.31836 0.4318,0.52029 0.0926,0.62877 -0.59766,0.19141 -0.26373,-0.16711 -0.31029,-0.35136 -0.11719,-0.47071 0.0437,-0.027 0.0961,-0.0397 0.1543,-0.0391 z m 1.5,0.87696 c 0.62649,0.14321 2.57617,1.29076 2.57617,1.57617 0,0.34295 0.0478,0.36128 -1.5332,-0.5918 -0.7552,-0.45525 -1.3043,-0.89488 -1.2207,-0.97852 0.026,-0.026 0.0882,-0.0263 0.17773,-0.006 z m -59.07812,1.09179 c 0.084,-0.0134 0.15551,-0.0117 0.21484,0.004 0.0791,0.0209 0.13824,0.0665 0.18164,0.13672 0.15003,0.24276 0.10097,0.30073 -0.13281,0.15625 -0.20319,-0.12558 -0.36914,-0.0679 -0.36914,0.12891 0,0.19677 -0.14437,0.26892 -0.32031,0.16015 -0.176,-0.10877 -0.32032,-0.048 -0.32032,0.13477 0,0.4203 -2.57198,1.78221 -3.15039,1.66797 -0.23765,-0.0469 -0.3387,0.0681 -0.22265,0.25586 0.1161,0.18777 0.13874,0.34179 0.0508,0.34179 -0.088,0 -0.24352,-0.13814 -0.34766,-0.30664 -0.10414,-0.1685 0.28357,-0.54735 0.86133,-0.84179 0.57775,-0.29445 1.65002,-0.88178 2.38281,-1.30664 0.54831,-0.3179 0.91983,-0.49108 1.17188,-0.53125 z m 62.74414,0.93946 c 0.24216,0.0438 0.81084,0.29735 1.4707,0.66796 0.87982,0.49415 1.59943,1.00668 1.59961,1.13868 4.2e-4,0.30779 0.0894,0.3423 -1.67578,-0.66016 -0.83346,-0.47334 -1.51653,-0.97504 -1.51953,-1.11719 -7.5e-4,-0.0355 0.0443,-0.0439 0.125,-0.0293 z m -67.79297,1.88671 c 0.13718,-10e-4 0.23929,0.0558 0.30859,0.16797 0.11185,0.18083 0.0844,0.30645 -0.0605,0.28125 -0.64787,-0.11254 -1.08553,0.0583 -0.9043,0.35157 0.1088,0.176 0.12513,0.31835 0.0371,0.31835 -0.088,0 -0.24434,-0.13556 -0.34766,-0.30273 -0.10332,-0.16717 0.0951,-0.45532 0.44141,-0.64062 0.2147,-0.11491 0.3882,-0.17449 0.52539,-0.17579 z m -1.54492,1.07618 c 0.12656,-0.025 0.20677,-0.0235 0.22851,0.0117 0.16588,0.26839 -1.48406,1.12168 -1.92969,0.99804 -0.11987,-0.0333 -0.30639,0.0777 -0.41406,0.2461 -0.3818,0.59714 -4.06256,2.43118 -5.57422,2.88281 0.0345,-0.0296 0.0489,-0.0743 -0.008,-0.16602 -0.1203,-0.19465 0.15742,-0.4334 0.64844,-0.55664 0.47205,-0.11847 1.227,-0.47476 1.67773,-0.79296 1.32478,-0.93527 4.48515,-2.44789 5.3711,-2.62305 z m 76.77734,0.84179 c 0.10706,10e-4 0.33993,0.10906 0.75977,0.32617 0.81058,0.41918 1.304215,1.11524 0.79101,1.11524 -0.088,0 -0.16016,-0.1515 -0.16015,-0.33789 0,-0.18639 -0.14432,-0.2494 -0.32032,-0.14063 -0.176,0.10878 -0.31836,0.0366 -0.31836,-0.16015 0,-0.19677 -0.12955,-0.27902 -0.28711,-0.18164 -0.15756,0.0974 -0.36898,-0.0396 -0.4707,-0.30469 -0.0814,-0.21268 -0.10148,-0.31781 0.006,-0.31641 z m 2.708975,1.61719 c 0.19116,-0.19116 4.2528,1.73824 4.38282,2.08203 0.0554,0.14641 0.30791,0.18679 0.56054,0.0898 0.25263,-0.097 0.45899,-0.10361 0.45899,-0.0156 0,0.55915 -1.10775,0.3231 -3.04688,-0.64844 -2.46287,-1.23396 -2.56478,-1.2985 -2.35547,-1.50781 z m -87.798825,1.58398 c 0.096,0.008 0.18713,0.025 0.26954,0.0566 0.14235,0.0546 0.22074,0.0585 0.28711,0.0547 -0.23702,0.0664 -0.56826,0.19213 -0.64649,0.16211 -0.39233,-0.15055 -0.50209,-0.10265 -0.3457,0.15039 0.1544,0.24982 0.0517,0.30021 -0.31836,0.15821 -0.37255,-0.14296 -0.47534,-0.0899 -0.31836,0.16406 0.12725,0.20591 0.15832,0.375 0.0703,0.375 -0.088,0 -0.24434,-0.13752 -0.34766,-0.30469 -0.20211,-0.32702 0.43954,-0.73268 1.05078,-0.80859 0.10188,-0.0127 0.20281,-0.0153 0.29883,-0.008 z m 93.794925,0.96875 c 0.0326,-0.003 0.0681,0.006 0.10547,0.0293 0.1496,0.0924 0.18911,0.30101 0.0879,0.46485 -0.25876,0.41868 -0.36133,0.3716 -0.36133,-0.16797 0,-0.19219 0.07,-0.31573 0.16797,-0.32617 z m -95.640625,0.0625 c 0.0662,-0.008 0.11208,8.7e-4 0.13086,0.0312 0.0928,0.15019 -0.32904,0.51063 -0.9375,0.80079 -0.6084601,0.29015 -1.1074201,0.4677 -1.1074201,0.39453 0,-0.28956 1.4507701,-1.1729 1.9140601,-1.22657 z m 96.359375,0.63868 c 0.57425,0.12726 2.49556,1.21087 4.39844,2.5039 1.97488,1.342 0.66234,0.86648 -2.10743,-0.76367 -1.44922,-0.85297 -2.55244,-1.63311 -2.45117,-1.73437 0.0231,-0.023 0.0781,-0.024 0.16016,-0.006 z m -98.7421851,0.79492 c 0.22959,0.22959 -2.54528,2.39482 -3.37891,2.63672 -1.90144,0.55174 -1.97628,0.4839 -0.42968,-0.39258 0.90345,-0.51201 2.10149,-1.25649 2.66015,-1.6543 0.55867,-0.3978 1.0749,-0.66338 1.14844,-0.58984 z m 86.5078101,1.26758 c 4.15687,0.0562 8.243845,0.19797 9.802735,0.42382 1.76,0.255 3.34353,0.48274 3.51953,0.50586 0.17596,0.0231 -0.0405,0.15792 -0.48049,0.29883 -0.42781,0.13701 -6.67693,0.21819 -12.841795,0.23828 z m 0.001,0.0301 v 1.44488 c -4.13803,0.0535 -83.56259,0.22439 -84.91924,0.11676 l -2.5605401,-0.20312 1.43945,-0.64063 c 1.0304501,-0.45798 79.4571101,-0.63985 86.0403301,-0.71789 z m -87.3196301,0.23742 c 0.0165,0.0165 -0.0803,0.14662 -0.27929,0.40039 -0.41804,0.53305 -0.67969,0.70283 -0.67969,0.43946 0,-0.0665 0.25059,-0.319 0.55859,-0.56055 0.25377,-0.19902 0.38387,-0.29581 0.40039,-0.2793 z" />
</svg>
