<?xml version="1.0" encoding="UTF-8" standalone="no"?>
<!-- Created with Inkscape (http://www.inkscape.org/) -->

<svg
   version="1.1"
   id="svg1"
   viewBox="0 0 201.87876 175.56962"
   xmlns="http://www.w3.org/2000/svg"
   xmlns:svg="http://www.w3.org/2000/svg">
  <defs
     id="defs1">
    <linearGradient
       id="swatch23">
      <stop
         style="stop-color:#000000;stop-opacity:1;"
         offset="0"
         id="stop23" />
    </linearGradient>
  </defs>
  <path
     id="rect2"
     style="display:inline;fill:#372520;fill-opacity:1;stroke-width:1.002"
     d="M 100.1855,4.8622733e-4 C 97.172149,0.01585923 95.331959,0.85501923 92.777299,3.3735332 c -1.50358,1.48231 -1.92384,2.150986 -2.48047,3.953125 -1.11892,3.6226228 -0.93696,4.1145358 1.64649,4.4511718 2.20826,0.287745 3.01885,-0.128654 3.45703,-1.775391 0.64475,-2.4230858 2.94671,-4.7295218 4.722651,-4.7324218 2.03537,-0.0033 3.90035,2.077014 3.90235,4.351563 10e-4,1.5440038 -1.11861,3.2791428 -3.15821,4.8945308 -0.72699,0.575783 -1.413571,1.431535 -1.525391,1.900391 -0.11182,0.468853 -0.34714,1.032624 -0.52148,1.253906 -0.29564,0.375216 -0.0826,4.38481 0.2832,5.337891 0.10345,0.269578 -0.67555,0.556077 -2.46289,0.908203 -4.92938,0.971144 -7.19523,2.694575 -10.46875,7.960937 -3.02669,4.869264 -5.38604,6.621628 -16.38477,12.16211 -4.31197,2.172106 -9.1367,4.549918 -10.7207,5.283203 -4.124719,1.909467 -5.526697,3.074007 -5.787108,4.810547 -0.114109,0.760959 -0.328603,1.457388 -0.476562,1.548828 -0.374769,0.231616 -1.361916,-1.355494 -1.164062,-1.871094 0.1146,-0.298649 -0.207209,-0.443324 -1.101563,-0.496094 -3.605523,-0.212742 -9.041307,5.642461 -9.480469,10.212891 -0.243574,2.534911 0.670053,3.037558 3.798828,2.08789 1.160173,-0.352141 2.473126,-0.389996 6.240235,-0.179687 5.890504,0.328852 26.384241,0.248812 26.931641,-0.105469 0.54304,-0.351412 0.50502,-2.514317 -0.0566,-3.28125 -0.43686,-0.596493 -0.95068,-0.621094 -12.94336,-0.621094 H 52.539017 l 2.91211,-1.361328 c 1.60148,-0.7485 3.133082,-1.540273 3.404292,-1.759765 l 2.38086,-1.361328 c 0.90479,-0.517341 3.58723,-1.959865 5.92969,-3.261719 2.34246,-1.301859 6.01462,-3.242363 8.16016,-4.3125 2.14554,-1.070136 4.26117,-2.196712 4.70117,-2.503907 0.78647,-0.549088 2.77099,-1.6141 11.03906,-5.919921 2.288,-1.191534 5.12217,-2.722389 6.29688,-3.402344 1.17471,-0.679955 2.20767,-1.236328 2.29687,-1.236328 0.0892,0 2.007581,0.986877 4.263671,2.193359 2.25612,1.206482 5.47058,2.914172 7.14258,3.794922 9.1094,4.798531 14.44804,7.687171 19.04102,10.304688 2.81596,1.604826 7.88658,4.312372 11.26953,6.015624 3.38294,1.703255 6.11898,3.105065 6.08008,3.115235 -0.0389,0.01017 -3.95898,-0.06182 -8.71094,-0.160156 -11.10846,-0.229862 -15.43461,-0.01024 -16.03906,0.816406 -0.54227,0.741702 -0.57241,2.140448 -0.0566,2.65625 0.60209,0.602076 25.44105,0.537317 27.78711,-0.07227 1.6442,-0.427224 1.9094,-0.407622 4.42382,0.320313 1.47169,0.426048 2.87352,0.77539 3.11328,0.77539 0.23979,0 0.65531,-0.424103 0.92383,-0.943359 0.54938,-1.062378 0.6563,-2.399463 0.16797,-2.097656 -0.17973,0.111077 -0.32031,-0.142354 -0.32031,-0.578125 0,-1.289258 -2.17233,-5.233005 -3.51563,-6.382813 -1.66605,-1.426098 -3.95076,-2.532653 -5.61914,-2.720703 -1.27342,-0.143538 -1.40423,-0.08549 -1.88476,0.84375 -0.28398,0.549147 -0.74593,0.998047 -1.02539,0.998047 -0.41902,0 -0.47069,-0.245313 -0.29688,-1.404297 0.18891,-1.259764 0.12485,-1.474173 -0.62304,-2.0625 -0.45893,-0.360994 -1.36662,-0.82692 -2.01563,-1.035156 -1.38603,-0.444715 -13.65562,-6.540367 -18.00586,-8.945313 -6.83992,-3.781333 -9.2453,-5.897295 -12.03516,-10.591797 -0.84608,-1.423782 -2.01419,-3.145981 -2.5957,-3.826171 -1.24195,-1.452721 -5.01543,-3.426691 -7.17187,-3.751953 l -1.47461,-0.222657 0.41015,-1.1875 c 0.22551,-0.653141 0.33931,-1.553095 0.25391,-2 -0.1303,-0.681636 0.25514,-1.212613 2.38672,-3.292969 2.85645,-2.787823 3.67244,-4.228565 3.86914,-6.835937 0.29015,-3.8458928 -1.71492,-7.5378918 -4.95508,-9.12890597 -1.5571,-0.7645793 -2.25436,-0.9125848 -4.26172,-0.90234380267 z M 100.1738,1.2758768 c 1.84016,0.00566 2.717,0.1702197 3.69336,0.6914064 2.6449,1.411865 4.01723,3.63739 4.25,6.890625 0.24365,3.4052758 -0.98002,5.4211028 -5.36914,8.8476558 -0.65984,0.515126 -0.82756,0.977458 -0.96094,2.654297 -0.14559,1.830818 -0.23392,2.038756 -0.9121,2.134766 -0.74991,0.106155 -0.75214,0.09993 -0.64063,-2.902344 l 0.11133,-3.009766 2.01953,-1.86914 c 2.35515,-2.179764 2.94141,-3.168014 2.94141,-4.9589848 0,-2.613212 -1.64609,-4.810502 -4.20118,-5.607422 -1.633781,-0.509578 -1.00035,-0.63119 0.75196,-0.144531 0.65453,0.181782 1.62473,0.697605 2.1582,1.146484 0.53347,0.448883 0.9707,0.672094 0.9707,0.496094 0,-0.483798 -1.86186,-1.949439 -2.76367,-2.175781 -1.9892,-0.499257 -3.284241,0.04854 -5.589841,2.363281 -1.53399,1.540074 -2.20703,2.454878 -2.20703,3.003906 0,1.3854068 -0.6312,1.8688598 -2.16016,1.6562498 -1.60994,-0.223865 -1.6728,-0.5195458 -0.68555,-3.1582028 0.84118,-2.248231 1.94832,-3.515292 4.32227,-4.945312 1.69263,-1.0196115 2.07529,-1.1200314 4.271481,-1.1132814 z M 84.011669,16.348142 c -0.55603,-0.213366 -10.76995,2.657146 -14.80273,4.160157 -8.73224,3.254504 -19.0639,10.058469 -25.505859,16.798828 -5.667076,5.929576 -10.895473,13.043799 -13.580079,18.474609 -3.843039,7.774262 -4.291512,9.627473 -2.416015,9.988281 1.460668,0.281006 1.880103,-0.09932 2.898437,-2.628906 1.172646,-2.91291 4.068996,-8.143676 6.609375,-11.935547 4.338663,-6.476055 10.403388,-12.775439 16.732422,-17.382812 6.063509,-4.414083 15.393769,-9.147998 22.724609,-11.529297 2.81884,-0.91565 5.43666,-1.664063 5.81836,-1.664063 0.3817,0 1.06417,-0.140856 1.51563,-0.3125 0.65202,-0.247915 0.8194,-0.52887 0.8164,-1.361328 -0.006,-1.459932 -0.30286,-2.412602 -0.81055,-2.607422 z m 32.996101,0.867188 c -0.276,0.105909 -0.50195,0.545709 -0.50195,0.976562 0,0.430857 -0.164,0.83917 -0.36524,0.90625 -0.26956,0.08983 -0.27307,0.294555 -0.0137,0.779297 0.24697,0.461466 1.01752,0.819438 2.58008,1.199219 3.72044,0.904259 10.84124,3.615039 15.24023,5.800781 8.54992,4.248218 14.42554,8.496822 21.96484,15.884766 3.25113,3.185838 5.50572,5.691776 6.42969,7.146484 0.7825,1.231996 1.97478,3.10416 2.65039,4.160156 1.69181,2.644328 4.72113,8.082845 5.25782,9.439454 0.2437,0.615997 0.57498,1.2924 0.73437,1.501953 0.48758,0.641067 3.16197,0.911691 4.0918,0.414062 0.75008,-0.401429 0.82726,-0.199097 -2.47461,-6.501953 -2.6246,-5.009947 -5.5592,-9.657307 -8.99414,-14.242188 -1.97619,-2.637739 -9.31647,-9.342838 -14.41016,-13.164062 -3.7117,-2.784463 -10.18472,-6.753145 -13.8164,-8.470703 -5.24864,-2.482268 -17.208,-6.277153 -18.37305,-5.830078 z m -34.146491,0.607422 c 0.69255,-0.06127 0.68555,0.189872 0.68555,0.689453 0,0.697456 -0.14697,0.83845 -0.88086,0.84375 -2.02504,0.01476 -12.56665,3.378061 -14,4.466797 -0.176,0.133682 -0.89561,0.425092 -1.59961,0.648437 -1.9931,0.63231 -6.1534,2.799004 -8.79687,4.582031 C 44.747077,38.174 36.153573,48.042013 30.10347,61.393064 c -1.362738,3.007224 -1.952268,3.796465 -2.351562,3.150391 -0.208813,-0.337866 2.495433,-6.630803 4.130859,-9.613282 3.232951,-5.89582 6.753656,-10.487089 12.773438,-16.652343 9.324569,-9.549908 19.971344,-15.70718 33.324214,-19.273438 2.79793,-0.747258 4.18873,-1.12037 4.88086,-1.18164 z m 34.791021,0.566406 c 0.64766,0 5.73534,1.471148 9.25781,2.677734 7.59761,2.60247 12.72363,5.217364 19.52735,9.960938 5.74049,4.002324 13.54203,10.895051 16.11718,14.240234 3.88716,5.049426 8.98137,13.451824 11.4961,18.960938 0.0602,0.131996 -0.40644,0.240234 -1.03711,0.240234 -1.11119,0 -1.14739,-0.03835 -1.15039,-1.201172 -0.004,-1.485554 -0.98045,-3.616084 -3.48047,-7.59375 -3.56877,-5.678088 -6.21261,-8.83255 -12.25,-14.615234 -10.54899,-10.10391 -18.68173,-15.212399 -30.66602,-19.265625 -2.90396,-0.982163 -5.89262,-1.880534 -6.64062,-1.996094 -1.0409,-0.160812 -1.35938,-0.352014 -1.35938,-0.810547 0,-0.329506 0.0829,-0.597656 0.18555,-0.597656 z m -16.48438,6.275391 c 0.77748,-0.01085 1.49731,0.02361 2.09961,0.109374 4.15714,0.591955 6.77639,2.47032 9.16602,6.574219 2.94215,5.052777 4.46941,6.520677 10.63281,10.222657 3.95556,2.37585 14.40409,7.725845 19.08594,9.771484 l 3.08594,1.347656 -0.16992,1.261719 c -0.13703,1.021704 -0.0284,1.411556 0.57031,2.048828 1.06956,1.138494 1.99672,1.022353 2.64258,-0.332031 0.64768,-1.358276 1.31858,-1.423836 3.61718,-0.353516 2.06887,0.963326 3.57145,2.469985 4.67774,4.689453 0.89936,1.804325 1.50537,4.471498 1.01172,4.455078 -0.1545,-0.0051 -1.4338,-0.619912 -2.8418,-1.365234 -1.408,-0.745321 -3.63899,-2.087399 -4.95899,-2.982422 -1.31996,-0.895024 -2.97568,-1.812689 -3.67968,-2.039062 -0.704,-0.226377 -2.504,-1.026652 -4,-1.779297 -3.88791,-1.956025 -22.71296,-12.120897 -29.60156,-15.984375 -5.03107,-2.821667 -11.9582,-6.240235 -12.644541,-6.240235 -0.51399,0 -1.90041,0.743053 -7.99414,4.279297 -0.792,0.459606 -3.09709,1.654836 -5.12109,2.65625 -2.024,1.001414 -4.96902,2.585313 -6.54492,3.519531 -1.57591,0.934222 -3.37386,1.866908 -3.9961,2.072266 -0.62223,0.205357 -1.7954,0.780845 -2.60547,1.279297 -0.81006,0.498452 -2.0433,1.107624 -2.74023,1.353516 -0.69694,0.245889 -2.05758,0.953166 -3.02539,1.572265 -0.96781,0.619102 -2.25625,1.336487 -2.86328,1.59375 -0.60702,0.257266 -2.91752,1.549635 -5.13281,2.873047 -2.4293,1.451229 -4.565737,2.498344 -5.384769,2.636719 -0.786307,0.132846 -1.796378,0.613967 -2.398438,1.142578 -1.411724,1.239514 -5.277111,3.397815 -7.753906,4.330078 l -2.035156,0.765625 v -0.830078 c 0,-1.297692 2.196354,-5.155022 3.648437,-6.408203 0.721472,-0.622649 1.983968,-1.476903 2.804688,-1.896484 l 1.492187,-0.761719 0.703125,1.351562 c 1.071794,2.060851 1.534024,2.237461 2.726563,1.044922 0.52966,-0.529661 0.785156,-1.144002 0.785156,-1.886719 0,-0.851246 0.247666,-1.318676 1.085937,-2.054687 1.094891,-0.961327 1.784806,-1.322749 7.874996,-4.130859 5.03054,-2.319508 14.61744,-7.368413 16.79883,-8.847657 3.14627,-2.133538 4.93582,-4.016257 7.37305,-7.755859 2.54912,-3.91127 3.88166,-5.150698 6.63281,-6.169922 1.78967,-0.663019 4.64416,-1.100253 6.976561,-1.132812 z m -3.060541,11.171874 c -0.352,0.292405 -1.57671,0.999435 -2.72071,1.570313 -1.14396,0.570878 -3.0461,1.564362 -4.22656,2.208984 -2.10813,1.151199 -2.91984,1.458698 -2.31836,0.878907 0.1672,-0.161172 2.46547,-1.393498 5.10547,-2.740235 2.64,-1.346733 4.51216,-2.210371 4.16016,-1.917969 z m 12.359371,4.361329 c 0.40727,0.09424 1.40611,0.587055 2.14063,1.095703 0.0557,0.03858 -0.0165,0.13455 -0.16016,0.21289 -0.14371,0.07834 -0.65475,-0.08669 -1.13672,-0.367187 -0.48196,-0.28049 -0.94158,-0.68033 -1.02148,-0.888672 -0.0275,-0.07175 0.042,-0.08414 0.17773,-0.05273 z m -22.216791,0.722656 c 0.0248,0.01724 0.005,0.05957 -0.0645,0.128906 -0.176,0.175981 -1.61522,1.002147 -3.19922,1.835938 -1.58396,0.833787 -3.67262,1.982437 -4.64062,2.552734 -2.71214,1.597856 -4.47852,2.432167 -4.47852,2.115234 0,-0.15822 0.46707,-0.480752 1.03907,-0.716797 0.572,-0.236042 1.93833,-0.973368 3.03515,-1.638671 1.09682,-0.665307 2.08276,-1.208985 2.19141,-1.208985 0.10865,0 1.01133,-0.499441 2.00586,-1.109375 1.65016,-1.012025 3.93714,-2.079647 4.11133,-1.958984 z m 25.509761,0.939453 c 0.10507,0.02617 0.22817,0.150673 0.39649,0.380859 0.23714,0.324302 0.42968,0.488494 0.42968,0.363282 0,-0.125216 0.57725,0.06468 1.28125,0.423828 0.704,0.35915 1.2793,0.794374 1.2793,0.966797 0,0.392449 0.1169,0.427396 -1.67969,-0.507813 -0.836,-0.435175 -1.51953,-0.940033 -1.51953,-1.123047 0,-0.183019 -0.16789,-0.231047 -0.37109,-0.105468 -0.24418,0.150915 -0.2801,0.08678 -0.10938,-0.189454 0.10084,-0.163153 0.1879,-0.235154 0.29297,-0.208984 z m 4.41016,2.597656 c 0.0939,-0.09385 1.73884,0.715729 3.65429,1.798828 3.78383,2.139545 3.81119,2.158142 3.61524,2.328125 -0.0733,0.06362 -1.71635,-0.741282 -3.65235,-1.789062 -3.85666,-2.087275 -3.86328,-2.091786 -3.61718,-2.337891 z M 75.165969,47.59033 c 0.19658,-0.06485 0.38086,-0.0069 0.38086,0.230469 0,0.201046 -0.132,0.285026 -0.29297,0.185546 -0.16097,-0.09948 -0.36723,-0.03306 -0.45703,0.148438 -0.0899,0.181505 -0.12774,0.15481 -0.0859,-0.05859 0.0497,-0.253727 0.25851,-0.441009 0.45508,-0.505859 z m -0.9043,0.800781 c -0.008,0.369274 -3.79567,2.319841 -3.96679,2.042969 -0.0837,-0.135376 0.77608,-0.704442 1.91015,-1.263672 1.13406,-0.559234 2.05964,-0.909654 2.05664,-0.779297 z m 52.093751,0.601562 c 0.17485,-0.108058 0.49736,0.01724 0.71485,0.279297 0.4318,0.520289 0.0926,0.628768 -0.59766,0.191407 -0.26373,-0.167107 -0.31029,-0.351356 -0.11719,-0.470704 z m 1.47657,0.84375 c 0.20768,-0.207676 2.7539,1.244136 2.7539,1.570313 0,0.342948 0.0478,0.361283 -1.5332,-0.591797 -0.7552,-0.455255 -1.3043,-0.894876 -1.2207,-0.978516 z m -58.685551,1.089844 c 0.0791,0.02086 0.13824,0.06655 0.18164,0.136719 0.15003,0.24276 0.10097,0.300731 -0.13281,0.15625 -0.20319,-0.12558 -0.36914,-0.06787 -0.36914,0.128906 0,0.196776 -0.14435,0.268928 -0.32031,0.160157 -0.176,-0.108773 -0.32032,-0.04805 -0.32032,0.134765 0,0.420302 -2.57198,1.782207 -3.15039,1.667969 -0.23765,-0.04694 -0.3387,0.06809 -0.22265,0.255859 0.1161,0.187771 0.13878,0.341797 0.0508,0.341797 -0.088,0 -0.24352,-0.138138 -0.34766,-0.30664 -0.10414,-0.168503 0.28357,-0.547356 0.86133,-0.841797 0.57775,-0.294445 1.65002,-0.881782 2.38281,-1.306641 0.73108,-0.423867 1.14938,-0.589914 1.38672,-0.527344 z m 62.404301,0.964844 c -0.003,-0.142153 0.71588,0.144519 1.5957,0.638672 0.87982,0.494148 1.59943,1.006672 1.59961,1.138672 4.2e-4,0.307799 0.0894,0.342312 -1.67578,-0.660156 -0.83346,-0.473344 -1.51653,-0.975036 -1.51953,-1.117188 z m -27.72852,0.417969 c -1.67338,0 -2.03515,0.485781 -2.03516,2.730469 v 2.068359 h -1.906241 -1.9043 l -0.0957,-2.160156 -0.0938,-2.158203 -1.32226,-0.09766 c -2.25275,-0.164568 -2.35938,0.122376 -2.35938,6.333985 0,2.965022 -0.0796,5.599771 -0.17773,5.855468 -0.33439,0.871429 0.77793,1.546941 2.37695,1.44336 l 1.48242,-0.0957 0.0918,-2.640625 0.0937,-2.640625 h 1.90625 1.908201 v 1.90039 c 1e-5,1.044539 0.1389,2.267297 0.31055,2.71875 0.27153,0.714189 0.50191,0.822266 1.76172,0.822266 1.15702,0 1.45065,-0.113054 1.46875,-0.560547 0.0124,-0.308 0.0502,-3.286018 0.082,-6.617188 0.0623,-6.523606 -0.0259,-6.902343 -1.58789,-6.902343 z m -18.972661,0.320312 c -5.22277,0 -5.14257,-0.03283 -5.14257,2.041016 0,1.414285 0.50226,1.798828 2.35351,1.798828 h 1.58399 l -0.21289,4.453125 c -0.1826,3.825148 -0.13982,4.526201 0.29492,4.960938 0.50761,0.507615 2.20655,0.674233 3.1543,0.310546 0.42985,-0.164967 0.50585,-0.904981 0.50585,-4.914062 V 56.55908 l 1.35938,-0.285157 c 1.22502,-0.257129 1.36968,-0.387089 1.45898,-1.310546 0.0545,-0.563868 -0.0572,-1.319556 -0.25,-1.679688 -0.32893,-0.614606 -0.6427,-0.654297 -5.10547,-0.654297 z m 30.361331,0 c -2.61075,0 -4.8191,0.117514 -4.9082,0.261719 -0.25276,0.409084 -0.29915,12.541078 -0.0488,12.792969 0.21469,0.216005 3.71154,0.537924 7.06836,0.65039 0.90226,0.03023 1.7856,-0.115679 2,-0.330078 0.2112,-0.2112 0.38477,-0.90156 0.38477,-1.535156 0,-1.688564 -0.41255,-1.919922 -3.42383,-1.919922 -2.61975,0 -2.65625,-0.01171 -2.65625,-0.800781 0,-0.78495 0.047,-0.800781 2.49609,-0.800781 2.63509,0 3.26367,-0.276578 3.26367,-1.441407 0,-1.374216 -0.70893,-1.825734 -3.14453,-2 -1.99203,-0.142528 -2.29492,-0.245305 -2.29492,-0.777343 0,-0.562588 0.23478,-0.607478 2.84375,-0.554688 1.56403,0.03164 3.00325,-0.04295 3.19922,-0.164062 0.19597,-0.121117 0.35547,-0.703708 0.35547,-1.294922 0,-2.125086 0.0936,-2.085938 -5.13477,-2.085938 z m -11.46484,0.958985 c 0.56441,0 0.59961,0.341122 0.59961,5.759765 0,5.546647 -0.0224,5.759766 -0.63867,5.759766 -0.58283,0 -0.64063,-0.213272 -0.64063,-2.388672 0,-2.931702 -0.23432,-3.117492 -3.763671,-2.984375 l -2.47656,0.09375 -0.0156,2.560547 -0.0176,2.558594 -0.9082,0.105468 c -0.73542,0.08551 -0.86848,0.0052 -0.70312,-0.425781 0.11227,-0.292421 0.20507,-2.823406 0.20507,-5.625 0,-4.880475 0.0274,-5.09375 0.64063,-5.09375 0.56127,0 0.63867,0.213888 0.63867,1.734375 0,2.757161 -0.0119,2.746094 3.2207,2.746094 h 2.830081 l 0.20703,-1.099609 c 0.1134,-0.604579 0.12031,-1.23886 0.0156,-1.408204 -0.10428,-0.169339 -0.10112,-0.754705 0.008,-1.300781 0.13738,-0.686861 0.38375,-0.992187 0.79883,-0.992187 z m -39.863281,0.160156 c 0.13718,-0.0013 0.23929,0.05582 0.30859,0.167969 0.11185,0.180833 0.0845,0.30645 -0.0605,0.28125 -0.64787,-0.112545 -1.08553,0.05833 -0.9043,0.351562 0.1088,0.176 0.12511,0.318359 0.0371,0.318359 -0.088,0 -0.24434,-0.135565 -0.34766,-0.302734 -0.10332,-0.16717 0.0951,-0.455318 0.44141,-0.640625 0.2147,-0.114901 0.3882,-0.174481 0.52539,-0.175781 z m 21.12695,0.160156 c 3.659,0 4.01457,0.05128 3.91797,0.560547 -0.0775,0.408498 -0.47479,0.586423 -1.46484,0.658203 l -1.35547,0.09766 v 4.941407 c 0,4.911231 -0.005,4.941274 -0.72071,4.941406 -0.71469,1.33e-4 -0.7207,-0.03135 -0.7207,-4.878906 v -4.88086 l -1.83984,-0.0957 c -1.57816,-0.08231 -1.83985,-0.185478 -1.83985,-0.720703 0,-0.585616 0.24767,-0.623047 4.02344,-0.623047 z m 26.216801,0.002 h 3.91992 c 3.22853,-9.44e-4 3.91992,0.08102 3.91992,0.466797 0,0.372926 -0.63516,0.487627 -3.11914,0.560547 l -3.12109,0.08984 -0.0996,1.404297 c -0.0553,0.771908 0.0584,1.563676 0.2539,1.759765 0.19554,0.196088 1.39213,0.429578 2.65821,0.517578 1.83699,0.127681 2.32345,0.269459 2.40625,0.705079 0.0935,0.491764 -0.16612,0.52663 -2.61914,0.353515 l -2.72461,-0.191406 -0.21289,0.847656 c -0.29533,1.176686 0.095,2.983281 0.69336,3.212891 0.2736,0.104953 1.56547,0.191363 2.87108,0.191363 2.16049,0 2.37305,0.05805 2.37305,0.640625 0,0.690699 0.1165,0.681223 -5.11914,0.404297 l -2.08008,-0.109375 V 59.336423 Z M 62.566359,54.83647 c 0.16588,0.268398 -1.48406,1.121685 -1.92969,0.998047 -0.11987,-0.03326 -0.30639,0.07769 -0.41406,0.246094 -0.3818,0.597146 -4.062558,2.431187 -5.574217,2.882813 0.03454,-0.0296 0.04889,-0.07427 -0.0078,-0.166016 -0.120304,-0.194655 0.157421,-0.433403 0.648437,-0.556641 0.472049,-0.118477 1.227003,-0.474764 1.677734,-0.792968 1.514036,-1.068874 5.425646,-2.8928 5.599606,-2.611329 z m 76.548831,0.830079 c 0.10706,0.0014 0.33993,0.109058 0.75977,0.326171 0.8106,0.419172 1.30422,1.115235 0.79101,1.115235 -0.088,0 -0.16015,-0.151504 -0.16015,-0.337891 0,-0.186385 -0.14432,-0.249399 -0.32032,-0.140625 -0.176,0.108774 -0.31836,0.03661 -0.31836,-0.160156 0,-0.196771 -0.12955,-0.279021 -0.28711,-0.181641 -0.15756,0.09738 -0.36898,-0.03962 -0.4707,-0.304687 -0.0814,-0.212677 -0.1012,-0.317806 0.006,-0.316406 z m 2.70898,1.617187 c 0.19116,-0.191156 4.2528,1.738236 4.38282,2.082031 0.0554,0.14641 0.30791,0.186784 0.56054,0.08984 0.25263,-0.09696 0.45899,-0.103625 0.45899,-0.01563 0,0.559151 -1.10775,0.3231 -3.04688,-0.648437 -2.46289,-1.233967 -2.56478,-1.298506 -2.35547,-1.507813 z m -88.097653,1.591797 c 0.20375,-0.0253 0.403548,-0.01441 0.56836,0.04883 0.142352,0.05463 0.220739,0.05849 0.287109,0.05469 -0.237017,0.06636 -0.568255,0.192129 -0.646485,0.162109 -0.392332,-0.150551 -0.502091,-0.102655 -0.345703,0.150391 0.154403,0.249822 0.05169,0.300206 -0.318359,0.158203 -0.372549,-0.142962 -0.475341,-0.08994 -0.318359,0.164062 0.127249,0.205909 0.158312,0.375 0.07031,0.375 -0.088,0 -0.244339,-0.137518 -0.347656,-0.304687 -0.20211,-0.327022 0.439534,-0.732684 1.050781,-0.808594 z m 94.199223,0.990234 c 0.1496,0.09242 0.18913,0.301005 0.0879,0.464844 -0.25876,0.418682 -0.36133,0.371604 -0.36133,-0.167969 0,-0.256254 0.1239,-0.389295 0.27344,-0.296875 z m -95.615239,0.06445 c 0.09282,0.150183 -0.329037,0.510626 -0.9375,0.800782 -0.608458,0.290151 -1.107421,0.467701 -1.107421,0.394531 0,-0.33092 1.894697,-1.438383 2.044921,-1.195313 z m 96.068359,0.613282 c 0.18438,-0.184381 2.38388,1.020295 4.5586,2.498047 1.9749,1.341999 0.66234,0.866479 -2.10743,-0.763672 -1.44924,-0.852976 -2.55244,-1.633109 -2.45117,-1.734375 z m -98.58203,0.789062 c 0.229591,0.229596 -2.545284,2.394826 -3.378907,2.636719 -1.901443,0.551742 -1.976288,0.483909 -0.429687,-0.392578 0.903461,-0.512011 2.101492,-1.25649 2.660156,-1.654297 0.558668,-0.397807 1.074898,-0.663384 1.148438,-0.589844 z m 85.625,1.24605 c 4.46889,0.04533 9.01073,0.202661 10.68555,0.445312 1.76,0.254998 3.34353,0.48274 3.51953,0.50586 0.176,0.02312 -0.0405,0.157916 -0.48047,0.298828 -0.83646,0.267882 -24.05241,0.35652 -25.05859,0.0957 -1.00008,-0.25924 -0.38807,-0.88616 1.08398,-1.111328 1.38355,-0.211625 5.78114,-0.279705 10.25,-0.234375 z m -70.996091,0.03711 c 12.29481,-0.09065 12.7207,-0.07507 12.7207,0.509765 0,0.567825 -0.41925,0.618887 -6.80078,0.816406 -13.200415,0.408569 -16.425107,0.451032 -18.958986,0.25 l -2.560546,-0.203125 1.439453,-0.640625 c 1.348482,-0.599324 2.248535,-0.644602 14.160159,-0.732421 z m -15.439456,0.251953 c 0.01652,0.01652 -0.08028,0.146622 -0.279297,0.400391 -0.418038,0.533043 -0.679688,0.702824 -0.679688,0.439453 0,-0.06645 0.250594,-0.318997 0.558594,-0.560547 0.253769,-0.199016 0.383871,-0.295806 0.400391,-0.279297 z m 15.263676,8.701172 c -1.89078,0.02915 -3.75712,0.433745 -5.35938,1.238282 -1.95478,0.981554 -4.323469,3.363628 -5.140624,5.171875 l -0.763672,1.689453 -0.09766,17.279295 c -0.06835,12.030769 0.01253,17.864419 0.267578,19.201169 0.696987,3.65295 2.972262,6.59407 6.316408,8.16602 2.74411,1.28988 5.54152,1.41445 8.96875,0.39844 3.78658,-1.12256 6.64354,-3.78909 7.50391,-7.00586 0.2002,-0.74855 0.44467,-1.3107 0.54297,-1.25 0.0983,0.0607 0.17773,-7.72374 0.17773,-17.298829 0,-9.575105 -0.10823,-17.410189 -0.24023,-17.410157 -0.132,3.1e-5 -0.24024,-0.480471 -0.24024,-1.06836 0,-1.595312 -1.7452,-4.804217 -3.41211,-6.271484 -2.15614,-1.897934 -5.37217,-2.888424 -8.52343,-2.839844 z m 110.816401,0.347657 -5.35937,0.08789 c -2.948,0.04762 -5.46761,0.09922 -5.59961,0.115235 -0.62449,0.07581 -0.15453,1.337581 0.65429,1.755859 l 0.89454,0.462891 -0.0469,12.349609 c -0.026,6.792934 -0.12054,12.425224 -0.21094,12.515624 -0.0904,0.0904 -0.3354,-0.74032 -0.54297,-1.8457 -0.20756,-1.10538 -0.72438,-3.44899 -1.15039,-5.20899 -0.42601,-1.759984 -1.21187,-5.143536 -1.74609,-7.519528 -0.53422,-2.375988 -1.27788,-5.545023 -1.65234,-7.041015 -0.37446,-1.495996 -0.81104,-3.257061 -0.97071,-3.914063 -0.15968,-0.657003 -0.53782,-1.308833 -0.83984,-1.447265 -0.30202,-0.13843 -3.0685,-0.175425 -6.14649,-0.08398 -4.98749,0.148171 -5.60812,0.226024 -5.70312,0.722656 -0.0694,0.362619 0.29338,0.793616 1.03711,1.232422 l 1.14258,0.673828 0.0801,16.369141 c 0.044,9.002583 0.0533,19.745533 0.0215,23.875003 -0.0529,6.86088 -0.10676,7.54377 -0.63867,7.91016 -1.14241,0.78689 -1.41736,1.12862 -1.31836,1.64257 0.0815,0.42347 0.96958,0.61606 4.73828,1.03321 2.55061,0.28235 4.81711,0.45275 5.03711,0.37695 0.57201,-0.1972 0.49392,-1.35568 -0.13867,-2.05469 -0.47989,-0.53025 -0.52406,-1.35806 -0.40039,-7.54687 0.0764,-3.82237 0.1349,-11.4853 0.1289,-17.029299 -0.006,-5.54396 0.0873,-9.430671 0.20703,-8.638675 0.11975,0.792 0.51598,2.806525 0.88282,4.478525 0.36683,1.67196 0.82161,4.19356 1.00976,5.601559 0.18814,1.408 0.70362,3.92761 1.14453,5.59961 0.44091,1.672 1.29363,5.41631 1.89453,8.32031 1.24227,6.00306 2.81315,11.50684 3.38672,11.86133 0.2133,0.13183 1.48074,0.40324 2.81641,0.60351 1.33567,0.20027 2.93283,0.4869 3.54883,0.63672 0.616,0.14982 1.58815,0.28669 2.16015,0.30469 0.85239,0.0268 1.03907,-0.088 1.03907,-0.63672 0,-0.36824 -0.28866,-1.03834 -0.64258,-1.48828 -0.63252,-0.80412 -0.64351,-1.24785 -0.63281,-26.033199 l 0.0117,-25.214852 0.95118,-0.679687 c 0.58274,-0.414981 0.95312,-0.963112 0.95312,-1.412109 z m 13.5586,0.0039 c -3.99963,0.139473 -7.70257,2.455641 -9.13086,5.298828 -0.41139,0.81891 -0.82021,1.562391 -0.90821,1.650391 -0.29814,0.298133 -0.33222,1.736067 -0.49804,21.076179 -0.14724,17.173799 -0.10693,19.515739 0.35351,21.099599 1.02925,3.54045 3.4085,6.09148 7.09961,7.60937 2.23108,0.91749 5.51057,1.025 8.10742,0.26563 3.34663,-0.97861 5.62989,-2.94676 7.10352,-6.125 0.68199,-1.4709 0.71069,-1.94385 0.80859,-13.0625 l 0.10156,-11.537109 -0.81054,-0.4336 c -0.99796,-0.53409 -11.04091,-0.25184 -11.39453,0.32032 -0.11784,0.19073 -0.18474,1.936059 -0.14844,3.878899 0.0755,4.04757 0.10612,4.09457 2.66016,4.10157 l 1.70312,0.006 -0.10351,6.87305 -0.10157,6.87306 -0.83203,0.83007 c -1.06203,1.06121 -3.01725,1.36485 -4.35351,0.67382 -2.05506,-1.06269 -2.03096,-0.82939 -2.00586,-20.73045 0.0209,-16.53638 0.0658,-18.027925 0.5664,-18.439462 0.34486,-0.283454 0.36835,-0.358321 0.0645,-0.203124 -0.4192,0.214141 -0.42237,0.174958 -0.0234,-0.316407 0.59763,-0.736116 2.05823,-1.480468 2.90429,-1.480469 1.11215,10e-7 2.51525,0.907642 3.10157,2.00586 0.40721,0.762739 0.59701,2.126426 0.72461,5.193359 l 0.17382,4.160157 3.66016,0.24414 c 2.14455,0.142767 3.78171,0.122577 3.95313,-0.04883 0.474,-0.474008 0.65542,-6.720391 0.26757,-9.203125 -1.11139,-7.114549 -5.91062,-10.828794 -13.04296,-10.580078 z m -176.67774,0.02539 c -3.2965067,0.03725 -3.9585557,0.139891 -5.3613277,0.830078 -1.977769,0.973092 -4.185668,2.973198 -4.945312,4.478515 C 0.07905433,80.348719 0.05149333,80.737 0.01167333,100.7993 c -0.03686,18.56827 -0.02612,18.89841 0.650391,20.70508 1.48044797,3.95364 3.59641997,6.08547 7.20507797,7.26172 2.2239217,0.72489 3.9241557,0.80688 6.3027347,0.30273 0.93266,-0.19769 2.200406,-0.61013 2.816406,-0.91601 0.615996,-0.30589 1.335609,-0.48419 1.599609,-0.39649 0.263984,0.0877 0.386332,0.0579 0.271485,-0.0664 -0.11485,-0.12428 0.42718,-0.81226 1.205078,-1.5293 1.656685,-1.52709 3.124035,-4.41134 3.617187,-7.11133 0.502252,-2.7497 0.462449,-11.90857 -0.05273,-12.10351 -0.22,-0.0832 -2.056086,-0.0636 -4.080078,0.0449 l -3.679688,0.19727 -0.160156,6.02539 -0.160156,6.02539 -1.195313,1.0957 c -1.575817,1.443 -3.302613,1.52297 -4.5937497,0.21289 l -0.86914,-0.88281 0.04687,-18.82227 c 0.02591,-10.353105 0.156172,-19.010201 0.289063,-19.236321 0.132891,-0.226121 0.726933,-0.65947 1.3203127,-0.962891 1.799745,-0.920285 4.197075,-0.08827 4.890624,1.697266 0.1811,0.466235 0.315355,2.664213 0.296876,4.884765 -0.0242,2.90762 0.07809,4.125067 0.36914,4.34961 0.222272,0.171484 2.059996,0.299202 4.083984,0.283202 l 3.681641,-0.02927 v -5.919922 c 0,-6.677629 -0.239906,-7.628805 -2.558594,-10.195312 -1.235658,-1.367731 -4.175979,-3.244141 -5.082031,-3.244141 -0.286576,0 -0.519531,-0.127833 -0.519531,-0.283203 0,-0.155375 -1.691774,-0.263604 -3.759766,-0.240234 z m 117.11719,0.06641 c -0.86218,-0.02409 -2.01632,-0.008 -3.37109,0.04883 -3.76322,0.157783 -4.38672,0.258091 -4.38672,0.705078 0,0.286524 0.30524,0.782907 0.67968,1.103516 0.58924,0.504514 0.65577,0.803973 0.48438,2.230468 -0.10887,0.906502 -0.19917,5.284532 -0.20117,9.728516 l -0.004,8.08008 h -3.55469 -3.55664 l 0.1211,-9.000002 c 0.0666,-4.949837 0.0254,-8.658091 -0.0918,-8.240234 -0.20459,0.729556 -0.21549,0.731857 -0.24609,0.05859 -0.0175,-0.385612 0.11605,-0.791795 0.29492,-0.902344 0.17892,-0.110548 0.24168,-0.33453 0.14062,-0.498047 -0.10106,-0.163517 0.22066,-0.648472 0.71485,-1.078125 0.74023,-0.643567 0.83693,-0.884015 0.54492,-1.361328 -0.31491,-0.514764 -0.93725,-0.587656 -5.57617,-0.666016 -2.87174,-0.04851 -5.34502,0.03447 -5.4961,0.185547 -0.42409,0.424092 -0.0173,1.128738 0.98242,1.699219 l 0.90821,0.517578 -0.11914,23.162112 c -0.072,13.948409 -0.1373,19.369869 -0.30469,21.699219 0.0282,-0.0549 0.0635,-0.0368 0.10156,0.10937 0.0811,0.31134 0.0759,0.74429 -0.0117,0.96094 -0.0659,0.16286 -0.1091,-0.001 -0.1289,-0.28711 -0.0713,0.67336 -0.15987,0.96744 -0.27344,1.05274 -0.29998,0.22514 -0.45528,0.73325 -0.39258,1.28125 l 0.10352,0.90625 4.64062,-0.10352 c 5.21024,-0.11602 5.75977,-0.20367 5.75977,-0.93164 0,-0.28229 -0.25255,-0.79248 -0.56055,-1.13281 -0.45793,-0.50597 -0.56328,-1.25361 -0.58008,-4.09961 -0.0113,-1.91419 -0.11954,-3.57853 -0.24023,-3.69922 -0.33058,-0.33055 -0.26363,-9.40395 0.0781,-10.5957 0.21485,-0.74932 0.19256,-1.04762 -0.0801,-1.07422 -1.07305,-0.10456 2.50334,-0.56809 4.5039,-0.58399 l 2.31836,-0.0195 v 9.82032 c 0,9.69866 -0.009,9.82852 -0.70898,10.57421 -0.55509,0.59086 -0.63348,0.87379 -0.36524,1.30079 0.27131,0.43188 1.00145,0.58174 3.50781,0.72265 6.11519,0.34379 6.53546,0.3332 6.72852,-0.16992 0.0996,-0.25954 -0.10818,-0.94307 -0.46094,-1.51953 -0.62126,-1.01525 -0.64702,-1.75001 -0.81054,-23.447269 -0.14633,-19.416204 -0.10366,-22.572143 0.3125,-23.681642 0.83534,-2.227162 0.8425,-2.331016 0.21289,-2.667968 -0.18664,-0.09989 -0.75501,-0.1634 -1.61719,-0.1875 z m -22.07617,48.255857 c 0.0165,-0.15544 0.0244,-0.579 0.0391,-0.7832 -0.0319,0.0621 -0.0556,0.22377 -0.0586,0.50391 -0.002,0.13108 0.0125,0.18489 0.0195,0.27929 z M 28.111283,72.020017 c -0.715591,-0.05788 -0.630095,1.093905 0.126953,1.707032 l 0.742187,0.599609 -0.0957,25.390623 c -0.09161,24.556369 -0.115096,25.419299 -0.716797,26.257809 -1.117078,1.55681 -0.747432,2.33005 0.978516,2.04688 0.615996,-0.10106 2.848947,-0.39661 4.960938,-0.65625 6.014425,-0.73941 11.944621,-1.409 14.478515,-1.63477 1.964262,-0.17503 2.320313,-0.29849 2.320313,-0.79687 0,-0.32375 -0.144313,-0.67638 -0.320313,-0.78516 -0.176,-0.10877 -0.321519,-1.37675 -0.324219,-2.81836 -0.0027,-1.44162 -0.127969,-2.81511 -0.277343,-3.05078 -0.218507,-0.34484 -0.73326,-0.36372 -2.634766,-0.0977 -1.299924,0.18185 -3.515836,0.4161 -4.923828,0.52148 -1.407996,0.10537 -3.171926,0.27458 -3.919922,0.375 l -1.359378,0.18364 V 97.176271 75.09033 l 1.173828,-0.941407 c 0.812803,-0.652052 1.109574,-1.10372 0.96875,-1.470703 -0.176772,-0.460656 -0.892178,-0.536385 -5.492187,-0.578125 -2.909512,-0.0264 -5.467957,-0.06248 -5.685547,-0.08008 z m 114.849607,0.04687 c -0.87261,-0.04309 -2.25531,-0.01797 -4.53125,0.05859 -4.89575,0.164698 -5.44787,0.239668 -5.54687,0.757813 -0.08,0.418567 0.23948,0.712641 1.16992,1.078124 0.78017,0.306462 1.35121,0.769384 1.46289,1.185547 0.10065,0.375233 0.18355,10.988667 0.18555,23.58594 l 0.006,22.904289 -0.80078,0.75196 c -0.44,0.41336 -0.80079,0.99099 -0.80079,1.28515 0,0.45942 0.55271,0.56448 3.91993,0.74219 2.15596,0.11379 4.35286,0.34164 4.88086,0.50586 1.37384,0.42729 1.9048,0.28196 2.02343,-0.55078 0.0572,-0.40133 -0.1981,-1.24161 -0.56836,-1.86914 -0.66456,-1.12635 -0.675,-1.43963 -0.78906,-24.373049 -0.10431,-20.972308 -0.0647,-23.309188 0.40234,-24.04492 0.28455,-0.44823 0.63126,-0.899042 0.77149,-1 0.14022,-0.100958 -3.4e-4,-0.39848 -0.3125,-0.662109 -0.23761,-0.200667 -0.60004,-0.312389 -1.47266,-0.355469 z m -51.730471,0.04687 c -6.14065,0.0016 -12.2853,0.04898 -12.3789,0.142578 -0.12531,0.125309 -0.027,0.76435 0.21875,1.419922 0.24572,0.655577 0.52509,2.48827 0.62109,4.072266 l 0.17383,2.880859 1.44141,-0.03711 c 0.792,-0.02016 2.48376,-0.149743 3.75976,-0.28711 l 2.32031,-0.25 0.006,3.167969 c 0.003,1.741522 0.0335,10.97184 0.0684,20.511719 l 0.0645,17.34375 -0.75,0.79883 c -1.43794,1.53062 -0.90946,1.71907 4.61718,1.63867 3.71936,-0.0541 5.08395,-0.18243 5.27539,-0.49219 h 0.002 c 0.2994,-0.48444 0.092,-1.20905 -0.56055,-1.9707 -0.38817,-0.4531 -0.45617,-3.63564 -0.45117,-20.64063 l 0.006,-20.103511 h 4.10156 4.099611 l -0.11719,-4 c -0.0644,-2.199993 -0.13786,-4.026634 -0.16406,-4.058594 -0.0767,-0.09354 -6.212831,-0.138319 -12.353521,-0.136719 z m -26.52148,0.695313 c 1.34924,0.009 2.67844,0.180003 3.66016,0.509765 3.33904,1.121608 5.71645,3.627471 6.47851,6.830078 0.21712,0.912443 0.36641,7.8303 0.40821,18.884768 0.0639,16.915059 0.0462,17.491479 -0.58399,18.916009 -1.32664,2.9991 -3.87074,4.74492 -7.86133,5.39258 -2.6679,0.43299 -3.30771,0.40144 -5.21484,-0.25781 -1.75752,-0.60752 -3.73667,-2.025 -5.119142,-3.66797 -0.475253,-0.56481 -1.022458,-1.02734 -1.216797,-1.02734 -1.005141,0 -1.160652,-3.07026 -1.076172,-21.121099 l 0.08203,-17.919919 0.876953,-1.488281 c 1.126246,-1.915844 3.725588,-3.980747 5.783208,-4.591797 1.06439,-0.316089 2.43396,-0.467984 3.7832,-0.458984 z m -53.396484,0.171875 c 6.163215,-0.08707 10.527826,3.265325 11.414062,8.767578 0.36556,2.269594 0.456928,7.325763 0.146484,8.134766 -0.157008,0.409169 -0.741655,0.505859 -3.046874,0.505859 h -2.851563 l 0.08594,-4.740225 0.08594,-4.738281 -0.921875,-1.214843 c -0.507197,-0.66812 -1.427071,-1.42626 -2.042969,-1.683594 -1.560906,-0.652191 -3.937784,-0.06517 -5.4882807,1.355468 l -1.146484,1.050782 -0.09375,19.226566 c -0.08564,17.495939 -0.04594,19.329989 0.445312,20.365229 0.685602,1.44481 2.5053047,2.69922 3.9179687,2.69922 1.553262,0 3.507558,-1.21929 4.402344,-2.74609 0.725687,-1.2383 0.767578,-1.59942 0.767578,-6.48243 v -5.17187 h 1.880859 c 1.033996,0 2.32891,-0.0912 2.878906,-0.20117 l 1,-0.19922 v 5.17578 c 0,4.0827 -0.106674,5.38223 -0.503906,6.15039 -0.276979,0.53562 -0.419336,1.05528 -0.318359,1.15625 0.100973,0.10098 0.183594,-0.007 0.183594,-0.24219 0,-0.2347 0.07643,-0.3493 0.171874,-0.2539 0.329474,0.32948 -1.384698,3.69636 -2.52539,4.95898 -1.091479,1.20814 -2.175985,1.81027 -4.710938,2.61328 -1.269063,0.40201 -2.287506,0.40949 -4.519531,0.0332 -2.0856647,-0.35161 -4.5223807,-1.75679 -6.0546867,-3.49024 -0.711019,-0.80435 -1.712341,-1.9429 -2.226563,-2.53125 -0.514218,-0.58836 -0.957685,-1.45228 -0.984375,-1.91992 -0.02669,-0.46765 -0.01722,-9.2022 0.02148,-19.41016 0.06733,-17.758097 0.09995,-18.64953 0.730469,-20.605465 0.835495,-2.591809 2.286449,-4.214422 4.9375,-5.519532 1.693402,-0.833657 2.456787,-1.016008 4.3652347,-1.042968 z m 146.748045,0.03516 0.21875,1.246094 c 0.12087,0.685446 0.69853,3.190414 1.28321,5.566406 0.58469,2.375992 1.28884,5.432428 1.56445,6.791016 0.27561,1.358585 0.85204,3.878205 1.28125,5.5996 0.4292,1.7214 1.00143,4.2093 1.27148,5.5293 0.778,3.802829 2.09635,8.756489 2.41407,9.074219 0.15988,0.1598 0.53465,0.19693 0.83398,0.082 0.49518,-0.19003 0.52026,-0.6331 0.2793,-4.92187 -0.14567,-2.592509 -0.27321,-10.012009 -0.28321,-16.486326 -0.0154,-10.101953 -0.0862,-11.813696 -0.49804,-12.074219 -0.31923,-0.201896 0.74276,-0.305294 3.16992,-0.308594 l 3.65039,-0.0059 -0.60938,0.675781 c -0.58875,0.651895 -0.60945,1.535849 -0.59375,26.160149 0.0125,19.589949 0.1065,25.651629 0.41016,26.205079 0.50242,0.91589 0.11809,0.91653 -1.86719,0.004 -1.77887,-0.81736 -4.408,-1.53163 -4.91797,-1.33594 -0.44345,0.17017 -1.76483,-4.34351 -2.77148,-9.46875 -0.36297,-1.848 -1.14923,-5.52019 -1.74805,-8.16015 -0.59882,-2.64 -1.54952,-7.596579 -2.11133,-11.015629 -1.24985,-7.606559 -2.06291,-10.37954 -3.08984,-10.525388 -0.396,-0.05624 -0.73305,0.01592 -0.74805,0.160157 -0.015,0.144237 -0.065,8.651391 -0.11132,18.90625 -0.063,13.96776 0.0126,18.83105 0.29882,19.38281 0.37946,0.73142 0.37079,0.7339 -1.08984,0.48633 -0.80896,-0.13712 -2.28837,-0.34608 -3.28906,-0.46485 -1.58104,-0.18765 -1.76055,-0.27655 -1.36133,-0.67578 0.39104,-0.39108 0.46094,-4.03928 0.46094,-24.525389 0,-21.263551 -0.0598,-24.148956 -0.5,-24.77734 -0.49448,-0.705937 -0.48517,-0.710938 1.07226,-0.710938 0.86294,0 2.87632,-0.09163 4.47461,-0.205078 z m -31.48437,0.0918 h 3.38672 l -0.4961,0.958984 c -0.43451,0.840244 -0.49341,3.725107 -0.47851,23.281252 0.0156,20.432709 0.12502,23.949659 0.77539,25.001949 0.26393,0.42666 -0.91741,0.42475 -3.01758,-0.008 -0.792,-0.16308 -2.03061,-0.25548 -2.75391,-0.20508 -1.24064,0.0864 -1.29405,0.0549 -0.92578,-0.54882 0.44507,-0.7298 0.49436,-20.81621 0.0527,-21.51954 -0.38979,-0.620719 -8.32261,-0.559569 -8.84375,0.0684 -0.55032,0.6631 0.008,20.69914 0.5957,21.40821 0.35508,0.42784 -0.0502,0.49648 -3.43945,0.58398 -3.39587,0.0877 -3.79229,0.0435 -3.41407,-0.38086 0.64667,-0.72548 0.8491,-47.019738 0.20899,-47.791016 -0.40421,-0.487046 -0.14196,-0.529297 3.28125,-0.529297 h 3.71875 l -0.69141,0.691407 c -0.68651,0.686505 -0.68808,0.745317 -0.48828,10.574218 0.11052,5.436629 0.2986,10.043189 0.41797,10.236329 0.31554,0.51055 8.08711,0.11016 8.64258,-0.44531 0.32556,-0.32556 0.42692,-2.673028 0.45312,-10.570315 0.0186,-5.583116 -0.0586,-10.298349 -0.16992,-10.478516 -0.13322,-0.215552 0.95675,-0.328125 3.18555,-0.328125 z m 62.44922,0.04883 c 3.94064,-0.166373 5.83383,0.511378 8.30664,2.974609 2.60461,2.594554 3.02502,3.844799 3.24804,9.671875 l 0.17383,4.53711 -3.0039,-0.05664 -3.00391,-0.05469 V 85.74853 c 0,-4.144059 -0.0554,-4.570307 -0.75,-5.6875 -1.29866,-2.088801 -3.51673,-2.735259 -5.91211,-1.722656 -0.67287,0.284442 -1.48666,0.841179 -1.80664,1.236328 -1.23926,1.530417 -1.3246,3.233932 -1.11914,22.048828 0.22357,20.47305 0.0741,19.41307 2.90039,20.78125 2.28184,1.10462 4.34859,0.50864 6.02734,-1.73828 0.61003,-0.81649 0.67497,-1.47954 0.86133,-8.78125 0.11088,-4.34344 0.0797,-8.0291 -0.0703,-8.19141 -0.16614,-0.17989 -0.99455,-0.16199 -2.12109,0.0449 -1.01688,0.18681 -1.86833,0.31942 -1.89063,0.29492 -0.0223,-0.0245 -0.10765,-1.25044 -0.18945,-2.72461 l -0.14844,-2.681639 1.91602,0.20117 c 1.05397,0.11012 3.30004,0.19932 4.99023,0.19922 h 3.07227 l -0.0801,10.640619 c -0.0937,12.34534 -0.12291,12.50613 -2.74414,14.8086 -3.30196,2.90035 -5.55801,3.62674 -9.4961,3.05859 -2.97851,-0.42971 -6.93371,-3.40569 -8.3125,-6.25391 -0.62578,-1.29265 -0.64648,-1.93035 -0.64648,-20.41796 0,-12.524796 0.1195,-19.641258 0.34765,-20.705084 0.88178,-4.111582 4.50225,-6.793012 9.45118,-7.001953 z m -151.69727,0.06055 -0.730469,0.730469 -0.730469,0.732421 v 22.714846 c 0,12.493529 0.118295,22.788999 0.263672,22.878899 0.279271,0.1726 10.474576,-0.63693 11.976563,-0.95117 l 0.878906,-0.18555 v 2.38477 2.38476 l -2,0.21094 c -4.012959,0.42541 -13.144923,1.75082 -16.427735,2.38477 l -1.30664,0.2539 0.410156,-0.82421 c 0.532069,-1.06894 0.717199,-51.627195 0.191406,-52.263673 -0.260818,-0.31573 0.490804,-0.405722 3.572266,-0.425782 z m 105.65234,0.01758 c 0.0836,0.08362 -0.0568,0.448342 -0.31054,0.810547 -0.39481,0.563588 -0.44006,4.039825 -0.31641,24.101559 0.1394,22.619049 0.16727,23.478929 0.77539,24.482419 0.6002,0.99035 0.60102,1.03805 0.043,1.00195 -0.32236,-0.0208 -1.01692,-0.14884 -1.54492,-0.2832 -0.528,-0.13435 -2.00705,-0.26045 -3.28711,-0.28125 l -2.32813,-0.0391 0.4961,-0.75586 c 0.43795,-0.66842 0.48405,-3.48447 0.40625,-24.271479 -0.0683,-18.237426 -0.178,-23.622358 -0.48828,-23.996095 -0.35042,-0.422083 0.0232,-0.508597 3.00195,-0.701172 1.87037,-0.12092 3.46913,-0.151979 3.55273,-0.06836 z m -62.474601,0.0332 5.91992,0.01367 c 3.25596,0.0072 8.16886,0.04324 10.91601,0.08008 l 4.994141,0.06641 0.17578,2.800782 c 0.0968,1.539992 0.14753,2.829637 0.11133,2.867187 -0.0362,0.03755 -0.76732,-0.140896 -1.62304,-0.398437 -0.85576,-0.257546 -2.684431,-0.46875 -4.064461,-0.46875 h -2.50976 v 21.208994 c 0,18.677619 0.0593,21.293579 0.49804,21.919909 l 0.49805,0.71093 h -3.19141 c -1.75554,0 -3.45495,0.0978 -3.77734,0.21875 -0.49088,0.18416 -0.52312,0.14226 -0.19531,-0.26171 0.29948,-0.36906 0.39756,-5.55304 0.41406,-22.060549 l 0.0215,-21.576168 -2.83399,0.04102 c -1.97115,0.02861 -3.15313,0.206655 -3.88281,0.583985 -0.57695,0.298353 -1.09404,0.49448 -1.14844,0.4375 -0.0544,-0.05698 -0.14974,-1.470586 -0.21094,-3.142578 z M 143.23824,76.3833 c 0.0166,0.01293 0.0356,0.06701 0.0547,0.166015 0.0763,0.396 0.0763,1.043457 0,1.439453 -0.0763,0.396 -0.13867,0.07129 -0.13867,-0.720703 0,-0.593996 0.0343,-0.923575 0.084,-0.884765 z m -77.236331,0.792968 c -1.89368,-0.161706 -4.52996,0.840849 -5.50781,2.390625 -0.66306,1.050866 -0.66896,1.239253 -0.53516,18.341798 0.0842,10.767029 0.25814,17.581609 0.46289,18.080079 0.47881,1.16572 1.94951,2.52211 3.0918,2.85351 1.36302,0.39574 1.61858,0.39593 2.65234,0.006 1.30682,-0.4927 2.94147,-2.18907 3.27539,-3.39844 0.17465,-0.63253 0.16205,-3.35804 -0.0332,-6.89257 -0.17759,-3.21625 -0.26029,-10.924859 -0.1836,-17.128909 0.15162,-12.266951 0.17869,-12.038934 -1.66601,-13.679687 -0.37732,-0.335602 -0.92542,-0.518366 -1.55664,-0.572266 z m -1.04688,0.732422 c 1.27314,0 0.93869,0.563001 -0.42578,0.716797 -0.77241,0.08706 -1.88458,0.495652 -2.47265,0.908203 -0.74938,0.525716 -0.93274,0.579796 -0.61133,0.179688 0.58308,-0.725854 2.68074,-1.804688 3.50976,-1.804688 z m 1.41602,0.109375 c 0.24499,-0.244983 1.41411,0.741726 1.85547,1.566406 0.39921,0.745945 0.10782,0.723047 -0.42188,-0.0332 -0.42132,-0.601519 -0.56817,-0.6785 -1.29882,-0.6875 -0.26661,-0.0033 -0.23993,-0.107654 0.0801,-0.314453 0.39532,-0.255416 0.40058,-0.312406 0.0274,-0.316406 -0.24919,-0.0027 -0.35844,-0.09859 -0.24219,-0.214844 z m 123.974611,0.533203 c 0.22,-9.82e-4 0.40039,0.14041 0.40039,0.316406 0,0.176 -0.42291,0.320313 -0.93945,0.320313 -0.51654,0 -1.31583,0.144846 -1.77735,0.320313 -0.51867,0.197198 -0.76774,0.201592 -0.65039,0.01172 0.18935,-0.306364 2.20788,-0.96535 2.9668,-0.96875 z M 11.716751,78.68408 c 0.253362,-0.0033 0.455324,0.04321 0.5625,0.15039 0.259386,0.259386 0.163199,0.353516 -0.359374,0.353516 -0.392852,0 -1.231354,0.216433 -1.863282,0.480469 -0.9822417,0.410415 -1.0926637,0.412036 -0.7636717,0.01563 0.449044,-0.541065 1.6637477,-0.99 2.4238277,-1 z m 179.447269,0.21875 c 0.18927,-0.103947 0.64012,0.107156 1.22656,0.595703 0.82014,0.683249 0.54193,0.782144 -0.60352,0.214844 -0.39596,-0.196125 -0.7207,-0.467297 -0.7207,-0.601563 0,-0.105996 0.0346,-0.174334 0.0977,-0.208984 z m -94.412111,0.06445 c 0.31135,-0.08113 0.74429,-0.07594 0.96094,0.01172 0.21665,0.08765 -0.0384,0.152984 -0.56641,0.146484 -0.528,-0.0065 -0.70588,-0.07707 -0.39453,-0.158204 z m -9.10547,0.002 c 0.231,-0.09244 0.50695,-0.08094 0.61328,0.02539 0.10633,0.106338 -0.0826,0.181868 -0.41992,0.167968 -0.37278,-0.01535 -0.44864,-0.09121 -0.19336,-0.193358 z m -73.421875,0.05273 c 0.208944,0.06777 0.442572,0.260935 0.791016,0.609375 0.8661,0.866104 0.631731,1.13527 -0.34375,0.394532 -0.305263,-0.231805 -0.449577,-0.531507 -0.320313,-0.667969 0.129264,-0.136456 -0.124453,-0.15147 -0.564453,-0.0332 -0.703017,0.188966 -0.729212,0.170274 -0.205078,-0.15625 0.248507,-0.154785 0.433634,-0.214255 0.642578,-0.146485 z m 51.001955,0.673829 c 0.36316,0.02848 0.71112,0.122644 1.02539,0.285156 0.52566,0.271826 1.13008,0.816762 1.34375,1.210937 0.2835,0.523015 0.42478,4.823597 0.52148,15.916019 0.0729,8.359959 0.14105,15.980039 0.15235,16.931639 0.019,1.59343 -0.0714,1.81356 -1.14649,2.79883 -1.3021,1.19325 -2.35161,1.34489 -3.93359,0.56445 -1.85006,-0.9127 -1.83217,-0.73997 -1.97656,-18.802739 l -0.13282,-16.587886 0.89844,-0.9375 c 0.92554,-0.96605 2.15855,-1.464366 3.24805,-1.378906 z M 8.5233923,84.186073 c 0.01593,0.01581 0.0344,0.08213 0.05273,0.203125 0.07332,0.483996 0.07332,1.275769 0,1.759765 -0.07332,0.484 -0.134766,0.08714 -0.134766,-0.880859 0,-0.725996 0.03423,-1.129471 0.08203,-1.082031 z M 165.5566,100.10986 c 0.0336,-0.0336 0.0778,0.011 0.1289,0.13867 0.0924,0.231 0.081,0.50694 -0.0254,0.61328 -0.10637,0.10633 -0.18187,-0.0826 -0.16797,-0.41992 0.008,-0.18639 0.0309,-0.29843 0.0645,-0.33203 z M 55.777298,119.5083 c 0.06334,0 0.751998,0.64745 1.529301,1.43945 1.46927,1.49712 1.59098,1.78354 0.4082,0.95508 -0.630778,-0.44181 -2.210778,-2.39453 -1.937501,-2.39453 z m -53.5117177,2.75586 c 0,-0.176 0.418249,0.33724 0.927734,1.14062 0.870729,1.373 2.779914,3.1317 3.423828,3.1543 0.159387,0.006 0.568521,0.22207 0.910156,0.48047 0.697177,0.52732 0.39501,0.5793 -0.734375,0.12695 -1.402942,-0.56192 -2.679826,-1.66932 -3.605468,-3.12891 -0.507074,-0.79953 -0.921875,-1.59743 -0.921875,-1.77343 z m 171.3339797,0.69336 c -0.025,0.1297 -0.04,0.43109 -0.041,0.87109 -0.002,0.87977 0.0569,1.27835 0.13281,0.88477 0.0762,-0.39358 0.0778,-1.11319 0.004,-1.59961 -0.0368,-0.24325 -0.0707,-0.28596 -0.0957,-0.15625 z m -111.873041,0.8125 c 0.231,-0.0924 0.50695,-0.081 0.61328,0.0254 0.10633,0.10637 -0.0826,0.18187 -0.41992,0.16797 -0.37278,-0.0154 -0.44864,-0.0912 -0.19336,-0.19336 z m 5.11914,0 c 0.231,-0.0924 0.50695,-0.081 0.61328,0.0254 0.10633,0.10637 -0.0826,0.18187 -0.41992,0.16797 -0.37278,-0.0154 -0.44864,-0.0912 -0.19336,-0.19336 z m -38.521486,7.89257 c -0.581829,-0.0591 -1.248759,0.13873 -2.15039,1.03907 1.419987,4.42095 7.647038,13.47502 11.65625,17.33007 2.172756,2.08923 9.084055,8.05862 14.072265,11.37305 3.63484,2.4152 10.212241,5.53872 13.562501,7.38477 4.78435,2.63625 16.26571,4.9713 17.71484,5.21094 9.49791,1.4686 17.361581,1.5917 24.617191,1.5664 7.60309,-0.0265 14.54237,-1.04765 22.85742,-3.66601 8.68494,-2.73488 19.49331,-8.25405 25.99805,-13.87696 5.72231,-4.94652 11.02994,-10.90395 13.78516,-15.4707 3.94411,-6.53736 4.42081,-8.10433 2.5664,-8.4375 -1.44425,-0.25948 -1.86879,0.0589 -2.92187,2.18945 -1.21266,2.45335 -4.17345,6.84649 -6.75782,10.02539 -4.41378,5.42926 -10.53599,10.6844 -16.89257,14.5 -6.08993,3.65557 -15.42759,7.534 -22.74024,9.44727 -9.1856,2.62116 -14.47269,2.19963 -21.72461,2.4082 -6.490661,0.18668 -13.233031,-0.99721 -19.996091,-1.98437 -3.72648,-0.54393 -10.69073,-3.22323 -15.01758,-5.14063 -8.40962,-3.72664 -14.167628,-7.41632 -21.521484,-13.79101 -3.171145,-2.74891 -5.363933,-4.90527 -6.255859,-6.15235 -0.755363,-1.05616 -8.560578,-12.55168 -9.212891,-13.45703 -0.560449,-0.1232 -1.056839,-0.43895 -1.638672,-0.49805 z m 110.582037,0.95704 c -2.63343,0 -5.26602,0.13319 -5.53516,0.40234 -0.55786,0.55782 -0.5434,14.36804 0.0156,14.93164 0.62214,0.62724 10.39431,0.3782 10.80665,-0.27539 0.16652,-0.264 0.30559,-1.08044 0.30859,-1.81445 0.004,-1.22179 -0.0756,-1.35151 -0.94727,-1.54297 -0.5237,-0.11521 -1.10243,-0.11666 -1.28515,-0.004 -0.18272,0.11288 -1.48114,0.10502 -2.88672,-0.0176 -2.41283,-0.21047 -2.55664,-0.26612 -2.55664,-0.98242 0,-0.73441 0.0806,-0.75781 2.5332,-0.75781 2.81019,0 2.95175,-0.30864 3.52344,-0.64063 0.29889,-0.17357 0.47533,-1.19744 0.49023,-1.24804 0.11685,-0.39716 -0.28388,-1.43268 -0.27148,-1.39258 -0.35314,-0.4652 -0.94722,-0.5586 -3.50977,-0.5586 h -3.08593 v -1.15234 -1.15039 l 3.38671,0.23047 c 4.24952,0.28964 4.9336,0.0248 4.9336,-1.91797 0,-0.72706 -0.17164,-1.49583 -0.38281,-1.70703 -0.26914,-0.26915 -2.90372,-0.40234 -5.53711,-0.40234 z m -37.32422,0.0195 c -1.866701,-0.001 -2.311071,0.12497 -3.669931,1.03906 -0.85028,0.572 -1.98205,1.66457 -2.51562,2.42773 -0.9115,1.30362 -0.9707,1.56856 -0.9707,4.36914 0,2.82694 0.0532,3.05149 1,4.3711 2.30624,3.21438 6.634291,4.2413 9.902341,2.34765 1.32815,-0.76955 2.71345,-2.47775 3.32031,-4.0957 0.92508,-2.46634 -0.0562,-6.73014 -1.93945,-8.42578 -1.72587,-1.55393 -2.93037,-2.0322 -5.12695,-2.0332 z m 16.90039,0.0156 c -1.5981,-0.008 -3.08638,0.0877 -3.41406,0.29492 -0.64865,0.41009 -0.4461,14.77407 0.17773,15.43946 0.51993,0.55454 2.20226,0.5701 2.7207,-0.0547 0.23692,-0.28548 0.63741,-1.64895 0.57031,-2.72656 -0.1087,-1.74713 -0.0977,-1.76996 0.77344,-1.76953 0.95585,4.7e-4 1.25815,0.2888 2.86133,2.7207 0.84176,1.27689 1.28,1.63895 2.17383,1.79687 0.616,0.10883 1.21637,0.21704 1.33398,0.24024 0.1176,0.0232 0.44231,-0.0455 0.72071,-0.15235 0.75326,-0.28906 0.61696,-1.1566 -0.4043,-2.5664 -1.75951,-2.42894 -1.79541,-2.59673 -0.72656,-3.4961 1.21389,-1.02138 1.75261,-2.65885 1.55468,-4.71875 -0.13582,-1.41352 -0.33833,-1.79202 -1.58789,-2.97265 -0.78821,-0.74472 -1.99455,-1.5104 -2.68164,-1.70117 -0.76644,-0.21281 -2.47417,-0.32599 -4.07226,-0.33399 z m -51.417971,0.0176 c -2.04531,0.14823 -3.81642,1.29768 -4.78516,3.29883 -0.76258,1.57527 -0.71284,2.57227 0.19336,3.97265 0.49546,0.76567 4.0109,2.61479 4.97266,2.61524 0.29654,1.4e-4 0.91451,0.14208 1.37305,0.31641 0.72953,0.27735 0.78754,0.40235 0.46874,0.99804 -0.54114,1.01119 -3.17653,0.71565 -4.44335,-0.49804 -0.80383,-0.77011 -1.00112,-0.82776 -1.66407,-0.48438 -1.1912,0.61701 -1.87304,1.31949 -1.87304,1.93164 0,0.80713 2.57706,2.50451 3.98632,3.23633 0.26624,0.13826 0.91449,0.55821 1.59766,0.63281 1.13753,0.12427 2.05684,0.0127 3.37695,-0.59375 2.98488,-1.37125 4.21442,-4.22659 3.07618,-6.42773 -0.71756,-1.38763 -1.54694,-1.88453 -4.75782,-2.84961 -2.1156,-0.63589 -2.79883,-0.97655 -2.79883,-1.39453 1e-5,-1.05941 2.39242,-1.26432 3.60743,-0.3086 1.1168,0.87848 1.63423,0.80722 2.61914,-0.36328 1.22243,-1.45278 0.97569,-2.19308 -1.08399,-3.23633 -1.31124,-0.66415 -2.63804,-0.9346 -3.86523,-0.8457 z m 11.04297,0.12695 -0.0996,1.72852 c -0.11863,2.08429 0.083,2.25862 2.61523,2.26562 l 1.87696,0.006 -0.23438,5.47657 c -0.19211,4.47954 -0.15529,5.52884 0.20313,5.75585 0.50621,0.32068 2.54753,0.3771 3.29101,0.0918 0.43466,-0.16679 0.50586,-0.97802 0.50586,-5.74414 v -5.55089 l 2,-0.0957 2,-0.0937 v -1.89649 -1.89453 l -6.08008,-0.0254 z m -49.496096,0.97461 c 0.217609,0.0709 0.442427,0.28692 0.460937,0.0117 3.082398,5.17625 10.175346,14.47255 16.111328,19.42578 10.371119,8.65412 18.275841,13.17409 30.095701,16.78516 2.86415,0.87502 5.81267,1.67826 6.55274,1.78711 1.02701,0.27507 14.27905,1.92639 23.683591,1.91211 2.30608,-0.40018 7.75334,-0.347 8.8125,-0.46289 6.28135,-0.68729 13.23312,-2.46815 18.92969,-4.66211 1.91453,-0.73736 6.15208,-2.28595 8.80469,-3.75977 13.56897,-7.53904 22.26016,-15.78075 28.48828,-27.01562 1.05213,-1.89793 1.65255,-2.74561 2.04882,-2.81641 0.13211,-0.0236 0.2416,0.0393 0.3379,0.17773 0.20142,0.28956 -2.58684,5.58616 -4.25977,8.0918 -3.30708,4.95319 -6.89458,8.77768 -12.95508,13.9375 -9.43501,8.03288 -22.87277,13.71201 -35.7207,16.27344 -3.49843,0.69747 -12.30511,1.42014 -14.82031,0.98828 -1.48278,0.0951 -3.6826,0.12538 -8.060551,-0.10156 -4.64199,-0.24062 -12.7094,-1.26903 -12.97852,-1.26953 -0.81779,-0.002 -6.83467,-1.41202 -10.30859,-2.48633 -7.49283,-2.31715 -12.53224,-4.60901 -19.201172,-8.73047 -5.626809,-3.47743 -12.623187,-8.90113 -15.121094,-11.77539 -4.198712,-4.76837 -8.016843,-10.14203 -11.320312,-15.45703 -0.0078,-0.85052 0.202313,-0.92452 0.419922,-0.85352 z m 72.988277,0.0606 c 1.6783,-0.0158 2.16902,0.11905 3.29493,0.91211 1.83031,1.28923 2.8125,3.25587 2.8125,5.63281 0,1.03397 -0.19455,2.34381 -0.43164,2.91016 -0.5573,1.3312 -2.88475,3.42759 -3.81055,3.43359 -0.3955,0.002 -1.00542,0.0622 -1.35742,0.13281 -0.352,0.0706 -1.2618,-0.0143 -2.01953,-0.1875 -1.864531,-0.42631 -4.032911,-2.51808 -4.527351,-4.36718 -0.74056,-2.76954 0.39135,-5.86573 2.75,-7.52344 1.09679,-0.77086 1.64853,-0.92796 3.289061,-0.94336 z m -33.937501,0.0644 c 1.0183,-0.0101 2.04793,0.21786 2.80469,0.68555 0.88164,0.54489 1.01963,0.7698 0.76367,1.24805 -0.30137,0.56309 -0.35435,0.56165 -1.50586,-0.0254 -1.52803,-0.77912 -2.8687,-0.77078 -4.17773,0.0273 -0.80027,0.48793 -1.04101,0.85515 -1.04101,1.5918 -1e-5,1.21768 0.80359,1.75957 3.88867,2.62109 3.73858,1.04401 4.88359,2.65019 3.625,5.08398 -0.58432,1.12996 -2.60727,2.23229 -4.06055,2.21289 -0.57902,-0.008 -1.57279,-0.20036 -2.20898,-0.42773 -0.63623,-0.22736 -1.61597,-0.7406 -2.17774,-1.14062 -0.97777,-0.69623 -0.99937,-0.75374 -0.4707,-1.33789 0.54169,-0.59874 0.56559,-0.59757 1.21875,-0.004 2.44801,2.22401 6.26562,1.5608 6.26562,-1.08789 0,-1.25007 -0.31759,-1.47863 -2.8789,-2.06836 -2.92159,-0.67268 -4.80078,-1.96038 -4.80078,-3.29102 0,-1.06779 0.92753,-2.60342 2.02148,-3.34765 0.70894,-0.4823 1.71609,-0.73014 2.73437,-0.74024 z m 11.24415,0.004 5.20117,0.0879 c 5.08485,0.086 5.20073,0.10366 5.29883,0.79297 0.0939,0.65983 -0.0393,0.71178 -2.08008,0.80078 l -2.17969,0.0937 0.11914,5.67969 0.12109,5.68164 h -0.99218 -0.99414 l -0.0859,-5.68164 -0.0879,-5.67969 -2.16016,-0.0937 c -2.06035,-0.0902 -2.16015,-0.13195 -2.16015,-0.88867 z m 36.800781,0.0156 h 3.3125 c 3.60535,0 4.65646,0.3965 6.05664,2.28711 1.14729,1.5492 0.49514,5.06304 -1.0293,5.54688 -1.3535,0.42959 -1.05716,2.13546 0.65625,4.37305 0.98786,1.29007 0.13926,1.75469 -0.37695,1.02343 -0.18067,-0.16412 -1.19099,-0.79559 -1.57617,-1.91211 -1.3524,-2.23142 -2.11735,-2.74515 -3.89649,-2.61718 l -1.38672,0.0996 -0.0957,2.16016 c -0.09,2.05424 0.28356,2.87312 -0.44141,2.69336 l -0.98047,-0.24219 -0.24218,-6.85156 z m 18.55859,0 h 4.48047 4.48047 v 0.80664 0.80664 l -3.91992,-0.0859 -3.91993,-0.0879 -0.0957,1.67187 c -0.15976,2.76823 0.0855,2.96875 3.62695,2.96875 2.86363,0 3.0293,0.0364 3.0293,0.67188 0,0.63711 -0.14656,0.66821 -2.80078,0.59961 -4.0131,-0.10375 -3.71552,-0.25274 -3.50781,1.75976 0.0994,0.96347 0.27124,1.89955 0.38281,2.08008 0.11962,0.19354 1.71477,0.32813 3.88672,0.32813 3.63678,0 3.68105,0.01 3.58008,0.7207 -0.0999,0.70334 -0.2077,0.72189 -4.66211,0.80859 l -4.56055,0.0899 v -6.57032 z m -32.8457,1.43946 c -1.649351,0 -1.835871,0.0828 -2.990241,1.32031 -2.22852,2.38913 -1.96308,5.8669 0.58008,7.57812 2.068251,1.39169 2.603741,1.4468 4.529301,0.46289 1.99025,-1.01693 2.70508,-2.12073 2.70508,-4.18164 0,-3.16605 -1.87535,-5.17968 -4.82422,-5.17968 z m 15.5664,0.0976 v 2.53711 c 0,1.39618 0.16519,2.59302 0.21289,2.75196 0.12696,0.4235 4.91315,0.59275 5.43946,0.10546 0.57131,1.31111 3.22047,-3.38675 0.93554,-4.27343 -0.72343,-0.84131 -0.95491,-0.90497 -3.67968,-1.00977 z m -15.49023,1.02344 c 2.38104,0 4.29081,3.1172 3.37109,5.50195 -0.56258,1.45874 -2.8074,1.875 -4.36132,1.875 -1.442241,0 -2.186101,-1.86522 -2.212901,-3.37695 -0.0141,-0.79287 0.0767,-1.44147 0.20313,-1.44141 0.1265,6e-5 0.1546,-0.19534 0.0625,-0.43554 -0.27248,-0.71005 1.682891,-2.12305 2.937501,-2.12305 z m 18.39062,0.32031 c 2.43259,0 3.17969,0.37329 3.17969,1.5918 0,0.51142 -0.13156,1.01153 -0.29297,1.11133 -0.43398,0.26821 -2.96133,0.46424 -3.7539,0.29101 -0.69079,-0.151 -1.06036,-0.93843 -1.06836,-2.27539 -0.004,-0.66805 0.1347,-0.71875 1.93554,-0.71875 z" />
</svg>
