<?xml version="1.0" encoding="UTF-8" standalone="no"?>
<!-- Created with Inkscape (http://www.inkscape.org/) -->

<svg
   version="1.1"
   id="svg1"
   width="285.12"
   height="204.16"
   viewBox="0 0 285.12 204.16"
   xmlns="http://www.w3.org/2000/svg"
   xmlns:svg="http://www.w3.org/2000/svg">
  <defs
     id="defs1">
    <linearGradient
       id="swatch23">
      <stop
         style="stop-color:#000000;stop-opacity:1;"
         offset="0"
         id="stop23" />
    </linearGradient>
  </defs>
  <path
     d="M 0,0 V 204.16016 H 142.56055 285.11914 V 102.08008 0 H 142.56055 Z m 143.03906,8.171875 c 2.00736,-0.010241 2.70462,0.1377638 4.26172,0.9023438 3.24016,1.5910162 5.24523,5.2830092 4.95508,9.1289062 -0.1967,2.607375 -1.01269,4.048111 -3.86914,6.835937 -2.13158,2.080358 -2.51702,2.611332 -2.38672,3.292969 0.0854,0.446905 -0.0284,1.346858 -0.25391,2 l -0.41015,1.1875 1.47461,0.222656 c 2.15645,0.325263 5.92992,2.299232 7.17187,3.751954 0.58151,0.680191 1.74961,2.402387 2.5957,3.826171 2.78986,4.694506 5.19523,6.81046 12.03516,10.591797 4.35024,2.404948 16.61983,8.500598 18.00586,8.945313 0.64901,0.208236 1.5567,0.674162 2.01563,1.035156 0.7479,0.588327 0.81195,0.802735 0.62304,2.0625 -0.17381,1.158985 -0.12214,1.404297 0.29688,1.404297 0.27946,0 0.74141,-0.4489 1.02539,-0.998047 0.48053,-0.929239 0.61133,-0.987288 1.88476,-0.84375 1.66838,0.18805 3.95308,1.294603 5.61914,2.720703 1.3433,1.149809 3.51563,5.093554 3.51563,6.382813 0,0.435772 0.14058,0.689202 0.32031,0.578125 0.48833,-0.301807 0.38141,1.035277 -0.16797,2.097656 -0.26852,0.519257 -0.68404,0.943359 -0.92383,0.943359 -0.23977,0 -1.64159,-0.349341 -3.11328,-0.77539 -2.51443,-0.727935 -2.77961,-0.747538 -4.42382,-0.320313 -2.34606,0.609583 -27.18502,0.674347 -27.78711,0.07227 -0.51577,-0.515802 -0.48567,-1.914547 0.0566,-2.65625 0.60445,-0.826644 4.93059,-1.046268 16.03906,-0.816406 4.75197,0.09834 8.67204,0.170326 8.71094,0.160156 0.0389,-0.01017 -2.69714,-1.411979 -6.08008,-3.115235 -3.38295,-1.703254 -8.45356,-4.410797 -11.26953,-6.015625 -4.59298,-2.617519 -9.93161,-5.506151 -19.04102,-10.304687 -1.672,-0.880751 -4.88646,-2.588439 -7.14258,-3.794922 -2.2561,-1.206483 -4.17447,-2.193359 -4.26367,-2.193359 -0.0892,0 -1.12216,0.556372 -2.29687,1.236328 -1.17471,0.679956 -4.00888,2.210809 -6.29688,3.402344 -8.26808,4.305826 -10.25259,5.370832 -11.03906,5.919921 -0.44,0.307195 -2.55563,1.43377 -4.70117,2.503907 -2.14554,1.070138 -5.8177,3.01064 -8.16016,4.3125 -2.34246,1.301856 -5.02491,2.744364 -5.92969,3.261718 l -2.38086,1.361375 c -0.27121,0.219493 -1.802811,1.011264 -3.404293,1.759765 l -2.912109,1.361328 h 12.488282 c 11.99269,0 12.5065,0.0246 12.94336,0.621094 0.56166,0.766934 0.59964,2.929838 0.0566,3.28125 -0.5474,0.354281 -21.041131,0.434321 -26.931641,0.105469 -3.767113,-0.210309 -5.080061,-0.172455 -6.240235,0.179687 -3.128779,0.949669 -4.042402,0.447024 -3.798828,-2.08789 0.439162,-4.570434 5.874942,-10.425633 9.480469,-10.212891 0.894355,0.05277 1.216163,0.197445 1.101562,0.496094 -0.197854,0.515601 0.789294,2.102711 1.164063,1.871094 0.147959,-0.09144 0.362452,-0.787869 0.476562,-1.548829 0.260411,-1.736541 1.662383,-2.901077 5.787108,-4.810546 1.584,-0.733285 6.40873,-3.111095 10.72071,-5.283204 10.99874,-5.540487 13.35807,-7.29284 16.38476,-12.162109 3.27352,-5.266367 5.53936,-6.989792 10.46875,-7.960937 1.78734,-0.352126 2.56634,-0.638625 2.46289,-0.908204 -0.36576,-0.953081 -0.57884,-4.962673 -0.2832,-5.33789 0.17434,-0.221282 0.40966,-0.785052 0.52148,-1.253906 0.11182,-0.468856 0.7984,-1.324607 1.52539,-1.900391 2.0396,-1.61539 3.15921,-3.350525 3.15821,-4.894531 -0.002,-2.274551 -1.86698,-4.354863 -3.90235,-4.351563 -1.77594,0.0029 -4.0779,2.309333 -4.72265,4.732422 -0.43818,1.646739 -1.24877,2.063137 -3.45704,1.775391 -2.58345,-0.336636 -2.7654,-0.828545 -1.64648,-4.451172 0.55663,-1.802141 0.97689,-2.470813 2.48047,-3.953125 2.55466,-2.5185164 4.39484,-3.357674 7.4082,-3.373047 z m -0.0117,1.2753906 c -2.1962,-0.00675 -2.57885,0.093669 -4.27148,1.1132814 -2.37395,1.430022 -3.48109,2.697078 -4.32227,4.945312 -0.98725,2.638659 -0.92439,2.934337 0.68555,3.158203 1.52896,0.21261 2.16016,-0.270842 2.16016,-1.65625 0,-0.549029 0.67304,-1.463831 2.20703,-3.003906 2.3056,-2.314744 3.60064,-2.862538 5.58984,-2.363281 0.90181,0.226342 2.76367,1.691982 2.76367,2.175781 0,0.176 -0.43723,-0.04721 -0.9707,-0.496093 -0.53347,-0.44888 -1.50367,-0.964703 -2.1582,-1.146485 -1.75231,-0.48666 -2.38575,-0.365048 -0.75196,0.144531 2.55509,0.79692 4.20118,2.994207 4.20118,5.607422 0,1.790973 -0.58626,2.779219 -2.94141,4.958985 l -2.01953,1.86914 -0.11133,3.009766 c -0.11151,3.002275 -0.10928,3.008499 0.64063,2.902344 0.67819,-0.09601 0.7665,-0.303946 0.9121,-2.134766 0.13338,-1.676841 0.3011,-2.139171 0.96094,-2.654297 4.38912,-3.426557 5.61279,-5.442376 5.36914,-8.847656 -0.23277,-3.253238 -1.6051,-5.478758 -4.25,-6.890625 -0.97636,-0.5211871 -1.8532,-0.6857464 -3.69336,-0.6914064 z M 126.86523,24.519531 c 0.50769,0.19482 0.80455,1.147488 0.81055,2.607422 0.003,0.832459 -0.16437,1.113413 -0.8164,1.361328 -0.45146,0.171644 -1.13393,0.3125 -1.51563,0.3125 -0.3817,0 -2.99952,0.748412 -5.81836,1.664063 -7.33085,2.381302 -16.66109,7.11521 -22.724609,11.529297 -6.329041,4.607378 -12.393755,10.90675 -16.732422,17.382812 -2.540382,3.791875 -5.436728,9.022634 -6.609375,11.935547 -1.018335,2.529592 -1.437767,2.909912 -2.898437,2.628906 -1.875499,-0.360809 -1.427028,-2.214011 2.416015,-9.988281 C 75.66117,58.52231 80.88956,51.408098 86.556641,45.478516 92.998607,38.738151 103.33025,31.934195 112.0625,28.679687 c 4.03278,-1.503012 14.2467,-4.373522 14.80273,-4.160156 z m 32.9961,0.867188 c 1.16505,-0.447075 13.1244,3.347808 18.37304,5.830078 3.63169,1.71756 10.10471,5.686237 13.81641,8.470703 5.09369,3.821228 12.43397,10.52632 14.41016,13.164062 3.43495,4.584885 6.36954,9.232236 8.99414,14.242188 3.30188,6.302862 3.22469,6.100523 2.47461,6.501953 -0.92983,0.497629 -3.60422,0.227006 -4.0918,-0.414062 -0.15939,-0.209553 -0.49067,-0.885956 -0.73437,-1.501954 -0.53669,-1.35661 -3.56601,-6.795123 -5.25782,-9.439453 -0.67561,-1.055997 -1.86789,-2.928159 -2.65039,-4.160156 -0.92397,-1.45471 -3.17856,-3.960643 -6.42969,-7.146484 -7.53931,-7.387951 -13.41491,-11.636544 -21.96484,-15.884766 -4.399,-2.185744 -11.51978,-4.896521 -15.24023,-5.800781 -1.56256,-0.379781 -2.33311,-0.737753 -2.58008,-1.199219 -0.2594,-0.484743 -0.25586,-0.689467 0.0137,-0.779297 0.20124,-0.06708 0.36523,-0.475393 0.36523,-0.90625 0,-0.430854 0.22596,-0.870653 0.50196,-0.976562 z m -34.14649,0.607422 c -0.69213,0.06127 -2.08293,0.434381 -4.88086,1.18164 -13.35289,3.566261 -23.999635,9.723521 -33.324214,19.273438 -6.019788,6.16526 -9.540484,10.756517 -12.773438,16.652343 -1.635428,2.982481 -4.339672,9.275416 -4.130859,9.613282 0.399295,0.646075 0.988822,-0.143164 2.351562,-3.150391 6.050109,-13.351064 14.643597,-23.219055 28.166019,-32.339844 2.64348,-1.783029 6.80377,-3.94972 8.79687,-4.582031 0.704,-0.223345 1.42361,-0.514754 1.59961,-0.648437 1.43335,-1.088737 11.97496,-4.452037 14,-4.466797 0.73389,-0.0053 0.88086,-0.146293 0.88086,-0.84375 0,-0.499581 0.007,-0.750723 -0.68555,-0.689453 z m 34.79102,0.566406 c -0.10268,0 -0.18555,0.26815 -0.18555,0.597656 0,0.458533 0.31848,0.649735 1.35938,0.810547 0.748,0.11556 3.73665,1.01393 6.64062,1.996094 11.9843,4.05323 20.11702,9.161705 30.66602,19.265625 6.0374,5.78269 8.68123,8.93714 12.25,14.615234 2.50002,3.97767 3.47647,6.108194 3.48047,7.59375 0.003,1.162827 0.0392,1.201172 1.15039,1.201172 0.63067,0 1.09731,-0.108237 1.03711,-0.240234 -2.51473,-5.509119 -7.60894,-13.911507 -11.4961,-18.960938 -2.57516,-3.345186 -10.37668,-10.237906 -16.11718,-14.240234 -6.80372,-4.743578 -11.92973,-7.358466 -19.52735,-9.960938 -3.52248,-1.206587 -8.61015,-2.677734 -9.25781,-2.677734 z m -16.48438,6.27539 c -2.33241,0.03256 -5.18689,0.469793 -6.97656,1.132813 -2.75115,1.019225 -4.08369,2.258648 -6.63281,6.169922 -2.43723,3.739606 -4.22678,5.622319 -7.37305,7.755859 -2.18139,1.479245 -11.76829,6.528146 -16.79883,8.847656 -6.0902,2.808113 -6.780104,3.169532 -7.874996,4.13086 -0.838272,0.736012 -1.085937,1.20344 -1.085937,2.054687 0,0.742717 -0.255495,1.357057 -0.785156,1.886719 -1.19254,1.19254 -1.654768,1.015931 -2.726563,-1.044922 l -0.703125,-1.351562 -1.492187,0.761718 c -0.82072,0.419582 -2.083215,1.273836 -2.804688,1.896485 -1.452085,1.253182 -3.648437,5.11051 -3.648437,6.408203 v 0.830078 l 2.035156,-0.765625 c 2.476798,-0.932264 6.34218,-3.090563 7.753906,-4.330078 0.60206,-0.528612 1.612131,-1.009732 2.398438,-1.142578 0.819033,-0.138375 2.955469,-1.185489 5.384769,-2.636719 2.2153,-1.323413 4.52579,-2.615781 5.13281,-2.873047 0.60703,-0.257264 1.89547,-0.974648 2.86328,-1.59375 0.96781,-0.6191 2.32845,-1.326375 3.02539,-1.572265 0.69693,-0.245892 1.93017,-0.855064 2.74024,-1.353516 0.81007,-0.498452 1.98323,-1.07394 2.60546,-1.279297 0.62224,-0.205358 2.42019,-1.138044 3.9961,-2.072266 1.5759,-0.934219 4.52092,-2.518116 6.54492,-3.519531 2.024,-1.001415 4.32909,-2.196644 5.12109,-2.65625 6.09373,-3.536248 7.48015,-4.279297 7.99414,-4.279297 0.68634,0 7.61346,3.418565 12.64453,6.240235 6.88861,3.863482 25.71366,14.028348 29.60157,15.984375 1.496,0.752646 3.296,1.55292 4,1.779297 0.704,0.226374 2.35971,1.144037 3.67968,2.039062 1.32,0.895024 3.55099,2.2371 4.95899,2.982422 1.408,0.745323 2.6873,1.360134 2.8418,1.365234 0.49365,0.01642 -0.11236,-2.650751 -1.01172,-4.455078 -1.10629,-2.21947 -2.60887,-3.726126 -4.67774,-4.689453 -2.29861,-1.070321 -2.96949,-1.004761 -3.61718,0.353516 -0.64586,1.354386 -1.57302,1.470526 -2.64258,0.332031 -0.59872,-0.637273 -0.70735,-1.027123 -0.57032,-2.048828 l 0.16993,-1.261719 -3.08594,-1.347656 c -4.68185,-2.045641 -15.13038,-7.395632 -19.08594,-9.771485 -6.16341,-3.701983 -7.69066,-5.169874 -10.63281,-10.222656 -2.38963,-4.103903 -5.00888,-5.982264 -9.16602,-6.574219 -0.6023,-0.08576 -1.32213,-0.120227 -2.09961,-0.109375 z m -3.06054,11.171875 c 0.352,-0.292403 -1.52016,0.571234 -4.16016,1.917969 -2.64,1.346738 -4.93827,2.579063 -5.10547,2.740235 -0.60148,0.579792 0.21023,0.272293 2.31836,-0.878907 1.18046,-0.644623 3.08259,-1.638105 4.22656,-2.208984 1.144,-0.570879 2.36871,-1.277908 2.72071,-1.570313 z m 12.35937,4.361329 c -0.13575,-0.03141 -0.20527,-0.01902 -0.17773,0.05273 0.0799,0.208342 0.53952,0.608182 1.02148,0.888672 0.48197,0.280493 0.99301,0.445527 1.13672,0.367187 0.1437,-0.07834 0.21586,-0.17431 0.16016,-0.21289 -0.73452,-0.508648 -1.73336,-1.001464 -2.14063,-1.095703 z m -22.21679,0.722656 c -0.17419,-0.120663 -2.46117,0.946958 -4.11133,1.958984 -0.99453,0.609934 -1.89721,1.109375 -2.00586,1.109375 -0.10865,0 -1.09459,0.543678 -2.19141,1.208985 -1.09682,0.665304 -2.46315,1.402628 -3.03515,1.638671 -0.572,0.236045 -1.03907,0.558576 -1.03907,0.716797 0,0.316933 1.76638,-0.517376 4.47852,-2.115234 0.968,-0.570298 3.05665,-1.718946 4.64062,-2.552734 1.584,-0.833791 3.02322,-1.659957 3.19922,-1.835938 0.0693,-0.06934 0.0893,-0.111669 0.0645,-0.128906 z m 25.50976,0.939453 c -0.10507,-0.02617 -0.19213,0.04583 -0.29297,0.208984 -0.17072,0.276231 -0.1348,0.340369 0.10938,0.189453 0.2032,-0.125579 0.37109,-0.07755 0.37109,0.105469 0,0.183014 0.68353,0.687871 1.51953,1.123047 1.79659,0.93521 1.67969,0.900263 1.67969,0.507813 0,-0.172423 -0.5753,-0.607646 -1.2793,-0.966797 -0.704,-0.359152 -1.28125,-0.549044 -1.28125,-0.423828 0,0.125213 -0.19254,-0.03898 -0.42968,-0.363282 -0.16832,-0.230187 -0.29142,-0.354689 -0.39649,-0.380859 z m 4.41016,2.597656 c -0.2461,0.246105 -0.23949,0.250614 3.61718,2.337891 1.936,1.047781 3.57905,1.852682 3.65235,1.789062 0.19595,-0.169984 0.16859,-0.188578 -3.61524,-2.328125 -1.91546,-1.0831 -3.56039,-1.892678 -3.65429,-1.798828 z m -43.00391,3.132813 c -0.19657,0.06485 -0.40538,0.252132 -0.45508,0.505859 -0.0418,0.213404 -0.004,0.240095 0.0859,0.05859 0.0898,-0.181494 0.29606,-0.247918 0.45703,-0.148438 0.16097,0.09948 0.29297,0.0155 0.29297,-0.185547 0,-0.237332 -0.18428,-0.295315 -0.38086,-0.230468 z m -0.9043,0.800781 c 0.003,-0.130357 -0.92258,0.220063 -2.05664,0.779297 -1.13407,0.559231 -1.99385,1.128296 -1.91015,1.263672 0.17112,0.276873 3.95879,-1.673695 3.96679,-2.042969 z m 52.09375,0.601562 c -0.1931,0.119348 -0.14654,0.303597 0.11719,0.470704 0.69029,0.437362 1.02946,0.328882 0.59766,-0.191407 -0.21749,-0.262057 -0.54,-0.387356 -0.71485,-0.279297 z m 1.47657,0.84375 c -0.0836,0.08364 0.4655,0.52326 1.2207,0.978516 1.58101,0.953081 1.5332,0.934745 1.5332,0.591797 0,-0.326177 -2.54622,-1.77799 -2.7539,-1.570313 z M 112,59.097656 c -0.23734,-0.06257 -0.65564,0.103477 -1.38672,0.527344 -0.73279,0.424859 -1.80506,1.012196 -2.38281,1.306641 -0.57776,0.294442 -0.96547,0.673293 -0.86133,0.841796 0.10414,0.168503 0.25966,0.306641 0.34766,0.306641 0.088,0 0.0653,-0.154026 -0.0508,-0.341797 -0.11605,-0.187769 -0.015,-0.302799 0.22265,-0.255859 0.57841,0.114238 3.15039,-1.247667 3.15039,-1.667969 0,-0.182811 0.14432,-0.243539 0.32032,-0.134766 0.17597,0.108772 0.32031,0.03662 0.32031,-0.160156 0,-0.196773 0.16595,-0.254486 0.36914,-0.128906 0.23378,0.144481 0.28284,0.08651 0.13281,-0.15625 -0.0434,-0.07017 -0.10253,-0.115862 -0.18164,-0.136719 z m 62.4043,0.964844 c 0.003,0.142152 0.68607,0.643843 1.51953,1.117187 1.76517,1.00247 1.6762,0.967957 1.67578,0.660157 -1.8e-4,-0.132 -0.71979,-0.644523 -1.59961,-1.138672 -0.87982,-0.494153 -1.5987,-0.780825 -1.5957,-0.638672 z m -27.72852,0.417969 c 1.56196,0 1.65019,0.37873 1.58789,6.902343 -0.0318,3.331173 -0.0696,6.309188 -0.082,6.617188 -0.0181,0.447493 -0.31173,0.560547 -1.46875,0.560547 -1.25981,0 -1.49019,-0.108077 -1.76172,-0.822266 -0.17165,-0.451454 -0.31054,-1.67421 -0.31055,-2.71875 v -1.90039 h -1.9082 -1.90625 l -0.0937,2.640625 -0.0918,2.640625 -1.48242,0.0957 c -1.59902,0.103581 -2.71134,-0.571931 -2.37695,-1.44336 0.0981,-0.255698 0.17773,-2.890443 0.17773,-5.855468 0,-6.211615 0.10663,-6.498553 2.35938,-6.333985 l 1.32226,0.09766 0.0937,2.158204 0.0957,2.160156 h 1.90429 1.90625 v -2.06836 c 1e-5,-2.24469 0.36178,-2.730468 2.03516,-2.730468 z m -18.97265,0.320312 c 4.46277,0 4.77653,0.03969 5.10546,0.654297 0.19276,0.360132 0.3045,1.11582 0.25,1.679688 -0.0893,0.923458 -0.23396,1.053416 -1.45898,1.310546 l -1.35938,0.285157 v 4.720703 c 0,4.009085 -0.076,4.749094 -0.50586,4.914062 -0.94775,0.363687 -2.64668,0.197069 -3.15429,-0.310547 -0.43474,-0.434737 -0.47752,-1.135785 -0.29492,-4.960937 l 0.21289,-4.453125 h -1.58399 c -1.85125,0 -2.35351,-0.384541 -2.35351,-1.798828 0,-2.073846 -0.0802,-2.041016 5.14258,-2.041016 z m 30.36132,0 c 5.22835,0 5.13477,-0.03915 5.13477,2.085938 0,0.591215 -0.1595,1.173805 -0.35547,1.294922 -0.19597,0.121115 -1.63519,0.195702 -3.19922,0.164062 -2.60897,-0.05279 -2.84375,-0.0079 -2.84375,0.554688 0,0.532039 0.30288,0.634814 2.29492,0.777343 2.4356,0.174266 3.14453,0.625782 3.14453,2 0,1.16483 -0.62858,1.441407 -3.26367,1.441407 -2.4491,0 -2.49609,0.01583 -2.49609,0.800781 0,0.789077 0.0365,0.800781 2.65625,0.800781 3.01128,0 3.42383,0.231356 3.42383,1.919922 0,0.633597 -0.17357,1.323956 -0.38477,1.535156 -0.2144,0.214399 -1.09774,0.360308 -2,0.330078 -3.35682,-0.112466 -6.85367,-0.434385 -7.06836,-0.65039 -0.25032,-0.251891 -0.20396,-12.383885 0.0488,-12.792969 0.0891,-0.144205 2.29744,-0.261719 4.9082,-0.261719 z m -11.46484,0.958985 c -0.41508,0 -0.66145,0.305325 -0.79883,0.992187 -0.10893,0.546076 -0.11228,1.131441 -0.008,1.300781 0.10468,0.169344 0.0978,0.803624 -0.0156,1.408203 l -0.20703,1.09961 h -2.83008 c -3.2326,0 -3.2207,0.01107 -3.2207,-2.746094 0,-1.520489 -0.0774,-1.734375 -0.63867,-1.734375 -0.6132,0 -0.64063,0.21327 -0.64063,5.09375 0,2.801597 -0.0928,5.332579 -0.20507,5.625 -0.16536,0.430972 -0.0323,0.511291 0.70312,0.425781 l 0.9082,-0.105468 0.0176,-2.558594 0.0156,-2.560547 2.47656,-0.09375 c 3.52935,-0.133117 3.76367,0.05267 3.76367,2.984375 0,2.175402 0.0578,2.388672 0.64063,2.388672 0.6163,0 0.63867,-0.213114 0.63867,-5.759766 0,-5.418649 -0.0352,-5.759765 -0.59961,-5.759765 z m -39.86328,0.160156 c -0.13719,0.0013 -0.31069,0.06088 -0.52539,0.175781 -0.3463,0.185307 -0.54473,0.473455 -0.44141,0.640625 0.10332,0.167169 0.25966,0.302734 0.34766,0.302734 0.088,0 0.0717,-0.142359 -0.0371,-0.318359 -0.18123,-0.293236 0.25643,-0.464107 0.9043,-0.351562 0.14507,0.0252 0.17235,-0.100416 0.0605,-0.28125 -0.0693,-0.112148 -0.17141,-0.169305 -0.30859,-0.167969 z m 21.12695,0.160156 c -3.77578,0 -4.02344,0.03743 -4.02344,0.623047 0,0.535226 0.26169,0.638393 1.83985,0.720703 l 1.83984,0.0957 v 4.88086 c 0,4.847565 0.006,4.879039 0.7207,4.878906 0.716,-1.32e-4 0.72071,-0.03017 0.72071,-4.941406 v -4.941407 l 1.35547,-0.09766 c 0.99005,-0.07178 1.38734,-0.249705 1.46484,-0.658203 0.0966,-0.509267 -0.25897,-0.560547 -3.91797,-0.560547 z m 26.2168,0.002 v 5.425781 5.427735 l 2.08008,0.109375 c 5.23565,0.276926 5.11914,0.286403 5.11914,-0.404297 C 161.2793,72.058101 161.06674,72 158.90625,72 c -1.30561,0 -2.59748,-0.08641 -2.87109,-0.191406 -0.59838,-0.22961 -0.98869,-2.036204 -0.69336,-3.212891 l 0.21289,-0.847656 2.72461,0.191406 c 2.45303,0.173115 2.71264,0.138249 2.61914,-0.353516 -0.0828,-0.43562 -0.56926,-0.577397 -2.40625,-0.705078 -1.26608,-0.088 -2.46267,-0.32149 -2.65821,-0.517578 -0.19551,-0.196089 -0.3092,-0.987856 -0.2539,-1.759765 l 0.0996,-1.404297 3.12109,-0.08984 c 2.48398,-0.07292 3.11914,-0.187621 3.11914,-0.560547 0,-0.385783 -0.69139,-0.467741 -3.91992,-0.466797 z m -48.66016,0.925781 c -0.17396,-0.281472 -4.08557,1.542454 -5.599608,2.611329 -0.450732,0.318205 -1.205685,0.674491 -1.677734,0.792968 -0.491017,0.123238 -0.768741,0.361986 -0.648437,0.556641 0.0567,0.09175 0.04234,0.136418 0.0078,0.166016 1.51166,-0.451626 5.192419,-2.285667 5.574219,-2.882813 0.10767,-0.168408 0.29419,-0.279354 0.41406,-0.246094 0.44563,0.123638 2.09557,-0.729649 1.92969,-0.998047 z m 76.54883,0.830079 c -0.10706,-0.0014 -0.0874,0.103729 -0.006,0.316406 0.10172,0.265068 0.31314,0.402067 0.4707,0.304687 0.15756,-0.09738 0.28711,-0.01513 0.28711,0.181641 0,0.19677 0.14236,0.26893 0.31836,0.160156 0.176,-0.108774 0.32031,-0.04576 0.32031,0.140625 0,0.186387 0.0722,0.337891 0.16016,0.337891 0.51321,0 0.0196,-0.696063 -0.79101,-1.115235 -0.41984,-0.217114 -0.65271,-0.324766 -0.75977,-0.326171 z m 2.70898,1.617187 c -0.20931,0.209307 -0.10743,0.273845 2.35547,1.507813 1.93913,0.971538 3.04688,1.207588 3.04688,0.648437 0,-0.088 -0.20636,-0.08133 -0.45899,0.01563 -0.25263,0.09694 -0.50514,0.05657 -0.56054,-0.08984 -0.13002,-0.343796 -4.19166,-2.273187 -4.38282,-2.082031 z m -88.097652,1.591797 c -0.611248,0.07591 -1.252891,0.481572 -1.050781,0.808594 0.103317,0.167169 0.259656,0.304687 0.347656,0.304687 0.088,0 0.05694,-0.169091 -0.07031,-0.375 -0.156982,-0.254003 -0.05419,-0.307024 0.318359,-0.164062 0.37005,0.142003 0.472762,0.09162 0.318359,-0.158203 -0.156389,-0.253046 -0.04663,-0.300942 0.345703,-0.150391 0.07823,0.03002 0.409468,-0.09575 0.646485,-0.162109 -0.06637,0.0038 -0.144757,-5.9e-5 -0.28711,-0.05469 -0.164812,-0.06324 -0.364609,-0.07413 -0.568359,-0.04883 z m 94.199222,0.990234 c -0.14954,-0.09242 -0.27344,0.04062 -0.27344,0.296875 0,0.539573 0.10257,0.586651 0.36133,0.167969 0.10124,-0.163839 0.0617,-0.372424 -0.0879,-0.464844 z m -95.615238,0.06445 c -0.150225,-0.243071 -2.044921,0.864393 -2.044921,1.195313 0,0.07317 0.498962,-0.104379 1.107421,-0.394531 0.608463,-0.290156 1.03032,-0.650599 0.9375,-0.800782 z m 96.068358,0.613282 c -0.10127,0.101266 1.00192,0.881398 2.45117,1.734375 2.76977,1.630153 4.08234,2.105673 2.10743,0.763672 -2.17472,-1.477753 -4.37422,-2.682428 -4.5586,-2.498047 z M 92.650391,69.50395 c -0.07354,-0.07354 -0.58977,0.192037 -1.148438,0.589844 -0.558665,0.397807 -1.756694,1.142286 -2.660156,1.654297 -1.546602,0.876488 -1.471758,0.944321 0.429687,0.392578 0.833623,-0.241893 3.608499,-2.407123 3.378907,-2.636719 z M 178.27539,70.75 c -4.46887,-0.04533 -8.86645,0.02275 -10.25,0.234375 -1.47205,0.225168 -2.08406,0.852088 -1.08398,1.111328 C 167.94759,72.35652 191.16354,72.267882 192,72 c 0.44,-0.140912 0.65647,-0.275708 0.48047,-0.298828 -0.176,-0.02312 -1.75953,-0.250862 -3.51953,-0.50586 -1.67482,-0.242652 -6.21666,-0.39998 -10.68555,-0.445312 z m -70.99609,0.03711 c -11.911633,0.08782 -12.811675,0.133097 -14.160159,0.732422 l -1.439454,0.640625 2.560547,0.203125 c 2.533881,0.201032 5.758559,0.158569 18.958986,-0.25 C 119.58076,71.915763 120,71.864701 120,71.296875 c 0,-0.584834 -0.42587,-0.600417 -12.7207,-0.509765 z m -15.439456,0.251953 c -0.01652,-0.01651 -0.146622,0.08028 -0.400391,0.279297 -0.308,0.24155 -0.558594,0.494097 -0.558594,0.560547 0,0.263371 0.26165,0.09359 0.679688,-0.439453 0.199019,-0.253769 0.295814,-0.383874 0.279297,-0.400391 z m 15.263676,8.701172 c 3.15127,-0.04858 6.36728,0.941908 8.52343,2.839844 1.66691,1.467268 3.41211,4.67617 3.41211,6.271484 0,0.587889 0.10824,1.068391 0.24024,1.06836 0.132,-3.2e-5 0.24023,7.835043 0.24023,17.410157 0,9.5751 -0.0794,17.35953 -0.17773,17.29883 -0.0983,-0.0607 -0.34277,0.50145 -0.54297,1.25 -0.86037,3.21678 -3.71733,5.8833 -7.50391,7.00586 -3.42724,1.01602 -6.22464,0.89144 -8.96875,-0.39844 -3.344147,-1.57195 -5.619416,-4.51307 -6.316404,-8.16602 -0.255052,-1.33675 -0.335928,-7.17039 -0.267579,-19.20117 l 0.09766,-17.279295 0.763672,-1.689453 c 0.817156,-1.808248 3.185838,-4.19032 5.140621,-5.171875 1.60226,-0.804537 3.4686,-1.209135 5.35938,-1.238282 z m 110.8164,0.347657 v 0.734375 c 0,0.448998 -0.37038,0.997128 -0.95312,1.412109 l -0.95118,0.679687 -0.0117,25.214847 c -0.0107,24.78538 2.9e-4,25.22908 0.63281,26.0332 0.35392,0.44994 0.64258,1.12004 0.64258,1.48828 0,0.54877 -0.18668,0.66352 -1.03907,0.63672 -0.572,-0.018 -1.54415,-0.15487 -2.16015,-0.30469 -0.616,-0.14982 -2.21316,-0.43645 -3.54883,-0.63672 -1.33567,-0.20027 -2.60311,-0.47168 -2.81641,-0.60351 -0.57357,-0.35449 -2.14445,-5.85826 -3.38672,-11.86133 -0.60091,-2.904 -1.45362,-6.64831 -1.89453,-8.32031 -0.44091,-1.672 -0.95639,-4.19161 -1.14453,-5.59961 -0.18815,-1.408 -0.64293,-3.92959 -1.00976,-5.60156 -0.36684,-1.672 -0.76307,-3.68652 -0.88282,-4.47852 -0.11971,-0.791997 -0.21303,3.0947 -0.20703,8.63867 0.006,5.544 -0.0525,13.20693 -0.1289,17.0293 -0.12367,6.18882 -0.0795,7.01662 0.40039,7.54687 0.63259,0.69901 0.71068,1.85749 0.13867,2.05469 -0.22,0.0758 -2.4865,-0.0946 -5.03711,-0.37695 -3.7687,-0.41715 -4.65678,-0.60974 -4.73828,-1.03321 -0.099,-0.51395 0.17595,-0.85568 1.31836,-1.64257 0.53191,-0.36639 0.58577,-1.04927 0.63867,-7.91016 0.0318,-4.12947 0.0225,-14.87241 -0.0215,-23.874999 l -0.0801,-16.369141 -1.14258,-0.673828 c -0.74373,-0.438807 -1.10651,-0.869803 -1.03711,-1.232422 0.095,-0.496633 0.71562,-0.574485 5.70312,-0.722656 3.07799,-0.09144 5.84447,-0.05445 6.14649,0.08398 0.30202,0.138433 0.68016,0.790262 0.83984,1.447266 0.15967,0.657003 0.59625,2.418066 0.97071,3.914063 0.37446,1.495994 1.11812,4.665024 1.65234,7.041015 0.53422,2.375994 1.32008,5.759543 1.74609,7.519532 0.42601,1.76 0.94283,4.10361 1.15039,5.20899 0.20757,1.10538 0.45257,1.9361 0.54297,1.8457 0.0904,-0.0904 0.18494,-5.72269 0.21094,-12.515628 l 0.0469,-12.349609 -0.89454,-0.462891 c -0.80883,-0.418278 -1.27878,-1.680049 -0.65429,-1.755859 0.132,-0.01602 2.65161,-0.06761 5.59961,-0.115235 z m 13.5586,0.0039 c 7.13235,-0.248716 11.93156,3.465522 13.04296,10.580078 0.38785,2.482736 0.20643,8.729117 -0.26757,9.203125 -0.17142,0.171405 -1.80858,0.191595 -3.95313,0.04883 l -3.66016,-0.244141 -0.17382,-4.160156 c -0.1276,-3.066936 -0.3174,-4.430619 -0.72461,-5.193359 -0.58632,-1.098219 -1.98942,-2.005859 -3.10157,-2.00586 -0.84607,1e-6 -2.30666,0.744352 -2.90429,1.480469 -0.39893,0.491365 -0.3958,0.530548 0.0234,0.316406 0.30389,-0.155197 0.28036,-0.08033 -0.0645,0.203125 -0.50056,0.411537 -0.5455,1.903073 -0.5664,18.439461 -0.0251,19.90109 -0.0492,19.66776 2.00586,20.73046 1.33627,0.69103 3.29148,0.38739 4.35351,-0.67382 l 0.83203,-0.83008 0.10156,-6.87305 0.10352,-6.87305 -1.70312,-0.006 c -2.55404,-0.007 -2.58466,-0.054 -2.66016,-4.10157 -0.0363,-1.94284 0.0306,-3.68817 0.14844,-3.8789 0.35362,-0.57216 10.39657,-0.85442 11.39453,-0.32032 l 0.81054,0.4336 -0.10156,11.53711 c -0.0979,11.11866 -0.1266,11.5916 -0.80859,13.0625 -1.47363,3.17825 -3.75689,5.14639 -7.10352,6.125 -2.59686,0.75937 -5.87634,0.65186 -8.10742,-0.26563 -3.69111,-1.51789 -6.07036,-4.06891 -7.09961,-7.60937 -0.46044,-1.58387 -0.50075,-3.92579 -0.35351,-21.09961 0.16582,-19.340124 0.1999,-20.778043 0.49804,-21.076177 0.088,-0.088 0.49682,-0.83148 0.90821,-1.650391 1.4283,-2.84319 5.13123,-5.159355 9.13086,-5.298828 z m -176.677739,0.02539 c 2.067994,-0.02337 3.759766,0.08486 3.759766,0.240235 0,0.15537 0.232955,0.283203 0.519531,0.283203 0.906053,0 3.846371,1.876409 5.082031,3.244141 2.31869,2.56651 2.558594,3.517676 2.558594,10.195312 V 100 l -3.681641,0.0293 c -2.023991,0.016 -3.861712,-0.111722 -4.083984,-0.283206 -0.291049,-0.224543 -0.39334,-1.441987 -0.369141,-4.34961 0.01848,-2.220555 -0.115775,-4.418529 -0.296875,-4.884765 -0.69355,-1.785533 -3.090878,-2.617552 -4.890625,-1.697266 -0.59338,0.303421 -1.187421,0.73677 -1.320312,0.962891 -0.132891,0.22612 -0.263153,8.883204 -0.289063,19.236326 l -0.04687,18.82227 0.869141,0.88281 c 1.291138,1.31008 3.017931,1.23011 4.59375,-0.21289 l 1.195313,-1.0957 0.160156,-6.02539 0.160156,-6.02539 3.679688,-0.19727 c 2.023994,-0.1085 3.860078,-0.12814 4.080078,-0.0449 0.515184,0.19494 0.554982,9.3538 0.05273,12.10351 -0.493153,2.69999 -1.9605,5.58424 -3.617187,7.11133 -0.777898,0.71704 -1.319929,1.40502 -1.205079,1.5293 0.114848,0.1243 -0.0075,0.1541 -0.271484,0.0664 -0.264,-0.0877 -0.983612,0.0906 -1.599609,0.39649 -0.616,0.30588 -1.883746,0.71832 -2.816407,0.91601 -2.378581,0.50415 -4.07881,0.42216 -6.302734,-0.30273 -3.608662,-1.17625 -5.724629,-3.30808 -7.205078,-7.26172 -0.676513,-1.80667 -0.687251,-2.13679 -0.650391,-20.70508 0.03982,-20.062328 0.06738,-20.450583 1.628907,-23.544919 0.759645,-1.505319 2.967541,-3.505422 4.945312,-4.478515 1.402773,-0.690187 2.064817,-0.792831 5.361328,-0.830079 z m 117.117189,0.06641 c 0.86218,0.0241 1.43055,0.08761 1.61719,0.1875 0.62961,0.336953 0.62246,0.440803 -0.21289,2.667968 -0.41616,1.1095 -0.45883,4.265417 -0.3125,23.68164 0.16352,21.69728 0.18928,22.43202 0.81054,23.44727 0.35276,0.57646 0.56054,1.25999 0.46094,1.51953 -0.19306,0.50312 -0.61333,0.51371 -6.72852,0.16992 -2.50637,-0.14091 -3.2365,-0.29077 -3.50781,-0.72265 -0.26824,-0.427 -0.18985,-0.70993 0.36524,-1.30079 0.70029,-0.7457 0.70898,-0.87554 0.70898,-10.57421 v -9.82032 l -2.31836,0.0195 c -2.00056,0.0159 -5.57696,0.47943 -4.50391,0.58399 0.27264,0.0266 0.29495,0.3249 0.0801,1.07422 -0.34175,1.19175 -0.40868,10.26515 -0.0781,10.5957 0.12069,0.12069 0.22893,1.78503 0.24023,3.69922 0.0168,2.846 0.12215,3.59364 0.58008,4.09961 0.308,0.34033 0.56055,0.85052 0.56055,1.13281 0,0.72797 -0.54953,0.81562 -5.75977,0.93164 l -4.64062,0.10352 -0.10352,-0.90625 c -0.0627,-0.548 0.0926,-1.05611 0.39258,-1.28125 0.11357,-0.0853 0.20209,-0.37938 0.27344,-1.05274 -0.007,-0.0944 -0.0213,-0.14821 -0.0195,-0.27929 0.003,-0.28014 0.0267,-0.44183 0.0586,-0.50391 0.16739,-2.32935 0.23272,-7.7508 0.30469,-21.69922 l 0.11914,-23.16211 -0.90821,-0.517578 c -0.99973,-0.570481 -1.40651,-1.275127 -0.98242,-1.699219 0.15108,-0.151081 2.62436,-0.234057 5.4961,-0.185547 4.63893,0.07836 5.26126,0.151252 5.57617,0.666016 0.29201,0.477314 0.19531,0.71776 -0.54492,1.361328 -0.49419,0.429654 -0.81591,0.914608 -0.71485,1.078125 0.10106,0.163517 0.0383,0.387499 -0.14062,0.498047 -0.17887,0.110549 -0.31242,0.516731 -0.29492,0.902343 0.0306,0.673264 0.0415,0.670967 0.24609,-0.05859 0.1172,-0.417857 0.1584,3.290392 0.0918,8.240234 l -0.1211,9.000001 h 3.55664 3.55469 L 165.12305,94 c 0.002,-4.443988 0.0923,-8.822013 0.20117,-9.728516 0.17139,-1.426497 0.10486,-1.725953 -0.48438,-2.230468 -0.37444,-0.320609 -0.67968,-0.816992 -0.67968,-1.103516 0,-0.446987 0.62349,-0.547295 4.38671,-0.705078 1.35478,-0.0568 2.50892,-0.07292 3.3711,-0.04883 z m -22.03711,47.472658 c -0.0147,0.2042 -0.0226,0.62776 -0.0391,0.7832 0.0198,0.28574 0.063,0.44997 0.1289,0.28711 0.0876,-0.21665 0.0928,-0.64959 0.0117,-0.96093 -0.0381,-0.14614 -0.0734,-0.16431 -0.10156,-0.10938 z M 70.964844,80.191406 c 0.21759,0.0176 2.776032,0.05368 5.685547,0.08008 4.600014,0.04174 5.315415,0.117468 5.492187,0.578125 0.140824,0.366983 -0.155946,0.81865 -0.96875,1.470703 L 80,83.261719 v 22.085941 22.08593 L 81.359375,127.25 c 0.747997,-0.10042 2.511925,-0.26963 3.919922,-0.375 1.407994,-0.10538 3.623903,-0.33963 4.923828,-0.52148 1.901508,-0.26607 2.416259,-0.24714 2.634766,0.0977 0.149375,0.23567 0.274643,1.60916 0.277343,3.05078 0.0027,1.44161 0.148219,2.70959 0.324219,2.81836 0.176,0.10878 0.320313,0.46141 0.320313,0.78516 0,0.49838 -0.356049,0.62184 -2.320313,0.79687 -2.533897,0.22577 -8.464084,0.89536 -14.478516,1.63477 -2.111993,0.25964 -4.34494,0.55519 -4.960937,0.65625 -1.72595,0.28317 -2.095595,-0.49007 -0.978516,-2.04688 0.601701,-0.83852 0.625187,-1.70142 0.716797,-26.25781 l 0.0957,-25.390623 -0.742187,-0.59961 c -0.757049,-0.613127 -0.842541,-1.764961 -0.12695,-1.707081 z m 114.849606,0.04687 c 0.87262,0.04308 1.23505,0.154802 1.47266,0.355469 0.31216,0.263629 0.45272,0.561151 0.3125,0.662109 -0.14023,0.100958 -0.48694,0.551769 -0.77149,1 -0.46701,0.735732 -0.50665,3.072595 -0.40234,24.044926 0.11406,22.93344 0.1245,23.24669 0.78906,24.37304 0.37026,0.62753 0.62556,1.46781 0.56836,1.86914 -0.11863,0.83274 -0.64958,0.97807 -2.02343,0.55078 -0.528,-0.16422 -2.72489,-0.39207 -4.88086,-0.50586 -3.36722,-0.17771 -3.91993,-0.28277 -3.91993,-0.74219 0,-0.29416 0.36079,-0.87179 0.80079,-1.28515 l 0.80078,-0.75196 -0.006,-22.90429 c -0.002,-12.597283 -0.0849,-23.210703 -0.18555,-23.585936 -0.11168,-0.416164 -0.68272,-0.879085 -1.46289,-1.185547 -0.93044,-0.365484 -1.24992,-0.659557 -1.16992,-1.078125 0.099,-0.518145 0.65111,-0.593114 5.54687,-0.757812 2.27594,-0.07656 3.65864,-0.101682 4.53125,-0.05859 z m -51.73047,0.04687 c 6.14069,-0.0016 12.27685,0.04318 12.35352,0.136719 0.0262,0.03196 0.0997,1.858599 0.16406,4.058594 l 0.11719,4 h -4.09961 -4.10156 l -0.006,20.103511 c -0.005,17.005 0.063,20.18753 0.45117,20.64063 0.65256,0.76165 0.85995,1.48626 0.56055,1.9707 h -0.002 c -0.19144,0.30976 -1.55603,0.43809 -5.27539,0.49219 -5.52665,0.0804 -6.05512,-0.10805 -4.61718,-1.63867 l 0.75,-0.79883 -0.0645,-17.34375 c -0.0349,-9.53989 -0.0654,-18.770196 -0.0684,-20.511719 l -0.006,-3.167969 -2.32031,0.25 c -1.276,0.137367 -2.96776,0.26695 -3.75976,0.28711 l -1.44141,0.03711 -0.17383,-2.880859 c -0.096,-1.583997 -0.37537,-3.416689 -0.62109,-4.072266 -0.24572,-0.655573 -0.34406,-1.294613 -0.21875,-1.419922 0.0936,-0.0936 6.23824,-0.140994 12.3789,-0.142578 z m -26.52148,0.695313 c -1.34924,-0.009 -2.71881,0.142895 -3.7832,0.458984 -2.05762,0.61105 -4.656959,2.675951 -5.783206,4.591797 l -0.876953,1.488281 -0.08203,17.919919 c -0.08448,18.05085 0.07103,21.1211 1.076172,21.1211 0.194339,0 0.741543,0.46253 1.216797,1.02734 1.38247,1.64297 3.36162,3.06045 5.11914,3.66797 1.90713,0.65925 2.54693,0.6908 5.21484,0.25781 3.99059,-0.64766 6.53469,-2.39348 7.86133,-5.39258 0.63019,-1.42454 0.64786,-2.00093 0.58399,-18.91601 -0.0418,-11.054477 -0.19109,-17.972325 -0.40821,-18.884768 -0.76206,-3.202611 -3.13946,-5.708469 -6.47851,-6.830078 -0.98172,-0.329763 -2.31092,-0.500747 -3.66016,-0.509765 z m -53.396484,0.171875 c -1.90845,0.02696 -2.671832,0.20931 -4.365235,1.042968 -2.651054,1.305111 -4.102004,2.927721 -4.9375,5.519532 -0.63052,1.955937 -0.663139,2.847348 -0.730469,20.605466 -0.0387,10.20797 -0.04817,18.94251 -0.02148,19.41016 0.02669,0.46764 0.470156,1.33156 0.984375,1.91992 0.514222,0.58835 1.515544,1.7269 2.226563,2.53125 1.532308,1.73345 3.96902,3.13862 6.054687,3.49023 2.232027,0.37629 3.250466,0.36881 4.519531,-0.0332 2.534955,-0.80301 3.619458,-1.40514 4.710938,-2.61328 1.140693,-1.26262 2.854864,-4.6295 2.52539,-4.95898 -0.09545,-0.0954 -0.171875,0.0192 -0.171875,0.2539 0,0.23507 -0.08262,0.34317 -0.183593,0.24219 -0.100977,-0.10097 0.04138,-0.62063 0.318359,-1.15625 0.397232,-0.76816 0.503906,-2.06769 0.503906,-6.15039 v -5.17578 l -1,0.19922 c -0.549997,0.11 -1.844909,0.20117 -2.878906,0.20117 h -1.880859 v 5.17187 c 0,4.88301 -0.04189,5.24413 -0.767578,6.48243 -0.894787,1.52681 -2.84908,2.74609 -4.402344,2.74609 -1.412665,0 -3.232366,-1.25441 -3.917969,-2.69922 -0.491251,-1.03524 -0.530952,-2.86927 -0.445312,-20.36523 l 0.09375,-19.226566 1.146484,-1.050782 c 1.550499,-1.420642 3.927373,-2.007659 5.488281,-1.355468 0.615898,0.257335 1.535771,1.015473 2.042969,1.683593 L 60,89.082031 l -0.08594,4.738281 -0.08594,4.740235 h 2.851562 c 2.305222,0 2.889866,-0.09669 3.046875,-0.50586 0.310444,-0.809003 0.219076,-5.865169 -0.146484,-8.134765 -0.886237,-5.502258 -5.25084,-8.854648 -11.414062,-8.767578 z m 146.748044,0.03516 -2.90625,0.207031 c -1.59829,0.113452 -3.61167,0.205078 -4.47461,0.205078 -1.55743,0 -1.56674,0.005 -1.07226,0.710938 0.44015,0.628385 0.5,3.513763 0.5,24.777339 0,20.48613 -0.0699,24.13431 -0.46094,24.52539 -0.39922,0.39923 -0.21971,0.48813 1.36133,0.67578 1.00069,0.11877 2.4801,0.32773 3.28906,0.46485 1.46063,0.24757 1.4693,0.24509 1.08984,-0.48633 -0.28624,-0.55176 -0.36182,-5.41503 -0.29882,-19.38281 0.0463,-10.25487 0.0963,-18.762012 0.11132,-18.90625 0.015,-0.14424 0.35205,-0.216397 0.74805,-0.160157 1.02693,0.145848 1.83998,2.918817 3.08984,10.525387 0.56181,3.41905 1.51251,8.37563 2.11133,11.01563 0.59882,2.63997 1.38508,6.31215 1.74805,8.16015 1.00665,5.12524 2.32803,9.63892 2.77148,9.46875 0.50997,-0.19569 3.1391,0.51858 4.91797,1.33594 1.98528,0.91262 2.36961,0.91189 1.86719,-0.004 -0.30366,-0.55345 -0.39766,-6.61511 -0.41016,-26.20508 -0.0157,-24.624332 0.005,-25.508252 0.59375,-26.160148 l 0.60938,-0.675781 -3.65039,0.0059 c -2.42716,0.0033 -3.48915,0.106698 -3.16992,0.308594 0.41188,0.260523 0.48264,1.972256 0.49804,12.074219 0.01,6.474326 0.13754,13.893826 0.28321,16.486336 0.24096,4.28878 0.21588,4.73184 -0.2793,4.92187 -0.29933,0.1149 -0.6741,0.0778 -0.83398,-0.082 -0.31772,-0.31773 -1.63607,-5.27139 -2.41407,-9.07422 -0.27005,-1.32 -0.84228,-3.80789 -1.27148,-5.52929 -0.42921,-1.721406 -1.00564,-4.241032 -1.28125,-5.599619 -0.27561,-1.358589 -0.97976,-4.415022 -1.56445,-6.791016 -0.58468,-2.375994 -1.16234,-4.880959 -1.28321,-5.566406 z m -31.48437,0.0918 c -2.2288,0 -3.31877,0.112573 -3.18555,0.328125 0.11132,0.180167 0.18852,4.895394 0.16992,10.478515 -0.0262,7.897295 -0.12756,10.244756 -0.45312,10.570316 -0.55547,0.55547 -8.32704,0.95586 -8.64258,0.44531 -0.11937,-0.19314 -0.30745,-4.799695 -0.41797,-10.236329 -0.1998,-9.828911 -0.19823,-9.887712 0.48828,-10.574218 l 0.69141,-0.691407 h -3.71875 c -3.42321,0 -3.68546,0.04225 -3.28125,0.529297 0.64011,0.771279 0.43768,47.065537 -0.20899,47.791017 -0.37822,0.42432 0.0182,0.46856 3.41407,0.38086 3.38929,-0.0875 3.79453,-0.15614 3.43945,-0.58398 -0.58811,-0.70907 -1.14602,-20.74511 -0.5957,-21.40821 0.52114,-0.62793 8.45396,-0.68912 8.84375,-0.0684 0.44162,0.70333 0.39237,20.78974 -0.0527,21.51954 -0.36827,0.60373 -0.31486,0.63522 0.92578,0.54882 0.7233,-0.0504 1.96191,0.042 2.75391,0.20508 2.10017,0.43256 3.28151,0.43466 3.01758,0.008 -0.65037,-1.0523 -0.75979,-4.56922 -0.77539,-25.00195 -0.0149,-19.556163 0.044,-22.441007 0.47851,-23.281252 l 0.4961,-0.958984 z m 62.44922,0.04883 c -4.94893,0.208941 -8.5694,2.890367 -9.45118,7.001953 -0.22815,1.063827 -0.34765,8.18028 -0.34765,20.705083 0,18.48763 0.0207,19.1253 0.64648,20.41796 1.37879,2.84822 5.33398,5.8242 8.3125,6.25391 3.93809,0.56815 6.19414,-0.15823 9.4961,-3.05859 2.62124,-2.30247 2.65044,-2.46325 2.74414,-14.8086 l 0.0801,-10.64062 h -3.07226 c -1.69019,1e-4 -3.93626,-0.0891 -4.99024,-0.19922 l -1.91601,-0.20117 0.14844,2.68164 c 0.0818,1.47417 0.16715,2.70011 0.18945,2.72461 0.0223,0.0245 0.87374,-0.10811 1.89062,-0.29492 1.12655,-0.20692 1.95496,-0.22479 2.1211,-0.0449 0.15,0.16231 0.18118,3.84797 0.0703,8.19141 -0.18636,7.30172 -0.2513,7.96476 -0.86133,8.78125 -1.67875,2.24692 -3.7455,2.8429 -6.02734,1.73828 -2.82629,-1.36818 -2.67682,-0.30818 -2.90039,-20.78125 -0.20546,-18.814915 -0.12012,-20.518408 1.11914,-22.048827 0.31998,-0.395149 1.13377,-0.951885 1.80664,-1.236328 2.39538,-1.012604 4.61345,-0.366147 5.91211,1.722656 0.6946,1.117194 0.75,1.543437 0.75,5.6875 v 4.480469 l 3.00391,0.05469 3.0039,0.05664 -0.17383,-4.53711 c -0.22302,-5.827082 -0.64342,-7.077319 -3.24804,-9.671875 -2.47281,-2.463234 -4.36599,-3.140982 -8.30664,-2.974609 z m -151.697269,0.06055 -3.902344,0.02539 c -3.081465,0.02006 -3.833085,0.110052 -3.572266,0.425782 0.525793,0.636479 0.340664,51.194734 -0.191406,52.263674 l -0.410156,0.82421 1.30664,-0.2539 c 3.282815,-0.63395 12.414772,-1.95936 16.427735,-2.38477 l 2,-0.21094 v -2.38476 -2.38477 l -0.878907,0.18555 c -1.501988,0.31424 -11.697291,1.12377 -11.976562,0.95117 -0.145377,-0.0899 -0.263672,-10.38535 -0.263672,-22.8789 V 82.851562 l 0.730469,-0.732421 z m 105.652339,0.01758 c -0.0836,-0.08362 -1.68236,-0.05256 -3.55273,0.06836 -2.97871,0.192575 -3.35237,0.279088 -3.00195,0.701172 0.31028,0.373737 0.41998,5.758661 0.48828,23.996104 0.0778,20.78704 0.0317,23.60305 -0.40625,24.27147 l -0.4961,0.75587 2.32813,0.0391 c 1.28006,0.0208 2.75911,0.1469 3.28711,0.28125 0.528,0.13436 1.22256,0.26241 1.54492,0.2832 0.55805,0.0361 0.5572,-0.0116 -0.043,-1.00195 -0.60812,-1.00349 -0.63599,-1.86334 -0.77539,-24.48241 -0.12365,-20.061757 -0.0784,-23.537979 0.31641,-24.101568 0.25374,-0.362205 0.39414,-0.726927 0.31054,-0.810547 z m -62.4746,0.0332 0.11132,3.041016 c 0.0612,1.671994 0.15654,3.085598 0.21094,3.142578 0.0544,0.05698 0.57149,-0.139147 1.14844,-0.4375 0.72968,-0.37733 1.91166,-0.555375 3.88281,-0.583985 l 2.83398,-0.04102 -0.0215,21.576177 c -0.0165,16.50753 -0.11458,21.69149 -0.41406,22.06055 -0.32781,0.40397 -0.29557,0.44587 0.19531,0.26171 0.32239,-0.12092 2.02179,-0.21875 3.77734,-0.21875 h 3.19141 l -0.49805,-0.71093 c -0.43874,-0.62633 -0.49804,-3.24227 -0.49804,-21.91992 V 86.400391 h 2.50976 c 1.38003,0 3.2087,0.211204 4.06446,0.46875 0.85573,0.257542 1.58684,0.435987 1.62304,0.398437 0.0362,-0.03755 -0.0145,-1.327193 -0.11133,-2.867187 l -0.17578,-2.800782 -4.99414,-0.06641 c -2.74716,-0.03684 -7.66004,-0.07288 -10.91601,-0.08008 z m 62.73242,3.115234 c -0.0497,-0.03881 -0.084,0.290769 -0.084,0.884766 0,0.791997 0.0624,1.116703 0.13867,0.720703 0.0763,-0.395997 0.0763,-1.043453 0,-1.439453 -0.0191,-0.099 -0.0381,-0.15308 -0.0547,-0.166016 z m -77.23633,0.792969 c 0.63122,0.0539 1.17932,0.236664 1.55664,0.572266 1.8447,1.640755 1.81764,1.412723 1.66602,13.679687 -0.0767,6.20406 0.006,13.91266 0.18359,17.12891 0.19525,3.53454 0.20785,6.26004 0.0332,6.89257 -0.33392,1.20937 -1.96857,2.90574 -3.27539,3.39844 -1.03376,0.39007 -1.28932,0.38974 -2.65234,-0.006 -1.14229,-0.3314 -2.61299,-1.68779 -3.0918,-2.85351 -0.20475,-0.49847 -0.37869,-7.31304 -0.46289,-18.08008 -0.1338,-17.102561 -0.1279,-17.290931 0.53516,-18.341798 0.97785,-1.549778 3.61413,-2.552331 5.50781,-2.390625 z m -1.04688,0.732422 c -0.82902,0 -2.92668,1.078834 -3.50976,1.804688 -0.32141,0.400109 -0.13805,0.346028 0.61133,-0.179688 0.58807,-0.412552 1.70024,-0.821143 2.47265,-0.908203 1.36447,-0.153796 1.69892,-0.716797 0.42578,-0.716797 z m 1.41602,0.109375 c -0.11625,0.116254 -0.007,0.212144 0.24219,0.214844 0.37323,0.004 0.36792,0.06099 -0.0274,0.316406 -0.32,0.206799 -0.34671,0.311153 -0.0801,0.314453 0.73066,0.009 0.8775,0.08598 1.29882,0.6875 0.5297,0.756251 0.82109,0.779145 0.42188,0.0332 -0.44136,-0.824681 -1.61048,-1.811389 -1.85547,-1.566406 z m 123.97461,0.533203 c -0.75892,0.0034 -2.77745,0.662385 -2.9668,0.96875 -0.11735,0.189874 0.13172,0.185479 0.65039,-0.01172 0.46152,-0.175467 1.26081,-0.320312 1.77735,-0.320312 0.51654,0 0.93945,-0.144313 0.93945,-0.320313 0,-0.175997 -0.18039,-0.317387 -0.40039,-0.316405 z M 54.570312,86.855469 c -0.760081,0.01 -1.974784,0.458935 -2.423828,1 -0.328993,0.396412 -0.218571,0.394786 0.763672,-0.01563 0.631928,-0.264036 1.470429,-0.480469 1.863281,-0.480469 0.522574,0 0.618761,-0.09413 0.359375,-0.353516 -0.107177,-0.107179 -0.309138,-0.153712 -0.5625,-0.15039 z m 179.447268,0.21875 c -0.0631,0.03465 -0.0977,0.102988 -0.0977,0.208984 0,0.134266 0.32473,0.405438 0.7207,0.601563 1.14545,0.567301 1.42366,0.468406 0.60352,-0.214844 -0.58644,-0.488547 -1.03729,-0.69965 -1.22656,-0.595703 z m -94.41211,0.06445 c -0.31135,0.08113 -0.13347,0.151703 0.39453,0.158203 0.52799,0.0065 0.78306,-0.05883 0.56641,-0.146484 -0.21665,-0.08766 -0.64959,-0.09285 -0.96094,-0.01172 z m -9.10547,0.002 c -0.25528,0.102153 -0.17942,0.178009 0.19336,0.193359 0.3373,0.0139 0.52625,-0.06163 0.41992,-0.167968 -0.10633,-0.10633 -0.38228,-0.117831 -0.61328,-0.02539 z m -73.421875,0.05273 c -0.208944,-0.06777 -0.394071,-0.0083 -0.642578,0.146485 -0.524134,0.326525 -0.49794,0.345216 0.205078,0.15625 0.44,-0.118267 0.693717,-0.103256 0.564453,0.0332 -0.129264,0.136462 0.01505,0.436164 0.320313,0.667969 0.975482,0.740739 1.209851,0.471572 0.34375,-0.394532 -0.348444,-0.348441 -0.582072,-0.541602 -0.791016,-0.609375 z m 51.001955,0.673828 c -1.0895,-0.08546 -2.32251,0.412856 -3.24805,1.378907 l -0.89844,0.9375 0.13282,16.587886 c 0.14439,18.06278 0.1265,17.89004 1.97656,18.80274 1.58198,0.78044 2.63149,0.62881 3.93359,-0.56445 1.07508,-0.98527 1.16549,-1.2054 1.14649,-2.79883 -0.0113,-0.9516 -0.0795,-8.57167 -0.15235,-16.93164 -0.0967,-11.09243 -0.23798,-15.393004 -0.52148,-15.916019 -0.21367,-0.394176 -0.81809,-0.93911 -1.34375,-1.210937 -0.31427,-0.162512 -0.66223,-0.256672 -1.02539,-0.285157 z m -56.703127,4.490235 c -0.0478,-0.04744 -0.08203,0.356034 -0.08203,1.082031 0,0.967997 0.06145,1.364859 0.134765,0.880859 0.07332,-0.483997 0.07332,-1.275768 0,-1.759765 -0.01833,-0.121 -0.0368,-0.187313 -0.05273,-0.203125 z M 208.41016,108.28125 c -0.0336,0.0336 -0.0568,0.14564 -0.0645,0.33203 -0.0139,0.3373 0.0616,0.52625 0.16797,0.41992 0.1064,-0.10634 0.11778,-0.38228 0.0254,-0.61328 -0.0511,-0.12763 -0.0953,-0.17231 -0.1289,-0.13867 z M 98.630859,127.67969 c -0.273278,0 1.306723,1.95272 1.937501,2.39453 1.18278,0.82846 1.06108,0.54204 -0.4082,-0.95508 -0.7773,-0.792 -1.465961,-1.43945 -1.529301,-1.43945 z m -53.511718,2.75586 c 0,0.176 0.414801,0.97389 0.921875,1.77343 0.925643,1.45959 2.202524,2.56699 3.605468,3.12891 1.129386,0.45235 1.431552,0.40037 0.734375,-0.12695 -0.341636,-0.2584 -0.750769,-0.47447 -0.910156,-0.48047 -0.643915,-0.0226 -2.553098,-1.7813 -3.423828,-3.1543 -0.509486,-0.80338 -0.927734,-1.31662 -0.927734,-1.14062 z m 171.333979,0.69336 c 0.025,-0.12971 0.0589,-0.087 0.0957,0.15625 0.0739,0.48642 0.0722,1.20603 -0.004,1.59961 -0.0759,0.39358 -0.13481,-0.005 -0.13281,-0.88477 0.001,-0.44 0.016,-0.74139 0.041,-0.87109 z m -111.87304,0.8125 c -0.25528,0.10213 -0.17942,0.17796 0.19336,0.19336 0.3373,0.0139 0.52625,-0.0616 0.41992,-0.16797 -0.10633,-0.1064 -0.38228,-0.11778 -0.61328,-0.0254 z m 5.11914,0 c -0.25528,0.10213 -0.17942,0.17796 0.19336,0.19336 0.3373,0.0139 0.52625,-0.0616 0.41992,-0.16797 -0.10633,-0.1064 -0.38228,-0.11778 -0.61328,-0.0254 z m -38.521486,7.89257 c 0.581833,0.0591 1.078222,0.37485 1.638672,0.49805 0.652313,0.90535 8.457527,12.40087 9.212891,13.45703 0.891927,1.24708 3.084711,3.40344 6.255859,6.15235 7.353863,6.3747 13.111854,10.06436 21.521484,13.79101 4.32685,1.9174 11.2911,4.5967 15.01758,5.14063 6.76307,0.98716 13.50542,2.17105 19.99609,1.98437 7.25192,-0.20857 12.539,0.21296 21.72461,-2.4082 7.31266,-1.91327 16.65031,-5.7917 22.74024,-9.44727 6.35659,-3.81561 12.47878,-9.07074 16.89257,-14.5 2.58437,-3.17891 5.54516,-7.57204 6.75782,-10.02539 1.05308,-2.13053 1.47762,-2.44893 2.92187,-2.18945 1.85441,0.33317 1.37772,1.90013 -2.5664,8.4375 -2.75522,4.56676 -8.06284,10.52417 -13.78516,15.4707 -6.50475,5.62291 -17.3131,11.14208 -25.99805,13.87696 -8.31506,2.61837 -15.25432,3.63951 -22.85742,3.66601 -7.25562,0.0253 -15.11927,-0.0978 -24.61719,-1.56641 -1.44913,-0.23964 -12.93048,-2.57467 -17.71484,-5.21093 -3.35026,-1.84605 -9.927658,-4.96957 -13.562501,-7.38477 -4.988215,-3.31444 -11.899507,-9.28382 -14.072265,-11.37305 -4.009216,-3.85506 -10.236261,-12.90911 -11.65625,-17.33007 0.901632,-0.90034 1.56856,-1.09813 2.15039,-1.03907 z m 110.582036,0.95704 c 2.6334,0 5.26796,0.13319 5.5371,0.40234 0.21118,0.2112 0.38282,0.97997 0.38282,1.70703 0,1.94279 -0.68408,2.20761 -4.9336,1.91797 l -3.38672,-0.23047 v 1.15039 1.15234 h 3.08594 c 2.56255,0 3.15663,0.0934 3.50977,0.5586 -0.0124,-0.0401 0.38761,0.99552 0.27076,1.39268 -0.0149,0.0506 -0.19147,1.07535 -0.49036,1.24892 -0.57169,0.33199 -0.7124,0.63965 -3.52259,0.63965 -2.45262,0 -2.5332,0.0234 -2.5332,0.75781 0,0.7163 0.14381,0.77195 2.55664,0.98242 1.40558,0.1226 2.704,0.13048 2.88672,0.0176 0.18272,-0.11275 0.76145,-0.11121 1.28515,0.004 0.8717,0.19146 0.95127,0.32118 0.94727,1.54297 -0.003,0.73401 -0.14207,1.55045 -0.3086,1.81445 -0.41234,0.65359 -10.1845,0.90263 -10.80664,0.27539 -0.55902,-0.5636 -0.57346,-14.37382 -0.0156,-14.93164 0.26914,-0.26915 2.90173,-0.40234 5.53516,-0.40234 z m -37.32422,0.0195 c 2.19659,0.001 3.40108,0.47927 5.12695,2.0332 1.88326,1.69564 2.86453,5.95944 1.93945,8.42578 -0.60686,1.61795 -1.99216,3.32614 -3.32031,4.0957 -3.26805,1.89365 -7.59609,0.86674 -9.90234,-2.34765 -0.94677,-1.31961 -1,-1.54416 -1,-4.3711 0,-2.80059 0.0592,-3.06552 0.9707,-4.36914 0.53357,-0.76316 1.66533,-1.85573 2.51562,-2.42773 1.35886,-0.91409 1.80323,-1.04006 3.66993,-1.03906 z m 16.90039,0.0156 c 1.59809,0.008 3.30582,0.12118 4.07226,0.33399 0.68709,0.19077 1.89343,0.95645 2.68164,1.70117 1.24956,1.18063 1.45207,1.55912 1.58789,2.97265 0.19793,2.0599 -0.34079,3.69736 -1.55468,4.71875 -1.06885,0.89937 -1.03295,1.06716 0.72656,3.4961 1.02126,1.4098 1.15756,2.27734 0.4043,2.5664 -0.2784,0.10681 -0.60311,0.17555 -0.72071,0.15235 -0.11761,-0.0232 -0.71798,-0.13141 -1.33398,-0.24024 -0.89383,-0.15792 -1.33207,-0.51998 -2.17383,-1.79687 -1.60318,-2.4319 -1.90548,-2.72023 -2.86133,-2.7207 -0.87109,-4.3e-4 -0.88215,0.0224 -0.77344,1.76953 0.0671,1.07761 -0.33339,2.44108 -0.57031,2.72656 -0.51844,0.62479 -2.20077,0.60924 -2.7207,0.0547 -0.62383,-0.66539 -0.82639,-15.02937 -0.17774,-15.43946 0.32769,-0.20717 1.81597,-0.30314 3.41407,-0.29492 z m -51.41797,0.0176 c 1.22719,-0.0889 2.55399,0.18155 3.86523,0.8457 2.05968,1.04325 2.30642,1.78355 1.08399,3.23633 -0.98491,1.1705 -1.50234,1.24176 -2.61914,0.36328 -1.21501,-0.95572 -3.60742,-0.75081 -3.60742,0.3086 0,0.41798 0.68321,0.75864 2.79882,1.39453 3.21088,0.96508 4.04026,1.46198 4.75782,2.84961 1.13825,2.20115 -0.0913,5.05648 -3.07618,6.42773 -1.32012,0.60645 -2.23942,0.71802 -3.37695,0.59375 -0.68317,-0.0746 -1.33142,-0.49455 -1.59766,-0.63281 -1.40927,-0.73182 -3.98632,-2.4292 -3.98632,-3.23633 0,-0.61215 0.68184,-1.31463 1.87304,-1.93164 0.66295,-0.34338 0.86024,-0.28574 1.66407,0.48437 1.26683,1.2137 3.90221,1.50924 4.44336,0.49805 0.3188,-0.59569 0.26079,-0.72069 -0.46875,-0.99805 -0.45854,-0.17433 -1.07651,-0.31626 -1.37305,-0.3164 -0.96176,-4.5e-4 -4.4772,-1.84957 -4.97266,-2.61524 -0.9062,-1.40039 -0.95594,-2.39738 -0.19336,-3.97265 0.96874,-2.00115 2.73985,-3.1506 4.78516,-3.29883 z m 11.04297,0.12695 6.07812,0.0234 6.08008,0.0254 v 1.89453 1.89649 l -2,0.0937 -2,0.0957 v 5.55078 c 0,4.76612 -0.0712,5.57735 -0.50586,5.74414 -0.74348,0.2853 -2.7848,0.22888 -3.29101,-0.0918 -0.35842,-0.22702 -0.39524,-1.2763 -0.20313,-5.75585 l 0.23438,-5.47657 -1.87696,-0.006 c -2.53227,-0.007 -2.73386,-0.18133 -2.61523,-2.26562 z m -49.496096,0.97461 c -0.217609,-0.071 -0.427702,0.003 -0.419922,0.85352 3.303472,5.31501 7.121595,10.68866 11.320312,15.45703 2.497909,2.87426 9.494279,8.29796 15.121094,11.77539 6.668942,4.12146 11.708332,6.41332 19.201172,8.73047 3.47392,1.07431 9.49115,2.48391 10.30894,2.48543 0.26912,5e-4 8.33582,1.02928 12.97781,1.2699 13.07711,0.67787 10.27454,-0.63664 9.2978,-0.62383 -9.43028,0.12367 -23.52836,-1.65473 -24.5865,-1.93814 -0.74007,-0.10885 -3.68859,-0.91209 -6.55274,-1.78711 -11.81987,-3.61107 -19.724572,-8.13103 -30.095701,-16.78516 -5.935988,-4.95324 -13.028927,-14.24953 -16.111328,-19.42578 -0.01851,0.2752 -0.243328,0.0592 -0.460937,-0.0117 z m 72.988276,0.0606 c -1.64054,0.0154 -2.19227,0.1725 -3.28906,0.94336 -2.35865,1.65771 -3.49056,4.7539 -2.75,7.52344 0.49444,1.84911 2.66282,3.94087 4.52735,4.36718 0.75773,0.17319 1.66753,0.2581 2.01953,0.1875 0.352,-0.0706 0.96192,-0.13081 1.35742,-0.13281 0.9258,-0.006 3.25325,-2.10239 3.81055,-3.43359 0.23709,-0.56635 0.43164,-1.87619 0.43164,-2.91016 0,-2.37694 -0.98219,-4.34358 -2.8125,-5.63281 -1.12591,-0.79306 -1.61663,-0.92791 -3.29493,-0.91211 z m -33.93749,0.0644 c -1.01829,0.0101 -2.02544,0.25794 -2.73438,0.74024 -1.09395,0.74423 -2.02148,2.27986 -2.02148,3.34765 0,1.33064 1.87919,2.61834 4.80078,3.29102 2.56132,0.58973 2.8789,0.81829 2.8789,2.06836 0,2.64869 -3.81761,3.3119 -6.26562,1.08789 -0.65316,-0.59366 -0.67706,-0.59474 -1.21875,0.004 -0.52867,0.58416 -0.50707,0.64167 0.4707,1.3379 0.56177,0.40002 1.54151,0.91326 2.17774,1.14062 0.6362,0.22737 1.62996,0.41976 2.20898,0.42773 1.45328,0.0194 3.47623,-1.08293 4.06055,-2.21289 1.25859,-2.4338 0.11359,-4.03997 -3.625,-5.08398 -3.08508,-0.86152 -3.88868,-1.40341 -3.88867,-2.62109 0,-0.73665 0.24074,-1.10387 1.04101,-1.5918 1.30903,-0.79812 2.6497,-0.80642 4.17774,-0.0273 1.15151,0.58704 1.20448,0.58849 1.50585,0.0254 0.25596,-0.47825 0.11797,-0.70316 -0.76367,-1.24805 -0.75676,-0.46769 -1.78638,-0.69569 -2.80468,-0.68555 z m 11.24414,0.004 v 0.79297 c 0,0.75672 0.0998,0.79847 2.16015,0.88867 l 2.16016,0.0937 0.0879,5.67969 0.0859,5.68164 h 0.99414 0.99218 L 128.11914,149.5293 128,143.84961 l 2.17969,-0.0937 c 2.0408,-0.089 2.17398,-0.14095 2.08008,-0.80078 -0.0981,-0.68931 -0.21397,-0.70697 -5.29883,-0.79297 z m 36.80078,0.0156 v 6.56055 l 0.24218,6.85156 0.98047,0.24219 c 0.72497,0.17976 0.35141,-0.63912 0.44141,-2.69336 l 0.0957,-2.16016 1.38672,-0.0996 c 1.77914,-0.12797 2.54409,0.38575 3.89649,2.61718 0.38518,1.11652 1.3955,1.74799 1.57617,1.91211 0.51621,0.73126 1.36481,0.26664 0.37695,-1.02344 -1.71341,-2.23759 -2.00975,-3.94345 -0.65625,-4.37304 1.52444,-0.48384 2.17659,-3.99768 1.0293,-5.54688 -1.40018,-1.89062 -2.45128,-2.28711 -6.05664,-2.28711 z m 18.55859,0 v 6.56836 6.57032 l 4.56055,-0.0899 c 4.45442,-0.0867 4.56221,-0.10525 4.66211,-0.80859 0.10097,-0.711 0.0567,-0.72071 -3.58008,-0.72071 -2.17195,0 -3.7671,-0.13458 -3.88672,-0.32812 -0.11157,-0.18053 -0.28341,-1.11661 -0.38281,-2.08008 -0.20771,-2.0125 -0.50529,-1.86351 3.50781,-1.75976 2.65422,0.0686 2.80078,0.0375 2.80078,-0.59961 0,-0.63551 -0.16567,-0.67188 -3.0293,-0.67188 -3.54142,0 -3.78671,-0.20052 -3.62695,-2.96875 l 0.0957,-1.67187 3.91993,0.0879 3.91992,0.0859 v -0.80664 -0.80664 h -4.48047 z m 38.33398,1.06055 c -0.39628,0.0708 -0.99669,0.91848 -2.04882,2.81641 -6.22812,11.23488 -14.91929,19.47657 -28.48828,27.01562 -2.65261,1.47382 -6.89016,3.02241 -8.80469,3.75977 -5.69657,2.19396 -12.64833,3.97482 -18.92969,4.66211 -1.33791,0.14639 -9.76519,0.0114 -9.88477,0.8789 -0.14389,1.04389 11.43693,0.16938 15.5586,-0.65234 12.84794,-2.56143 26.28568,-8.24055 35.7207,-16.27344 6.0605,-5.15983 9.648,-8.98431 12.95508,-13.9375 1.67293,-2.50564 4.46119,-7.80224 4.25977,-8.0918 -0.0963,-0.1384 -0.20579,-0.20134 -0.3379,-0.17773 z m -71.17968,0.37891 c 2.94888,0 4.82422,2.01362 4.82422,5.17968 0,2.06091 -0.71483,3.1647 -2.70508,4.18164 -1.92556,0.98391 -2.46105,0.9288 -4.5293,-0.46289 -2.54316,-1.71123 -2.80861,-5.18899 -0.58008,-7.57812 1.15437,-1.23749 1.34089,-1.32031 2.99024,-1.32031 z m 15.5664,0.0976 2.90821,0.11133 c 2.72478,0.1048 2.95624,0.16846 3.67968,1.00977 2.28493,0.88668 -0.36348,5.58525 -0.93479,4.27414 -0.52631,0.48729 -5.31325,0.31728 -5.44021,-0.10622 -0.0477,-0.15894 -0.21289,-1.35578 -0.21289,-2.75196 z m -15.49023,1.02344 c -1.25461,0 -3.20998,1.413 -2.9375,2.12305 0.0921,0.2402 0.064,0.4356 -0.0625,0.43554 -0.12645,-6e-5 -0.21723,0.64854 -0.20313,1.44141 0.0268,1.51173 0.77065,3.37695 2.21289,3.37695 1.55393,0 3.79875,-0.41626 4.36133,-1.875 0.91972,-2.38476 -0.99005,-5.50195 -3.37109,-5.50195 z m 18.39062,0.32031 c -1.80085,0 -1.93954,0.0507 -1.93554,0.71875 0.008,1.33696 0.37757,2.12439 1.06836,2.27539 0.79257,0.17323 3.31992,-0.0228 3.7539,-0.29101 0.16141,-0.0998 0.29297,-0.59991 0.29297,-1.11133 0,-1.21851 -0.7471,-1.5918 -3.17969,-1.5918 z"
     style="display:inline;fill:#372520;fill-opacity:1"
     id="path148" />
</svg>
