<?xml version="1.0" encoding="UTF-8" standalone="no"?>
<!-- Created with Inkscape (http://www.inkscape.org/) -->

<svg
   viewBox="0 0 123.22019 30.57387"
   version="1.1"
   id="svg1"
   xmlns:inkscape="http://www.inkscape.org/namespaces/inkscape"
   xmlns:sodipodi="http://sodipodi.sourceforge.net/DTD/sodipodi-0.dtd"
   xmlns="http://www.w3.org/2000/svg"
   xmlns:svg="http://www.w3.org/2000/svg">
  <sodipodi:namedview
     id="namedview1"
     pagecolor="#ffffff"
     bordercolor="#000000"
     borderopacity="0.25"
     inkscape:showpageshadow="2"
     inkscape:pageopacity="0.0"
     inkscape:pagecheckerboard="0"
     inkscape:deskcolor="#d1d1d1"
     inkscape:document-units="mm" />
  <defs
     id="defs1" />
  <g
     inkscape:label="Lag 1"
     id="layer1"
     inkscape:groupmode="layer"
     transform="translate(-26.200019,-99.650205)">
    <path
       d="m 112.79275,99.759797 c -2.597,0.02 -3.11858,0.0741 -4.2237,0.439833 -1.55811,0.51563 -3.2975,1.57543 -3.89596,2.37306 -1.23017,1.63962 -1.2519,1.84538 -1.28326,12.4759 -0.0297,9.83888 -0.0208,10.01384 0.51239,10.97114 1.1663,2.09495 2.8333,3.22456 5.67619,3.84782 1.75204,0.38411 3.09149,0.42755 4.96535,0.16041 0.73476,-0.10474 1.73349,-0.32329 2.2188,-0.48537 0.48527,-0.16202 1.05219,-0.25656 1.26017,-0.21008 0.20784,0.0465 0.30435,0.0306 0.21379,-0.0352 -0.0905,-0.0659 0.33653,-0.43039 0.94936,-0.81034 1.30515,-0.80917 2.46115,-2.33748 2.84966,-3.76813 0.39569,-1.45699 0.3643,-6.31008 -0.0413,-6.41338 -0.17329,-0.0441 -1.61981,-0.0336 -3.21432,0.0238 l -2.8989,0.10454 -0.12622,3.19271 -0.19081,2.22402 -0.87709,0.77433 c -1.24142,0.7646 -2.14976,0.54867 -3.16695,-0.14556 l -0.74928,-0.9844 -0.35057,-8.42359 c 0.0208,-5.48587 0.25212,-8.45861 0.35695,-8.57841 0.10482,-0.11976 1.08929,-1.38271 1.55676,-1.54348 1.41785,-0.48764 2.01492,-0.24064 2.56131,0.7056 0.14258,0.24705 0.57122,1.21798 0.55663,2.3946 -0.0178,1.54069 -0.0676,2.05661 0.16175,2.17559 0.17508,0.0909 2.07492,0.094 3.66945,0.0854 l 2.90042,-0.016 v -3.13682 c 0,-3.53833 -0.18907,-4.04234 -2.01567,-5.40226 -0.97348,-0.72473 -3.28988,-1.71901 -4.00366,-1.71901 -0.2257,0 -0.40929,-0.0677 -0.40929,-0.150003 0,-0.0823 -1.3328,-0.13958 -2.96197,-0.12737 z"
       style="display:inline;fill:#372520;fill-opacity:1;stroke-width:0.647387"
       id="path1"
       sodipodi:nodetypes="cssccsscccsssccccccccsscccccsssscc" />
    <path
       d="m 136.68433,99.681008 c -3.8887,0.2817 -7.25606,2.467222 -9.0979,6.271962 -1.44987,2.995 -1.3553,4.89057 0.36763,7.5531 0.94202,1.45573 7.62583,4.97143 9.4544,4.9723 0.56381,2.8e-4 1.73873,0.27018 2.61055,0.60145 1.38699,0.52746 1.49731,0.76501 0.89119,1.8976 -1.02884,1.92251 -6.03947,1.36064 -8.44803,-0.9469 -1.52829,-1.4642 -1.90339,-1.57379 -3.16384,-0.92095 -2.26481,1.1731 -3.56116,2.50867 -3.56116,3.67258 0,1.53454 4.89971,4.76175 7.57907,6.15314 0.50618,0.26301 1.73871,1.0613 3.03761,1.20315 2.16274,0.23642 3.91063,0.0216 6.42049,-1.12891 5.67508,-2.60712 8.01275,-8.03592 5.84866,-12.22086 -1.36427,-2.63825 -2.94116,-3.58297 -9.04592,-5.4179 -4.0223,-1.20895 -5.32133,-1.8567 -5.32133,-2.65138 1e-5,-2.01421 4.54863,-2.40384 6.85871,-0.58637 2.12333,1.67021 3.10713,1.53477 4.97969,-0.69057 2.32419,-2.76211 1.85506,-4.16963 -2.06095,-6.15315 -2.49303,-1.26271 -5.01565,-1.776862 -7.34886,-1.607852 z"
       style="display:inline;fill:#372520;fill-opacity:1;stroke-width:1.90508"
       id="path1-5"
       sodipodi:nodetypes="cssscsscscccsssccscc" />
  </g>
  <g
     inkscape:groupmode="layer"
     id="layer2"
     inkscape:label="Lag 2"
     transform="translate(-26.200019,-99.650205)">
    <path
       d="m 77.50267,100.98587 -0.18135,3.1475 c -0.21604,3.7954 0.15114,4.1129 4.76222,4.12562 l 3.41786,0.0134 -0.42678,9.97258 c -0.34984,8.15697 -0.28279,10.06779 0.36992,10.48114 0.92179,0.58363 4.63894,0.68686 5.99278,0.16724 0.7915,-0.30352 0.92115,-1.78094 0.92115,-10.45987 v -10.10789 l 3.64191,-0.17413 3.64192,-0.17068 v -3.45342 -3.44985 l -11.07156,-0.0482 z"
       style="display:inline;fill:#372520;fill-opacity:1;stroke-width:1.8246"
       id="path1-0" />
    <path
       d="m 51.797333,100.88927 c -1.303669,0.007 -2.099831,0.36971 -3.20504,1.4593 -0.650499,0.64129 -0.832318,0.93059 -1.073135,1.71026 -0.484082,1.56725 -0.405364,1.78008 0.712325,1.92572 0.955359,0.12449 1.306057,-0.0557 1.495628,-0.76809 0.27894,-1.0483 1.274851,-2.04615 2.043183,-2.0474 0.88057,-0.002 1.68742,0.89859 1.688285,1.88263 4.33e-4,0.66798 -0.483945,1.41867 -1.366345,2.11754 -0.314521,0.2491 -0.611558,0.61933 -0.659936,0.82217 -0.04838,0.20284 -0.150188,0.44675 -0.225613,0.54248 -0.127901,0.16233 -0.03574,1.89703 0.122522,2.30936 0.04475,0.11659 -0.292266,0.24057 -1.06553,0.39291 -2.132609,0.42016 -3.112927,1.16578 -4.529137,3.44417 -1.30945,2.10661 -2.330218,2.86477 -7.088609,5.26174 -1.86547,0.93974 -3.952847,1.96847 -4.638139,2.2857 -1.784491,0.82611 -2.39104,1.32995 -2.503701,2.08121 -0.04936,0.32922 -0.14216,0.63051 -0.206177,0.67009 -0.162141,0.10023 -0.589216,-0.58644 -0.503616,-0.80951 0.04958,-0.12918 -0.08964,-0.1918 -0.476572,-0.21463 -1.559866,-0.0921 -3.911574,2.44112 -4.101573,4.41844 -0.10537,1.09667 0.289894,1.31416 1.643502,0.9033 0.50193,-0.1524 1.069987,-0.16872 2.699736,-0.0777 2.396983,0.13375 10.293229,0.10955 11.431005,-0.0211 h 21.962089 c 3.29187,0.0703 8.862909,0.008 9.585549,-0.17915 0.711329,-0.18483 0.826085,-0.17635 1.913901,0.13849 0.636701,0.18433 1.243191,0.33547 1.346911,0.33547 0.103733,0 0.283509,-0.18348 0.39968,-0.40813 0.237681,-0.45963 0.283937,-1.0381 0.07266,-0.90751 -0.07775,0.0481 -0.138579,-0.0616 -0.138579,-0.25014 0,-0.55776 -0.939824,-2.26396 -1.520982,-2.7614 -0.720782,-0.61698 -1.709233,-1.09574 -2.431031,-1.17707 -0.550916,-0.0622 -0.607522,-0.0369 -0.815415,0.36503 -0.122865,0.23757 -0.322715,0.43178 -0.443619,0.43178 -0.181282,0 -0.203633,-0.10612 -0.12844,-0.60754 0.08173,-0.54501 0.05401,-0.63779 -0.269554,-0.8923 -0.198548,-0.15616 -0.591241,-0.35776 -0.872025,-0.44785 -0.599645,-0.1924 -5.907913,-2.82962 -7.789948,-3.87005 -2.959175,-1.63592 -3.999834,-2.55138 -5.206821,-4.58237 -0.366033,-0.61597 -0.871407,-1.36107 -1.122988,-1.65533 -0.537309,-0.6285 -2.169859,-1.48251 -3.1028,-1.62323 l -0.637966,-0.0963 0.177448,-0.51375 c 0.09757,-0.28257 0.146805,-0.67191 0.10985,-0.86527 -0.05638,-0.29489 0.110406,-0.52463 1.03257,-1.42465 1.235798,-1.2061 1.588828,-1.82943 1.673927,-2.95746 0.125531,-1.66384 -0.741958,-3.26115 -2.143736,-3.94947 -0.673653,-0.33079 -0.975313,-0.39482 -1.843766,-0.39039 z m 1.56999,2.54088 h 0.02366 v 0.027 c -0.0078,-0.009 -0.0157,-0.0181 -0.02366,-0.027 z m 3.660486,10.91304 c 0.0034,0.006 0.0075,0.0114 0.01095,0.0169 h -0.01095 z m -5.457777,2.25442 c 0.03859,0 0.868555,0.42698 1.844609,0.94892 0.976075,0.52196 2.366758,1.26077 3.090124,1.64181 3.941001,2.07599 6.250734,3.32577 8.237787,4.45816 1.218272,0.6943 3.412009,1.86569 4.875588,2.60256 1.46355,0.7369 2.647276,1.34335 2.630444,1.34775 -0.01682,0.004 -1.712818,-0.0269 -3.768644,-0.0693 -2.46977,-0.051 -4.15452,-0.0499 -5.254142,0.0114 H 41.718311 c -0.554378,-0.0689 -1.842831,-0.0736 -5.131611,-0.0736 h -5.402859 l 1.259877,-0.58894 c 0.692852,-0.32383 1.34178,-0.68643 1.472816,-0.76135 l 1.030041,-0.58895 c 0.391439,-0.22383 1.551959,-0.84794 2.565386,-1.41114 1.013428,-0.56323 2.602151,-1.40278 3.530359,-1.86572 0.928233,-0.463 1.843531,-0.95039 2.03389,-1.08329 0.340228,-0.23755 1.19886,-0.69834 4.775873,-2.56115 0.989867,-0.5155 2.216021,-1.17781 2.724241,-1.47197 0.508218,-0.29418 0.955117,-0.53487 0.993708,-0.53487 z m 7.496735,0.45291 c 0.0078,0.006 0.01586,0.0147 0.02366,0.0211 h -0.02366 z"
       style="display:inline;fill:#372520;fill-opacity:1;stroke-width:0.433499"
       id="path1-4" />
  </g>
</svg>
