<?xml version="1.0" encoding="UTF-8" standalone="no"?>
<!-- Created with Inkscape (http://www.inkscape.org/) -->

<svg
   version="1.1"
   id="svg1"
   width="118.35758"
   height="84.337379"
   viewBox="0 0 118.35758 84.337378"
   xmlns="http://www.w3.org/2000/svg"
   xmlns:svg="http://www.w3.org/2000/svg">
  <defs
     id="defs1">
    <linearGradient
       id="swatch23">
      <stop
         style="stop-color:#000000;stop-opacity:1;"
         offset="0"
         id="stop23" />
    </linearGradient>
  </defs>
  <path
     id="path2"
     style="fill:#372520;fill-opacity:1;stroke-width:1.73905"
     d="M 59.0723,7.8549455e-4 C 56.05898,0.02051549 54.22,0.86241749 51.66903,3.3846535 c -1.50141,1.4845 -1.9207,2.153801 -2.4747,3.956745 -0.23389,0.761228 -0.39579,1.35749 -0.50508,1.86988 a 38.259058,38.259058 0 0 1 1.26905,-0.333885 c 0.10819,-0.397128 0.28044,-0.888907 0.51925,-1.530058 0.83789,-2.24945 1.94318,-3.51814 4.31504,-4.951623 1.69113,-1.02208 2.07367,-1.123061 4.26985,-1.119521 1.84017,0.003 2.71724,0.166252 3.69437,0.68601 2.62216,1.394809 3.99375,3.593194 4.25017,6.796532 a 38.259058,38.259058 0 0 1 1.29729,0.294979 c -0.0866,-3.485375 -1.99962,-6.704169 -4.96893,-8.15681001 -1.55822,-0.762303 -2.2557,-0.90929 -4.26304,-0.89611699545 z M 68.30427,9.0537125 c 0.008,0.320617 0.0239,0.640805 -0.001,0.9648515 -0.16208,2.191026 -0.84249,3.6033 -2.72223,5.640702 a 31.302867,31.302867 0 0 1 16.37522,9.501476 l -7.47852,0.01093 a 3.6520011,3.6520011 0 0 0 -3.64801,2.962365 3.4780962,3.4780962 0 0 0 0.0177,0.249982 c 0.58393,0.817868 1.2404,1.792244 1.8087,2.745407 0.1604,0.269 0.31891,0.502321 0.47767,0.755163 a 3.4780962,3.4780962 0 0 0 1.18005,0.244369 l 15.65231,-0.02287 A 3.4780962,3.4780962 0 0 0 93.4396,28.622494 L 93.417,13.143994 A 3.6520011,3.6520011 0 0 0 90.45464,9.4959765 3.4780962,3.4780962 0 0 0 86.45972,12.980332 l 0.01,6.783195 A 38.259058,38.259058 0 0 0 68.30427,9.0537125 Z m 4.83025,22.8308585 a 3.4780962,3.4780962 0 0 1 -2.28637,-3.50057 C 70.56059,27.98125 70.24776,27.531185 70.05555,27.307034 68.81149,25.856132 65.0351,23.887671 62.87822,23.565562 L 61.40328,23.34506 61.8117,22.156963 c 0.22455,-0.653467 0.33704,-1.553589 0.25099,-2.000368 -0.1313,-0.681443 0.25337,-1.212992 2.3819,-3.296453 0.45572,-0.446074 0.77948,-0.81347 1.13693,-1.200881 A 31.302867,31.302867 0 0 0 64.38963,15.34069 c -0.72854,0.727558 -1.62873,1.49987 -2.72897,2.361412 -0.65909,0.516087 -0.82613,0.978671 -0.95707,2.655698 -0.14288,1.831022 -0.23096,2.039095 -0.90899,2.136095 -0.74975,0.107252 -0.75197,0.10102 -0.64484,-2.901405 l 0.10691,-3.009925 1.71838,-1.594309 a 31.302867,31.302867 0 0 0 -1.55882,-0.150067 c -0.57862,0.541851 -1.07143,1.190424 -1.1637,1.579828 -0.11113,0.469013 -0.34565,1.033131 -0.51966,1.254666 -0.29508,0.375645 -0.0762,4.384927 0.29102,5.337471 0.10384,0.269426 -0.67473,0.557064 -2.46157,0.911802 -4.92792,0.978341 -7.19129,2.705099 -10.45709,7.976223 -3.01957,4.87367 -5.37639,6.62951 -16.36699,12.18604 -1.08388,0.54798 -1.60629,0.78749 -2.69532,1.33207 a 3.4780962,3.4780962 0 0 1 -0.8529,0.42311 c -2.8335,1.4122 -6.10611,3.05173 -7.16474,3.54368 -4.12192,1.91549 -5.52221,3.08208 -5.78009,4.819 -0.11298,0.76113 -0.32646,1.45785 -0.47429,1.54951 -0.37444,0.23217 -1.36391,-1.35349 -1.1668,-1.86938 0.11415,-0.29881 -0.20785,-0.44303 -1.1022799,-0.4945 -3.60581,-0.20746 -9.03304999,5.65568 -9.46554099,10.22675 -0.23987,2.53525 0.674511,3.03658 3.80188099,2.08233 1.15965,-0.35383 2.47256,-0.39359 6.2399499,-0.18876 2.69463,0.14648 8.40569,0.19951 13.8538,0.18287 l -0.002,-1.4121 c -7.83885,0.0135 -13.21968,0.0114 -13.56254,-0.0153 l -2.5608499,-0.19939 1.43853,-0.64271 c 0.27412,-0.12233 6.3367899,-0.23186 14.7651499,-0.33019 a 3.4780962,3.4780962 0 0 1 0.64023,-1.6103 c -0.28217,0.001 -0.35047,-0.002 -0.64648,-7.6e-4 l -12.48829,0.0183 2.91012,-1.36559 c 1.60039,-0.75083 3.0991,-1.59111 3.40173,-1.76474 l 2.37888,-1.3648 c 0.90402,-0.51867 3.58436,-1.96511 5.92491,-3.27037 2.34056,-1.30529 6.00988,-3.25116 8.15384,-4.32442 2.14397,-1.07328 4.25796,-2.20294 4.69751,-2.51079 0.78567,-0.55023 2.76866,-1.61816 11.0304,-5.93603 2.28627,-1.19487 5.11819,-2.72987 6.2919,-3.41154 1.17372,-0.68168 2.20587,-1.23955 2.29507,-1.23968 0.0892,-4.7e-4 2.00904,0.98395 4.26687,2.18711 2.25787,1.20319 5.47483,2.90619 7.14811,3.78449 9.11638,4.7852 14.45926,7.66607 19.05606,10.27686 0.0275,0.0156 0.0775,0.0426 0.10555,0.0585 a 31.302867,31.302867 0 0 0 0.19766,-1.06474 c -0.18577,-0.0714 -0.56931,-0.30388 -1.3605,-0.77927 -0.75587,-0.45414 -1.30562,-0.89297 -1.22214,-0.97672 0.0259,-0.0261 0.0881,-0.0263 0.17772,-0.006 0.54093,0.12282 2.06245,0.98922 2.47081,1.40851 a 31.302867,31.302867 0 0 0 0.18795,-1.02567 c -6.68517,-3.58639 -14.26939,-7.69781 -18.17656,-9.88165 -5.03518,-2.81431 -11.96729,-6.222766 -12.65363,-6.221764 -0.51401,7.67e-4 -1.89934,0.745844 -7.98788,4.290974 -0.79132,0.46076 -3.09469,1.65937 -5.1172,2.66373 -2.02254,1.00437 -4.96525,2.59259 -6.53979,3.5291 -1.57454,0.93652 -3.37113,1.87182 -3.99305,2.07809 -0.62194,0.20626 -1.79427,0.78347 -2.6036,1.2831 -0.80931,0.49963 -2.04169,1.11062 -2.73826,1.35752 -0.69657,0.24692 -2.05618,0.95616 -3.02309,1.57668 -0.9669,0.62051 -2.2543,1.33979 -2.86095,1.59793 -0.60664,0.25815 -2.91527,1.5539 -5.12861,2.88055 -2.42717,1.45477 -4.56208,2.50502 -5.3809,2.64459 -0.78611,0.13399 -1.79548,0.61659 -2.39677,1.14607 -1.4098999,1.24158 -5.2721599,3.40553 -7.7475799,4.3414 l -2.03404,0.76859 -0.002,-0.83007 c -0.003,-1.29768 2.18883,-5.15822 3.63907,-6.41352 0.72056,-0.62369 1.9818,-1.47981 2.80192,-1.90059 l 1.49106,-0.76388 0.7051,1.35053 c 1.0747999,2.05928 1.5372999,2.23521 2.7280999,1.04094 0.52889,-0.53043 0.78347,-1.14516 0.7824,-1.88787 -0.002,-0.85124 0.24573,-1.31904 1.08292,-2.05627 1.0935,-0.96294 1.78291,-1.32537 7.86896,-4.14236 5.02715,-2.32684 14.60666,-7.38974 16.78588,-8.87219 3.14316,-2.13812 4.92995,-4.02347 7.36171,-7.766624 2.54339,-3.914979 3.87414,-5.156366 6.62379,-6.179606 1.78871,-0.66563 4.64257,-1.107041 6.9749,-1.143005 0.77746,-0.012 1.49734,0.02143 2.09976,0.106307 4.15801,0.585881 6.78,2.460429 9.17563,6.56082 2.94951,5.048458 4.47895,6.514148 10.64773,10.207108 2.00665,1.20128 5.67793,3.16089 9.4254,5.07021 a 3.4780962,3.4780962 0 0 1 1.7062,-0.55912 c -3.27412,-1.63605 -6.58455,-3.32399 -8.43799,-4.3451 -6.45283,-3.55505 -8.96366,-5.66323 -11.57297,-9.81904 z m 20.01095,14.164138 c 1.08994,0.54463 2.02788,1.01038 3.06081,1.51702 a 3.4780962,3.4780962 0 0 0 -2.91438,-1.5524 3.4780962,3.4780962 0 0 0 -0.14643,0.0355 z m 3.06081,1.51702 a 3.4780962,3.4780962 0 0 1 0.57671,1.70032 c 1.66653,0.80632 3.17966,1.51409 4.33108,2.01517 l 3.08789,1.34313 -0.16807,1.26198 c -0.13554,1.0219 -0.0264,1.41159 0.57329,2.04798 1.07123,1.13694 1.99822,1.01943 2.64211,-0.33589 0.64567,-1.35922 1.31652,-1.42574 3.61666,-0.3588 2.07027,0.9603 3.57504,2.46478 4.68457,4.68262 0.902,1.803 1.51191,4.4693 1.01824,4.45359 -0.15452,-0.005 -1.4347,-0.61782 -2.84379,-1.36108 -1.40909,-0.74326 -3.64203,-2.08208 -4.96334,-2.97517 -1.32125,-0.8931 -2.97834,-1.80835 -3.68266,-2.03368 -0.70433,-0.22535 -2.5055,-1.02299 -4.0026,-1.77346 -0.90919,-0.45575 -2.75633,-1.4252 -4.95496,-2.59041 a 38.259058,38.259058 0 0 1 -0.54723,2.43829 c 1.67558,0.88369 3.39395,1.78454 4.77514,2.47742 3.38539,1.6983 6.12348,3.0961 6.08459,3.10633 -0.0388,0.0105 -3.95907,-0.056 -8.71115,-0.14742 -1.60038,-0.0307 -2.74504,-0.0291 -4.07038,-0.0409 a 38.259058,38.259058 0 0 1 -0.54524,1.11409 c 0.2403,-0.002 2.01697,-0.0113 2.17576,-0.0126 l -1.4e-4,-0.0293 c 4.15696,0.0501 8.24413,0.18594 9.80334,0.4095 1.76037,0.25243 3.34424,0.47787 3.52028,0.50071 0.17597,0.0229 -0.0403,0.15799 -0.48004,0.29955 -0.4276,0.13763 -6.67662,0.22792 -12.84143,0.25704 l 1e-5,0.008 c -0.13719,0.002 -2.58761,0.01 -2.88474,0.0125 a 38.259058,38.259058 0 0 1 -0.67381,1.3506 c 7.39047,0.0364 16.31244,-0.12428 17.69267,-0.48483 1.64355,-0.42963 1.90883,-0.4104 4.42429,0.31384 1.47231,0.4239 2.87467,0.77119 3.11441,0.77084 0.23978,-9.5e-4 0.65469,-0.42506 0.92245,-0.9447 0.54782,-1.06319 0.6528,-2.40041 0.16491,-2.09791 -0.17957,0.11135 -0.32052,-0.14188 -0.32116,-0.57765 -0.002,-1.28925 -2.17998,-5.22981 -3.52496,-6.37766 -1.6681,-1.42366 -3.95445,-2.52689 -5.6231,-2.71249 -1.2736,-0.14168 -1.40436,-0.0834 -1.88354,0.84649 -0.28317,0.54956 -0.74447,0.99914 -1.02392,0.99955 -0.41904,4e-4 -0.47104,-0.24464 -0.29893,-1.40385 0.18707,-1.26005 0.12267,-1.47437 -0.62607,-2.0616 -0.45945,-0.36032 -1.36781,-0.82492 -2.01712,-1.03221 -0.59984,-0.19148 -3.36723,-1.51048 -6.5201,-3.05688 z m -4.47982,17.81906 c -1.55,-0.008 -3.14375,-0.0121 -4.46295,-0.0384 l -4.10742,0.006 a 31.302867,31.302867 0 0 1 -47.74575,1.61274 l 7.47852,-0.0109 a 3.6520011,3.6520011 0 0 0 3.01139,-1.54738 l -9.40038,0.0138 c -1.35069,0.15715 -6.81325,0.25277 -12.56797,0.27031 l 0.0195,13.29101 a 3.6520011,3.6520011 0 0 0 2.96235,3.64803 3.4780962,3.4780962 0 0 0 3.99296,-3.48435 l -0.01,-6.78126 a 38.259058,38.259058 0 0 0 60.82972,-6.9795 z m -45.82621,0.022 37.25584,-0.0544 a 31.302867,31.302867 0 0 0 1.03132,-1.28275 c -8.75499,0.0452 -20.69945,0.0973 -37.75178,0.14891 a 3.6520011,3.6520011 0 0 1 -0.53538,1.18828 z m 0.53538,-1.18828 a 3.6520011,3.6520011 0 0 0 0.10125,-0.22476 3.4780962,3.4780962 0 0 0 -0.0169,-1.10154 c -8.19895,0.0595 -16.1432,0.1249 -22.50951,0.19883 a 3.4780962,3.4780962 0 0 0 -0.0813,0.41419 l 0.001,0.77343 c 6.19823,-0.0107 14.39165,-0.0357 22.50578,-0.0602 z m 0.084,-1.3263 c 17.12509,-0.12486 29.82448,-0.19524 38.59537,-0.25156 a 31.302867,31.302867 0 0 0 0.60974,-1.08488 c -0.0388,0.002 -0.10834,0.003 -0.14648,0.004 l -39.54878,0.0578 a 3.4780962,3.4780962 0 0 1 0.49013,1.27467 z m -0.49014,-1.27467 a 3.4780962,3.4780962 0 0 0 -2.97698,-1.61871 l -15.65037,0.0229 a 3.4780962,3.4780962 0 0 0 -2.75179,1.45911 c 6.96397,-0.009 9.98331,4.4e-4 11.21509,0.15158 z m 39.69525,-0.0619 c 1.81957,-0.0989 4.59616,-0.10967 7.92763,-0.08 a 38.259058,38.259058 0 0 0 1.9218,-5.39539 c -2.39136,-1.26119 -4.73123,-2.5189 -6.39762,-3.4633 a 31.302867,31.302867 0 0 1 -3.45181,8.93864 z m -0.60974,1.08488 a 31.302867,31.302867 0 0 1 -0.9276,1.42909 c 1.96806,-0.011 7.3669,-0.0284 8.21285,-0.0355 a 38.259058,38.259058 0 0 0 0.70688,-1.44438 c -0.88268,0.008 -6.14181,0.0388 -7.99213,0.0507 z m 11.0064,-8.99851 a 38.259058,38.259058 0 0 0 0.65265,-3.80761 3.4780962,3.4780962 0 0 0 0.009,-0.56837 c -1.67735,-0.81155 -3.5148,-1.72636 -5.34372,-2.65821 a 3.4780962,3.4780962 0 0 0 -1.62131,2.53948 31.302867,31.302867 0 0 1 -0.18991,1.02567 c 2.35433,1.26303 4.61549,2.47381 6.49336,3.46904 z m -6.68131,-2.44337 a 31.302867,31.302867 0 0 1 -0.0659,0.35362 c 0.18579,0.0714 0.1738,-0.0182 0.17356,-0.18972 -5.3e-4,-0.039 -0.0429,-0.0974 -0.10767,-0.1639 z M 25.19,45.839379 c 0.33751,-0.16821 0.50802,-0.25066 0.8529,-0.42311 a 3.4780962,3.4780962 0 0 0 1.50816,-2.43776 31.302867,31.302867 0 0 1 31.86516,-28.14034 c 0.11831,-0.110782 0.23565,-0.224872 0.35892,-0.32279 2.03723,-1.618362 3.1543,-3.355146 3.15104,-4.8991395 -0.002,-0.559593 -0.11724,-1.107117 -0.31876,-1.614771 a 38.259058,38.259058 0 0 0 -7.40036,0.02839 c -0.39918,0.619533 -0.72332,1.291832 -0.90531,1.9798415 -0.43578,1.64737 -1.24578,2.064955 -3.45444,1.780441 -2.0412,-0.26295 -2.5691,-0.651762 -2.15807,-2.5788815 A 38.259058,38.259058 0 0 0 20.59301,42.293359 3.4780962,3.4780962 0 0 0 24.07712,46.114449 3.4780962,3.4780962 0 0 0 25.19,45.839379 Z M 55.20706,8.0298575 c 1.00723,-1.563215 2.53856,-2.755539 3.81042,-2.759475 1.5346,-0.0047 2.97225,1.175322 3.58994,2.731086 a 38.259058,38.259058 0 0 1 1.38902,0.238206 C 63.48955,6.3162055 62.04193,4.7800375 59.99826,4.1459025 58.36377,3.6387135 58.997,3.5161755 60.75,4.0002715 c 0.6548,0.180825 1.62576,0.695234 2.15989,1.143329 0.53411,0.448103 0.97167,0.670676 0.97141,0.494676 -9.2e-4,-0.483794 -1.8647,-1.946717 -2.76684,-2.171741 -1.98993,-0.496349 -3.28416,0.05334 -5.58639,2.371446 -1.0679,1.075264 -1.69527,1.831486 -1.99066,2.385724 a 38.259058,38.259058 0 0 1 1.66965,-0.193848 z m -1.66965,0.193848 a 38.259058,38.259058 0 0 0 -3.57912,0.653668 c -0.33732,1.2381345 -0.01,1.4594225 1.20942,1.6271385 1.52926,0.210376 2.15973,-0.274001 2.15772,-1.6594025 -4.5e-4,-0.166249 0.0836,-0.380668 0.21198,-0.621404 z m 10.45903,0.01597 c 0.12714,0.482429 0.21042,0.983506 0.21118,1.507505 0.003,1.7909635 -0.58221,2.7800805 -2.93415,4.9632755 l -0.29843,0.277781 a 31.302867,31.302867 0 0 1 3.41458,0.352434 c 2.17448,-2.17152 2.81347,-3.943678 2.62724,-6.4940805 -0.002,-0.03046 -0.007,-0.0576 -0.01,-0.08788 A 38.259058,38.259058 0 0 0 63.99633,8.2396715 Z M 57.07768,35.783019 c 0.0227,0.002 0.0129,0.0201 -0.0311,0.0566 -0.35158,0.29292 -1.57524,1.00175 -2.71839,1.5743 -1.14311,0.57254 -3.04382,1.56881 -4.22333,2.21516 -2.10645,1.15427 -2.91772,1.46295 -2.31708,0.88228 0.16696,-0.16141 2.46344,-1.39709 5.10146,-2.74768 2.30828,-1.18177 4.02987,-1.99266 4.18851,-1.98073 z m 12.18417,4.38846 c 0.0309,-0.008 0.0825,-0.005 0.1504,0.0115 0.40742,0.0936 1.40696,0.585 2.14222,1.09257 0.0557,0.0386 -0.0163,0.13458 -0.15984,0.21312 -0.14359,0.0786 -0.65486,-0.0857 -1.13724,-0.36552 -0.48237,-0.27979 -0.94259,-0.67895 -1.0228,-0.88718 -0.0139,-0.0359 -0.004,-0.0563 0.0272,-0.0645 z m -22.06531,0.76663 c 0.0248,0.0171 0.005,0.0596 -0.0643,0.12902 -0.17575,0.17623 -1.61377,1.00451 -3.19655,1.84061 -1.58271,0.8361 -3.66972,1.98779 -4.63689,2.5595 -2.70979,1.60182 -4.47495,2.43872 -4.4754,2.12179 -2.8e-4,-0.15823 0.46634,-0.48144 1.038,-0.71832 0.57166,-0.23688 1.93692,-0.97621 3.03277,-1.64311 1.09584,-0.66689 2.08097,-1.21204 2.18963,-1.21218 0.10864,-2.2e-4 1.01059,-0.50091 2.00423,-1.1123 1.64867,-1.01443 3.9341,-2.08541 4.10847,-1.96501 z m 25.51111,0.90219 c 0.10511,0.026 0.22838,0.15035 0.39704,0.38028 0.23761,0.32396 0.43041,0.48787 0.43021,0.36267 -10e-6,-0.12523 0.57735,0.0638 1.28188,0.42196 0.70451,0.35811 1.28045,0.79249 1.28071,0.9649 1.9e-4,0.39246 0.11752,0.42723 -1.68044,-0.50535 -0.83663,-0.43396 -1.5209,-0.93781 -1.52117,-1.12082 -4.8e-4,-0.18302 -0.16823,-0.23081 -0.37124,-0.10494 -0.24397,0.15127 -0.27997,0.0872 -0.10965,-0.18928 0.1006,-0.1633 0.18756,-0.23543 0.29266,-0.20942 z m 4.41394,2.59122 c 0.0937,-0.0939 1.73992,0.71318 3.65693,1.79348 3.78695,2.13402 3.81432,2.15258 3.61862,2.32285 -0.0732,0.0637 -1.71741,-0.73878 -3.65495,-1.78373 -3.85966,-2.08163 -3.86634,-2.08614 -3.6206,-2.3326 z m -42.99927,3.19564 c 0.19648,-0.0651 0.38083,-0.007 0.38119,0.22989 6.3e-4,0.20106 -0.13158,0.28524 -0.2927,0.18599 -0.16111,-0.0993 -0.36727,-0.0325 -0.4568,0.14911 -0.0896,0.18163 -0.12764,0.15499 -0.0861,-0.0585 0.0492,-0.25378 0.25786,-0.44138 0.45434,-0.50652 z m -1.06331,0.79061 c 0.10403,-0.0234 0.16088,-0.0211 0.16017,0.0115 -0.008,0.3693 -3.79228,2.32539 -3.9638,2.04876 -0.0839,-0.13524 0.77506,-0.70556 1.90831,-1.26646 0.84993,-0.42066 1.58321,-0.72354 1.89532,-0.79378 z m 52.40899,0.49765 c 0.17469,0.002 0.39761,0.12124 0.561,0.31754 0.43257,0.51967 0.0935,0.62862 -0.59737,0.19227 -0.26397,-0.16672 -0.3108,-0.35089 -0.11785,-0.47052 0.0437,-0.027 0.0961,-0.0397 0.15425,-0.0393 z m -57.57519,2.05288 c 0.084,-0.0136 0.1555,-0.012 0.21486,0.003 0.0792,0.0207 0.13833,0.0663 0.18183,0.13645 0.15039,0.24253 0.10144,0.30057 -0.13259,0.15645 -0.20337,-0.12529 -0.36923,-0.0673 -0.36896,0.12943 6.5e-4,0.19675 -0.14396,0.26914 -0.32007,0.16062 -0.17615,-0.10851 -0.32037,-0.0475 -0.32011,0.13523 4.1e-4,0.42031 -2.56937,1.78599 -3.14795,1.67258 -0.23772,-0.0465 -0.33861,0.0686 -0.22228,0.25619 0.11636,0.1876 0.13921,0.3416 0.0513,0.34173 -0.088,4.1e-4 -0.2437,-0.1378 -0.34809,-0.30615 -0.10442,-0.16834 0.28276,-0.54776 0.86009,-0.84305 0.57732,-0.29529 1.64873,-0.88418 2.3809,-1.31012 0.54785,-0.31869 0.91911,-0.49242 1.1711,-0.53295 z m 62.74545,0.84777 c -0.0807,-0.0144 -0.12576,-0.006 -0.12495,0.0295 0.004,0.14213 0.68701,0.64284 1.52115,1.11496 1.76664,0.99988 1.67762,0.9655 1.67675,0.65771 -1.2e-4,-0.13201 -0.72073,-0.64346 -1.60126,-1.13633 -0.66041,-0.36965 -1.22947,-0.62238 -1.47169,-0.66582 z m -67.79015,1.98578 c 0.13717,-10e-4 0.23939,0.0555 0.30886,0.16751 0.11211,0.18066 0.0848,0.30633 -0.0601,0.28133 -0.64803,-0.11158 -1.08545,0.0599 -0.9038,0.35288 0.10906,0.17585 0.12561,0.31819 0.0376,0.31832 -0.0879,4.1e-4 -0.24453,-0.13522 -0.34809,-0.30224 -0.10356,-0.16701 0.0944,-0.45546 0.44047,-0.64127 0.21452,-0.11522 0.38793,-0.17504 0.52512,-0.17653 z m -1.54335,1.07842 c 0.12653,-0.0252 0.20676,-0.0237 0.22855,0.0113 0.16626,0.26814 -1.48243,1.12386 -1.92823,1.00086 -0.11992,-0.0331 -0.30628,0.0782 -0.41371,0.24669 -0.38092,0.59771 -4.05901,2.43713 -5.57001,2.89096 0.0346,-0.0296 0.0489,-0.0743 -0.008,-0.16597 -0.12059,-0.19448 0.15678,-0.43364 0.64761,-0.5576 0.47189,-0.11916 1.22632,-0.47655 1.67658,-0.79541 1.32342,-0.93722 4.48157,-2.45445 5.36725,-2.63089 z m 76.7785,0.72961 c 0.10707,10e-4 0.34008,0.10856 0.76024,0.32507 0.81119,0.41799 1.30586,1.11332 0.79265,1.11407 -0.0879,4.2e-4 -0.16038,-0.15128 -0.16064,-0.33766 -5.2e-4,-0.18638 -0.14469,-0.24918 -0.32053,-0.14016 -0.17583,0.10905 -0.3183,0.0371 -0.3186,-0.15969 -6.2e-4,-0.19675 -0.12995,-0.27882 -0.28737,-0.18121 -0.15742,0.0976 -0.36905,-0.0391 -0.47115,-0.304 -0.0817,-0.21257 -0.10208,-0.31766 0.005,-0.31642 z m 2.71135,1.61324 c 0.19087,-0.19145 4.25531,1.73202 4.38584,2.07563 0.0557,0.14632 0.30819,0.18637 0.56068,0.0891 0.25248,-0.0974 0.45883,-0.10427 0.45898,-0.0158 5.3e-4,0.55914 -1.10726,0.32472 -3.04781,-0.64398 -2.46467,-1.23037 -2.56667,-1.29477 -2.35768,-1.50437 z m -87.79642,1.71225 c 0.096,0.007 0.18716,0.0248 0.26961,0.0563 0.14243,0.0543 0.22082,0.0582 0.2872,0.0543 -0.23694,0.0667 -0.56797,0.19296 -0.64626,0.16306 -0.39254,-0.14997 -0.50223,-0.10192 -0.34547,0.1509 0.15476,0.24959 0.0522,0.30012 -0.31814,0.15866 -0.37275,-0.14242 -0.47546,-0.0892 -0.31811,0.16452 0.12756,0.20573 0.15888,0.37477 0.0709,0.37489 -0.0879,4.2e-4 -0.24455,-0.13715 -0.3481,-0.30417 -0.20259,-0.32672 0.43847,-0.73332 1.04959,-0.81013 0.10185,-0.0129 0.20276,-0.016 0.29881,-0.008 z m 93.79623,0.83171 c 0.0326,-0.003 0.0681,0.006 0.10551,0.0292 0.14974,0.0922 0.18954,0.30071 0.0886,0.46471 -0.25816,0.41906 -0.36079,0.37212 -0.36157,-0.16744 -5.6e-4,-0.19219 0.0694,-0.31583 0.16748,-0.32642 z m -95.64043,0.20224 c 0.0661,-0.009 0.11208,9e-5 0.13091,0.031 0.0929,0.15005 -0.32829,0.5111 -0.93632,0.80215 -0.6080499,0.29103 -1.1067499,0.46932 -1.1068499,0.39615 -10e-4,-0.28956 1.4490399,-1.17501 1.9122599,-1.22936 z m 96.3602,0.49788 c 0.57445,0.12642 2.49733,1.20724 4.4021,2.49748 1.97683,1.33911 0.66361,0.86551 -2.10853,-0.76059 -1.45046,-0.85085 -2.55483,-1.62938 -2.45371,-1.73079 0.023,-0.0231 0.078,-0.024 0.16014,-0.006 z m -98.7409199,0.93919 c 0.22994,0.22926 -2.54176,2.39854 -3.37504,2.64166 -1.90063,0.55452 -1.97558,0.48677 -0.43027,-0.39196 0.90271,-0.51332 2.09966,-1.25954 2.65774,-1.65817 0.55809,-0.39862 1.07394,-0.66495 1.14757,-0.59153 z m -0.8083,1.53634 c 0.0165,0.0165 -0.08,0.14673 -0.2787,0.40079 -0.41727,0.53367 -0.67865,0.70382 -0.67905,0.44046 -5.7e-4,-0.0665 0.25013,-0.31936 0.55777,-0.56136 0.25348,-0.1994 0.38344,-0.29638 0.39998,-0.27989 z" />
</svg>
