<?xml version="1.0" encoding="UTF-8" standalone="no"?>
<!-- Created with Inkscape (http://www.inkscape.org/) -->

<svg
   version="1.1"
   id="svg1"
   width="201.87875"
   height="175.56963"
   viewBox="0 0 201.87876 175.56962"
   xmlns="http://www.w3.org/2000/svg"
   xmlns:svg="http://www.w3.org/2000/svg">
  <defs
     id="defs1">
    <linearGradient
       id="swatch23">
      <stop
         style="stop-color:#000000;stop-opacity:1;"
         offset="0"
         id="stop23" />
    </linearGradient>
  </defs>
  <path
     id="rect2"
     style="display:inline;fill:#372520;fill-opacity:1;stroke-width:1.002"
     d="M 100.1855,4.8622733e-4 C 97.172159,0.01585923 95.331959,0.85502163 92.777299,3.3735332 c -1.50358,1.482308 -1.92384,2.150988 -2.48047,3.953125 -1.11892,3.6226188 -0.93696,4.1145358 1.64649,4.4511718 2.20825,0.287744 3.01885,-0.128656 3.45703,-1.775391 0.64475,-2.4230828 2.94671,-4.7295218 4.722651,-4.7324218 2.03537,-0.0033 3.90035,2.077016 3.90235,4.351563 10e-4,1.5440018 -1.11861,3.2791448 -3.15821,4.8945308 -0.72699,0.575782 -1.413571,1.431535 -1.525391,1.900391 -0.11182,0.468852 -0.34714,1.032624 -0.52148,1.253906 -0.29564,0.375215 -0.0826,4.38481 0.2832,5.337891 0.10345,0.269577 -0.67555,0.556077 -2.46289,0.908203 -4.92937,0.971143 -7.19523,2.69458 -10.46875,7.960937 -3.02669,4.869259 -5.38605,6.621633 -16.38477,12.16211 -4.31196,2.172103 -9.1367,4.549918 -10.7207,5.283203 -4.124713,1.909465 -5.526697,3.074008 -5.787108,4.810547 -0.114108,0.760958 -0.328603,1.457388 -0.476562,1.548828 -0.374769,0.231615 -1.361916,-1.355495 -1.164062,-1.871094 0.114599,-0.298649 -0.20721,-0.443324 -1.101563,-0.496094 -3.605519,-0.212742 -9.041307,5.642465 -9.480469,10.212891 -0.243574,2.534908 0.670057,3.037557 3.798828,2.08789 1.160172,-0.35214 2.47313,-0.389996 6.240235,-0.179687 5.890498,0.328852 26.384241,0.248812 26.931641,-0.105469 0.54304,-0.351412 0.50498,-2.514318 -0.0566,-3.28125 -0.43686,-0.596492 -0.95069,-0.621094 -12.94336,-0.621094 H 52.539017 l 2.91211,-1.361328 c 1.601478,-0.748499 3.133082,-1.540274 3.404292,-1.759765 l 2.38086,-1.361328 c 0.90479,-0.517341 3.58723,-1.959867 5.92969,-3.261719 2.34246,-1.301858 6.01462,-3.242364 8.16016,-4.3125 2.14554,-1.070135 4.26117,-2.196712 4.70117,-2.503907 0.78647,-0.549087 2.771,-1.614105 11.03906,-5.919921 2.288,-1.191533 5.12217,-2.72239 6.29688,-3.402344 1.17471,-0.679954 2.20767,-1.236328 2.29687,-1.236328 0.0892,0 2.007591,0.986878 4.263671,2.193359 2.25612,1.206481 5.47058,2.914173 7.14258,3.794922 9.10939,4.798526 14.44804,7.687173 19.04102,10.304688 2.81595,1.604824 7.88658,4.312374 11.26953,6.015624 3.38294,1.703254 6.11898,3.105065 6.08008,3.115235 -0.0389,0.01017 -3.95899,-0.06182 -8.71094,-0.160156 -11.10845,-0.229862 -15.43461,-0.01024 -16.03906,0.816406 -0.54227,0.741701 -0.57245,2.140448 -0.0566,2.65625 0.60209,0.602075 25.44105,0.537321 27.78711,-0.07227 1.64419,-0.427223 1.90941,-0.407622 4.42382,0.320313 1.47169,0.426047 2.87353,0.77539 3.11328,0.77539 0.23979,0 0.65531,-0.424104 0.92383,-0.943359 0.54938,-1.062377 0.6563,-2.399463 0.16797,-2.097656 -0.17973,0.111077 -0.32031,-0.142355 -0.32031,-0.578125 0,-1.289257 -2.17233,-5.233006 -3.51563,-6.382813 -1.66604,-1.426096 -3.95076,-2.532653 -5.61914,-2.720703 -1.27341,-0.143538 -1.40423,-0.08549 -1.88476,0.84375 -0.28398,0.549147 -0.74593,0.998047 -1.02539,0.998047 -0.41902,0 -0.47069,-0.245314 -0.29688,-1.404297 0.18891,-1.259763 0.12484,-1.474173 -0.62304,-2.0625 -0.45893,-0.360994 -1.36662,-0.82692 -2.01563,-1.035156 -1.38603,-0.444715 -13.65562,-6.540369 -18.00586,-8.945313 -6.83991,-3.781329 -9.2453,-5.897299 -12.03516,-10.591797 -0.84607,-1.42378 -2.01419,-3.145982 -2.5957,-3.826171 -1.24195,-1.45272 -5.01544,-3.426692 -7.17187,-3.751953 l -1.47461,-0.222657 0.41015,-1.1875 c 0.22551,-0.65314 0.33931,-1.553095 0.25391,-2 -0.1303,-0.681635 0.25514,-1.212615 2.38672,-3.292969 2.85645,-2.78782 3.67244,-4.228568 3.86914,-6.835937 0.29015,-3.8458888 -1.71492,-7.5378938 -4.95508,-9.12890597 -1.5571,-0.7645786 -2.25436,-0.9125848 -4.26172,-0.90234380267 z M 84.011669,16.348142 c -0.55603,-0.213366 -10.76995,2.657147 -14.80273,4.160157 -8.73223,3.2545 -19.063907,10.058475 -25.505859,16.798828 -5.667071,5.92957 -10.895475,13.043804 -13.580079,18.474609 -3.843035,7.774254 -4.29151,9.627474 -2.416015,9.988281 1.460666,0.281006 1.880104,-0.09932 2.898437,-2.628906 1.172645,-2.912907 4.068999,-8.14368 6.609375,-11.935547 4.338659,-6.476048 10.403395,-12.775444 16.732422,-17.382812 6.063499,-4.414079 15.393779,-9.148001 22.724609,-11.529297 2.81884,-0.915649 5.43666,-1.664063 5.81836,-1.664063 0.3817,0 1.06417,-0.140856 1.51563,-0.3125 0.65201,-0.247915 0.8194,-0.528871 0.8164,-1.361328 -0.006,-1.45993 -0.30286,-2.412602 -0.81055,-2.607422 z m 32.996101,0.867188 c -0.276,0.105909 -0.50196,0.54571 -0.50195,0.976562 0,0.430857 -0.164,0.83917 -0.36524,0.90625 -0.26956,0.08983 -0.27304,0.294556 -0.0137,0.779297 0.24697,0.461466 1.01752,0.819438 2.58008,1.199219 3.72043,0.904258 10.84125,3.615041 15.24023,5.800781 8.54991,4.248214 14.42555,8.496829 21.96484,15.884766 3.25113,3.185835 5.50572,5.691778 6.42969,7.146484 0.7825,1.231995 1.97478,3.104161 2.65039,4.160156 1.69181,2.644326 4.72113,8.082846 5.25782,9.439454 0.2437,0.615996 0.57498,1.2924 0.73437,1.501953 0.48758,0.641066 3.16197,0.911691 4.0918,0.414062 0.75008,-0.401428 0.82725,-0.199103 -2.47461,-6.501953 -2.6246,-5.009942 -5.55921,-9.657311 -8.99414,-14.242188 -1.97619,-2.637736 -9.31647,-9.342842 -14.41016,-13.164062 -3.7117,-2.78446 -10.18473,-6.753147 -13.8164,-8.470703 -5.24864,-2.482266 -17.208,-6.277153 -18.37305,-5.830078 z m -13.18555,35.09375 c -1.67338,0 -2.03515,0.485783 -2.03516,2.730469 v 2.068359 h -1.906241 -1.9043 l -0.0957,-2.160156 -0.0938,-2.158203 -1.32226,-0.09766 c -2.25275,-0.164568 -2.35938,0.122382 -2.35938,6.333985 0,2.965019 -0.0796,5.599772 -0.17773,5.855468 -0.33439,0.871429 0.77793,1.546941 2.37695,1.44336 l 1.48242,-0.0957 0.0918,-2.640625 0.0937,-2.640625 h 1.90625 1.908201 v 1.90039 c 1e-5,1.044538 0.1389,2.267298 0.31055,2.71875 0.27153,0.714189 0.50191,0.822266 1.76172,0.822266 1.15702,0 1.45065,-0.113054 1.46875,-0.560547 0.0124,-0.308 0.0502,-3.286021 0.082,-6.617188 0.0623,-6.523599 -0.0259,-6.902343 -1.58789,-6.902343 z m -18.972661,0.320312 c -5.22276,0 -5.14257,-0.03283 -5.14257,2.041016 0,1.414283 0.50226,1.798828 2.35351,1.798828 h 1.58399 l -0.21289,4.453125 c -0.1826,3.825144 -0.13982,4.526201 0.29492,4.960938 0.50761,0.507614 2.20655,0.674233 3.1543,0.310546 0.42984,-0.164966 0.50585,-0.904985 0.50585,-4.914062 V 56.55908 l 1.35938,-0.285157 c 1.22502,-0.257128 1.36968,-0.38709 1.45898,-1.310546 0.0545,-0.563868 -0.0572,-1.319556 -0.25,-1.679688 -0.32893,-0.614605 -0.6427,-0.654297 -5.10547,-0.654297 z m 30.361331,0 c -2.61074,0 -4.8191,0.117514 -4.9082,0.261719 -0.25276,0.409084 -0.29918,12.541078 -0.0488,12.792969 0.21469,0.216005 3.71154,0.537924 7.06836,0.65039 0.90226,0.03023 1.7856,-0.115679 2,-0.330078 0.2112,-0.2112 0.38477,-0.901561 0.38477,-1.535156 0,-1.688562 -0.41255,-1.919922 -3.42383,-1.919922 -2.61975,0 -2.65625,-0.01171 -2.65625,-0.800781 0,-0.784949 0.047,-0.800781 2.49609,-0.800781 2.63509,0 3.26367,-0.276579 3.26367,-1.441407 0,-1.374214 -0.70893,-1.825734 -3.14453,-2 -1.99202,-0.142527 -2.29492,-0.245306 -2.29492,-0.777343 0,-0.562588 0.23478,-0.607478 2.84375,-0.554688 1.56403,0.03164 3.00325,-0.04295 3.19922,-0.164062 0.19597,-0.121117 0.35547,-0.703709 0.35547,-1.294922 0,-2.125084 0.0936,-2.085938 -5.13477,-2.085938 z M 64.249959,71.568845 c -1.89078,0.02915 -3.75712,0.433745 -5.35938,1.238282 -1.954777,0.981553 -4.32347,3.363629 -5.140624,5.171875 l -0.763672,1.689453 -0.09766,17.279296 c -0.06835,12.030759 0.01253,17.864419 0.267578,19.201169 0.696986,3.65295 2.972267,6.59407 6.316408,8.16602 2.74411,1.28988 5.54153,1.41444 8.96875,0.39844 3.78658,-1.12256 6.64354,-3.7891 7.50391,-7.00586 0.2002,-0.74855 0.44467,-1.3107 0.54297,-1.25 0.0983,0.0607 0.17773,-7.72375 0.17773,-17.298829 0,-9.575098 -0.10823,-17.41019 -0.24023,-17.410158 -0.132,3.1e-5 -0.24024,-0.480471 -0.24024,-1.06836 0,-1.59531 -1.7452,-4.804218 -3.41211,-6.271484 -2.15613,-1.897932 -5.37218,-2.888424 -8.52343,-2.839844 z m 110.816401,0.347657 -5.35937,0.08789 c -2.948,0.04762 -5.46761,0.09922 -5.59961,0.115235 -0.62449,0.07581 -0.15452,1.337581 0.65429,1.755859 l 0.89454,0.462891 -0.0469,12.349609 c -0.026,6.792925 -0.12054,12.425225 -0.21094,12.515625 -0.0904,0.0904 -0.3354,-0.74032 -0.54297,-1.8457 -0.20756,-1.10538 -0.72438,-3.44899 -1.15039,-5.20899 -0.42601,-1.759981 -1.21187,-5.143539 -1.74609,-7.519529 -0.53422,-2.375985 -1.27788,-5.545025 -1.65234,-7.041015 -0.37446,-1.495995 -0.81104,-3.257062 -0.97071,-3.914063 -0.15968,-0.657002 -0.53782,-1.308834 -0.83984,-1.447265 -0.30202,-0.13843 -3.0685,-0.17543 -6.14649,-0.08398 -4.98748,0.148171 -5.60812,0.226025 -5.70312,0.722656 -0.0694,0.362619 0.29338,0.793617 1.03711,1.232422 l 1.14258,0.673828 0.0801,16.369141 c 0.044,9.002574 0.0533,19.745534 0.0215,23.875004 -0.0529,6.86086 -0.10676,7.54376 -0.63867,7.91015 -1.14241,0.78689 -1.41736,1.12863 -1.31836,1.64258 0.0815,0.42347 0.96958,0.61606 4.73828,1.0332 2.55061,0.28236 4.81711,0.45276 5.03711,0.37695 0.57201,-0.1972 0.49392,-1.35568 -0.13867,-2.05469 -0.47989,-0.53024 -0.52406,-1.35807 -0.40039,-7.54686 0.0764,-3.82237 0.1349,-11.4853 0.1289,-17.029299 -0.006,-5.54395 0.0873,-9.430671 0.20703,-8.638676 0.11975,0.792 0.51598,2.806526 0.88282,4.478526 0.36683,1.67195 0.82161,4.19356 1.00976,5.601559 0.18814,1.408 0.70362,3.92761 1.14453,5.59961 0.44091,1.672 1.29364,5.41631 1.89453,8.32031 1.24227,6.00305 2.81315,11.50684 3.38672,11.86133 0.2133,0.13183 1.48074,0.40324 2.81641,0.60351 1.33567,0.20027 2.93283,0.4869 3.54883,0.63672 0.616,0.14982 1.58815,0.28669 2.16015,0.30469 0.85239,0.0268 1.03907,-0.088 1.03907,-0.63672 0,-0.36824 -0.28866,-1.03834 -0.64258,-1.48828 -0.63252,-0.80412 -0.64351,-1.24788 -0.63281,-26.033199 l 0.0117,-25.214853 0.95118,-0.679687 c 0.58274,-0.414981 0.95312,-0.963113 0.95312,-1.412109 z m 13.5586,0.0039 c -3.99963,0.139473 -7.70258,2.455644 -9.13086,5.298828 -0.41139,0.818909 -0.82021,1.562391 -0.90821,1.650391 -0.29814,0.298132 -0.33222,1.736084 -0.49804,21.07617 -0.14724,17.173779 -0.10693,19.515739 0.35351,21.099609 1.02925,3.54044 3.4085,6.09148 7.09961,7.60937 2.23108,0.91749 5.51058,1.025 8.10742,0.26563 3.34663,-0.97861 5.62989,-2.94677 7.10352,-6.125 0.68199,-1.4709 0.71069,-1.94386 0.80859,-13.0625 l 0.10156,-11.537109 -0.81054,-0.4336 c -0.99796,-0.5341 -11.04091,-0.25184 -11.39453,0.32032 -0.11784,0.19073 -0.18474,1.936059 -0.14844,3.878899 0.0755,4.04757 0.10612,4.09457 2.66016,4.10157 l 1.70312,0.006 -0.10351,6.87305 -0.10157,6.87305 -0.83203,0.83008 c -1.06203,1.06121 -3.01726,1.36485 -4.35351,0.67382 -2.05506,-1.06268 -2.03096,-0.82941 -2.00586,-20.73046 0.0209,-16.536359 0.0658,-18.027916 0.5664,-18.439453 0.34486,-0.283453 0.36831,-0.358321 0.0645,-0.203124 -0.4192,0.21414 -0.42241,0.174958 -0.0234,-0.316407 0.59763,-0.736115 2.05824,-1.480468 2.90429,-1.480469 1.11215,10e-7 2.51525,0.907643 3.10157,2.00586 0.40721,0.762738 0.59701,2.126429 0.72461,5.193359 l 0.17382,4.160157 3.66016,0.24414 c 2.14455,0.142758 3.78171,0.122568 3.95313,-0.04883 0.474,-0.474008 0.65542,-6.720393 0.26757,-9.203125 -1.11138,-7.114542 -5.91063,-10.828794 -13.04296,-10.580078 z m -176.67774,0.02539 c -3.2965027,0.03725 -3.9585567,0.139891 -5.3613277,0.830078 -1.977767,0.973091 -4.185669,2.9732 -4.945312,4.478515 -1.56152497,3.09433 -1.58908697,3.482637 -1.62890697,23.544915 -0.03686,18.56825 -0.02612,18.89841 0.650391,20.70508 1.48044697,3.95364 3.59642397,6.08547 7.20507797,7.26172 2.2239197,0.72489 3.9241577,0.80688 6.3027347,0.30273 0.932659,-0.19769 2.200406,-0.61013 2.816406,-0.91601 0.615995,-0.30589 1.335609,-0.48419 1.599609,-0.39649 0.263984,0.0877 0.386331,0.0579 0.271485,-0.0664 -0.11485,-0.12428 0.42718,-0.81226 1.205078,-1.5293 1.656683,-1.52709 3.124036,-4.41134 3.617187,-7.11133 0.502252,-2.74969 0.462444,-11.90857 -0.05273,-12.10351 -0.22,-0.0832 -2.056088,-0.0636 -4.080078,0.0449 l -3.679688,0.19727 -0.160156,6.02539 -0.160156,6.02539 -1.195313,1.0957 c -1.575815,1.443 -3.302614,1.52297 -4.5937497,0.21289 l -0.86914,-0.88281 0.04687,-18.82227 c 0.02591,-10.353094 0.156172,-19.010202 0.289063,-19.236322 0.132891,-0.226121 0.726933,-0.65947 1.3203127,-0.962891 1.799743,-0.920284 4.197076,-0.08827 4.890624,1.697266 0.1811,0.466234 0.315354,2.664216 0.296876,4.884765 -0.0242,2.907617 0.07809,4.125067 0.36914,4.34961 0.222272,0.171484 2.059999,0.299203 4.083984,0.283203 l 3.681641,-0.02927 v -5.919922 c 0,-6.677622 -0.239908,-7.628808 -2.558594,-10.195312 -1.235656,-1.36773 -4.17598,-3.244141 -5.082031,-3.244141 -0.286576,0 -0.519531,-0.127833 -0.519531,-0.283203 0,-0.155375 -1.691776,-0.263604 -3.759766,-0.240234 z m 117.11719,0.06641 c -0.86218,-0.02409 -2.01633,-0.008 -3.37109,0.04883 -3.76322,0.157783 -4.38672,0.258091 -4.38672,0.705078 0,0.286524 0.30524,0.782907 0.67968,1.103516 0.58924,0.504513 0.65577,0.803975 0.48438,2.230468 -0.10887,0.906501 -0.19917,5.284536 -0.20117,9.728516 l -0.004,8.080081 h -3.55469 -3.55664 l 0.1211,-9.000003 c 0.0666,-4.949832 0.0254,-8.658091 -0.0918,-8.240234 -0.20459,0.729555 -0.21549,0.73186 -0.24609,0.05859 -0.0175,-0.385612 0.11605,-0.791795 0.29492,-0.902344 0.17892,-0.110548 0.24168,-0.33453 0.14062,-0.498047 -0.10106,-0.163517 0.22066,-0.648473 0.71485,-1.078125 0.74023,-0.643566 0.83693,-0.884016 0.54492,-1.361328 -0.31491,-0.514764 -0.93726,-0.587656 -5.57617,-0.666016 -2.87174,-0.04851 -5.34502,0.03447 -5.4961,0.185547 -0.42409,0.424092 -0.0173,1.128738 0.98242,1.699219 l 0.90821,0.517578 -0.11914,23.162113 c -0.072,13.948399 -0.1373,19.369869 -0.30469,21.699219 0.008,0.0976 -0.0471,0.90693 -0.0391,0.78319 -0.0713,0.67336 -0.15987,0.96745 -0.27344,1.05274 -0.29998,0.22515 -0.45528,0.73325 -0.39258,1.28125 l 0.10352,0.90625 4.64062,-0.10352 c 5.21024,-0.11602 5.75977,-0.20366 5.75977,-0.93163 0,-0.28229 -0.25255,-0.79249 -0.56055,-1.13282 -0.45793,-0.50596 -0.56328,-1.25361 -0.58008,-4.0996 -0.0113,-1.91419 -0.11954,-3.57853 -0.24023,-3.69922 -0.33058,-0.33055 -0.26361,-9.40395 0.0781,-10.5957 0.21485,-0.74932 0.19258,-1.04762 -0.0801,-1.07422 -1.07305,-0.10456 2.50334,-0.56809 4.5039,-0.58399 l 2.31836,-0.0195 v 9.82032 c 0,9.69864 -0.009,9.82852 -0.70898,10.57421 -0.55509,0.59085 -0.63348,0.87379 -0.36524,1.30079 0.27131,0.43188 1.00146,0.58174 3.50781,0.72265 6.11519,0.34379 6.53546,0.3332 6.72852,-0.16992 0.0996,-0.25954 -0.10818,-0.94307 -0.46094,-1.51953 -0.62126,-1.01526 -0.64702,-1.75004 -0.81054,-23.447269 -0.14633,-19.416182 -0.10366,-22.572145 0.3125,-23.681643 0.83533,-2.227159 0.8425,-2.331017 0.21289,-2.667968 -0.18664,-0.09989 -0.75501,-0.1634 -1.61719,-0.1875 z m -100.953127,0.0078 c -0.715591,-0.05788 -0.630094,1.093905 0.126953,1.707032 l 0.742187,0.599609 -0.0957,25.390628 c -0.09161,24.556339 -0.115096,25.419309 -0.716797,26.257799 -1.117077,1.55682 -0.74743,2.33005 0.978516,2.04688 0.615995,-0.10106 2.848949,-0.39661 4.960938,-0.65625 6.014418,-0.73941 11.944624,-1.409 14.478515,-1.63477 1.96426,-0.17503 2.320313,-0.29849 2.320313,-0.79687 0,-0.32375 -0.144313,-0.67638 -0.320313,-0.78516 -0.176,-0.10877 -0.321519,-1.37675 -0.324219,-2.81836 -0.0027,-1.44162 -0.12797,-2.81511 -0.277343,-3.05078 -0.218507,-0.34484 -0.733262,-0.36367 -2.634766,-0.0977 -1.299923,0.18185 -3.515838,0.4161 -4.923828,0.52148 -1.407995,0.10537 -3.171927,0.27458 -3.919922,0.375 l -1.359378,0.18366 V 97.176271 75.09033 l 1.173828,-0.941407 c 0.812802,-0.652051 1.109574,-1.10372 0.96875,-1.470703 -0.176772,-0.460655 -0.892183,-0.536385 -5.492187,-0.578125 -2.909509,-0.0264 -5.467957,-0.06248 -5.685547,-0.08008 z m 114.849607,0.04687 c -0.87261,-0.04309 -2.25531,-0.01797 -4.53125,0.05859 -4.89574,0.164698 -5.44787,0.239668 -5.54687,0.757813 -0.08,0.418566 0.23948,0.712642 1.16992,1.078124 0.78017,0.306462 1.35121,0.769385 1.46289,1.185547 0.10065,0.375233 0.18355,10.988676 0.18555,23.585945 l 0.006,22.904289 -0.80078,0.75196 c -0.44,0.41336 -0.80079,0.99099 -0.80079,1.28515 0,0.45942 0.55271,0.56448 3.91993,0.74219 2.15595,0.11379 4.35286,0.34164 4.88086,0.50586 1.37383,0.42729 1.9048,0.28196 2.02343,-0.55078 0.0572,-0.40133 -0.1981,-1.24161 -0.56836,-1.86914 -0.66456,-1.12635 -0.675,-1.43965 -0.78906,-24.373049 -0.10431,-20.972291 -0.0647,-23.309193 0.40234,-24.044925 0.28455,-0.448229 0.63126,-0.899042 0.77149,-1 0.14022,-0.100958 -3.4e-4,-0.39848 -0.3125,-0.662109 -0.23761,-0.200667 -0.60004,-0.312389 -1.47266,-0.355469 z m -51.730471,0.04687 c -6.14064,0.0016 -12.2853,0.04898 -12.3789,0.142578 -0.12531,0.125309 -0.027,0.764351 0.21875,1.419922 0.24572,0.655577 0.52509,2.488271 0.62109,4.072266 l 0.17383,2.880859 1.44141,-0.03711 c 0.792,-0.02016 2.48376,-0.149743 3.75976,-0.28711 l 2.32031,-0.25 0.006,3.167969 c 0.003,1.741521 0.0335,10.971845 0.0684,20.511714 l 0.0645,17.34375 -0.75,0.79883 c -1.43794,1.53062 -0.90945,1.71907 4.61718,1.63867 3.71936,-0.0541 5.08395,-0.18243 5.27539,-0.49219 h 0.002 c 0.2994,-0.48444 0.092,-1.20905 -0.56055,-1.9707 -0.38817,-0.4531 -0.45617,-3.63565 -0.45117,-20.64063 l 0.006,-20.103506 h 4.10156 4.099611 l -0.11719,-4 c -0.0644,-2.199991 -0.13786,-4.026634 -0.16406,-4.058594 -0.0767,-0.09354 -6.212831,-0.138319 -12.353521,-0.136719 z m -26.0039,7.582032 c 0.36316,0.02848 0.71112,0.122644 1.02539,0.285156 0.52566,0.271825 1.13008,0.816763 1.34375,1.210937 0.2835,0.523015 0.42478,4.823605 0.52148,15.916024 0.0729,8.359949 0.14105,15.980039 0.15235,16.931639 0.019,1.59343 -0.0714,1.81356 -1.14649,2.79883 -1.3021,1.19324 -2.35161,1.34489 -3.93359,0.56445 -1.85006,-0.9127 -1.83217,-0.73998 -1.97656,-18.802739 l -0.13282,-16.587891 0.89844,-0.9375 c 0.92554,-0.966049 2.15855,-1.464366 3.24805,-1.378906 z m 57.820311,14.812507 v 0.043 h -0.11133 c 0.0304,-0.0146 0.0908,-0.0282 0.11133,-0.043 z m 39.06055,17.156249 h 0.0215 v 0.0996 c -0.008,-0.0354 -0.0139,-0.0641 -0.0215,-0.0996 z M 28.324173,131.66259 c -0.581828,-0.0591 -1.24876,0.13873 -2.15039,1.03907 1.419985,4.42094 7.647042,13.47503 11.65625,17.33007 2.172754,2.08923 9.08406,8.05863 14.072265,11.37305 3.634837,2.4152 10.212241,5.53872 13.562501,7.38477 4.78434,2.63624 16.26571,4.9713 17.71484,5.21094 9.4979,1.46859 17.361591,1.5917 24.617191,1.5664 7.60308,-0.0265 14.54238,-1.04766 22.85742,-3.66601 8.68493,-2.73488 19.49332,-8.25405 25.99805,-13.87696 5.7223,-4.94651 11.02994,-10.90396 13.78516,-15.4707 3.9441,-6.53735 4.42081,-8.10433 2.5664,-8.4375 -1.44425,-0.25948 -1.86879,0.0589 -2.92187,2.18945 -1.21266,2.45335 -4.17345,6.8465 -6.75782,10.02539 -4.41377,5.42926 -10.536,10.68441 -16.89257,14.5 -6.08993,3.65557 -15.4276,7.534 -22.74024,9.44727 -9.18559,2.62116 -14.47269,2.19963 -21.72461,2.4082 -6.490651,0.18668 -13.233041,-0.99721 -19.996091,-1.98437 -3.72648,-0.54393 -10.69073,-3.22323 -15.01758,-5.14063 -8.40961,-3.72663 -14.167635,-7.41633 -21.521484,-13.79101 -3.171142,-2.74891 -5.363934,-4.90527 -6.255859,-6.15235 -0.755362,-1.05616 -8.560578,-12.55168 -9.212891,-13.45703 -0.560448,-0.1232 -1.056839,-0.43895 -1.638672,-0.49805 z m 110.582037,0.95704 c -2.63343,0 -5.26602,0.13319 -5.53516,0.40234 -0.55786,0.55782 -0.54338,14.36804 0.0156,14.93164 0.62214,0.62724 10.39431,0.3782 10.80665,-0.27539 0.16651,-0.264 0.30559,-1.08044 0.30859,-1.81445 0.004,-1.22179 -0.0756,-1.35151 -0.94727,-1.54297 -0.5237,-0.11521 -1.10243,-0.11657 -1.28515,-0.004 -0.18272,0.11288 -1.48114,0.10504 -2.88672,-0.0176 -2.41283,-0.21047 -2.55664,-0.26612 -2.55664,-0.98242 0,-0.73441 0.0806,-0.75781 2.5332,-0.75781 2.81019,0 2.95175,-0.30864 3.52344,-0.64063 0.29889,-0.17357 0.47533,-1.19744 0.49023,-1.24804 0.11685,-0.39716 -0.28388,-1.43268 -0.27148,-1.39258 -0.35314,-0.4652 -0.94722,-0.5586 -3.50977,-0.5586 h -3.08593 v -1.15234 -1.15039 l 3.38671,0.23047 c 4.24952,0.28964 4.9336,0.0248 4.9336,-1.91797 0,-0.72706 -0.17165,-1.49583 -0.38281,-1.70703 -0.26914,-0.26915 -2.90373,-0.40234 -5.53711,-0.40234 z m -37.32422,0.0195 c -1.866701,-0.001 -2.311071,0.12497 -3.669931,1.03906 -0.85027,0.572 -1.98205,1.66457 -2.51562,2.42773 -0.9115,1.30362 -0.9707,1.56857 -0.9707,4.36914 0,2.82694 0.0532,3.05149 1,4.3711 2.30623,3.21437 6.634291,4.2413 9.902341,2.34765 1.32815,-0.76954 2.71345,-2.47775 3.32031,-4.0957 0.92508,-2.46634 -0.0562,-6.73014 -1.93945,-8.42578 -1.72587,-1.55393 -2.93038,-2.0322 -5.12695,-2.0332 z m 16.90039,0.0156 c -1.5981,-0.008 -3.08639,0.0877 -3.41406,0.29492 -0.64865,0.41009 -0.4461,14.77407 0.17773,15.43946 0.51993,0.55454 2.20226,0.57011 2.7207,-0.0547 0.23692,-0.28548 0.63741,-1.64895 0.57031,-2.72656 -0.10869,-1.74713 -0.0977,-1.76996 0.77344,-1.76953 0.95585,4.7e-4 1.25815,0.2888 2.86133,2.7207 0.84176,1.27689 1.28,1.63895 2.17383,1.79687 0.616,0.10883 1.21637,0.21704 1.33398,0.24024 0.1176,0.0232 0.44231,-0.0455 0.72071,-0.15235 0.75326,-0.28906 0.61696,-1.1566 -0.4043,-2.5664 -1.75951,-2.42894 -1.79541,-2.59673 -0.72656,-3.4961 1.21389,-1.02137 1.75261,-2.65885 1.55468,-4.71875 -0.13582,-1.41351 -0.33833,-1.79202 -1.58789,-2.97265 -0.78821,-0.74472 -1.99455,-1.5104 -2.68164,-1.70117 -0.76644,-0.21281 -2.47417,-0.32599 -4.07226,-0.33399 z m -51.417971,0.0176 c -2.04531,0.14823 -3.81642,1.29768 -4.78516,3.29883 -0.76258,1.57527 -0.71284,2.57228 0.19336,3.97265 0.49546,0.76567 4.0109,2.61479 4.97266,2.61524 0.29654,1.4e-4 0.91451,0.14208 1.37305,0.31641 0.72952,0.27734 0.78754,0.40235 0.46874,0.99804 -0.54113,1.01119 -3.17654,0.71564 -4.44335,-0.49804 -0.80383,-0.77011 -1.00112,-0.82776 -1.66407,-0.48438 -1.1912,0.61701 -1.87304,1.31949 -1.87304,1.93164 0,0.80713 2.57707,2.50451 3.98632,3.23633 0.26624,0.13826 0.91449,0.55821 1.59766,0.63281 1.13753,0.12427 2.05685,0.0127 3.37695,-0.59375 2.98488,-1.37125 4.21441,-4.2266 3.07618,-6.42773 -0.71756,-1.38763 -1.54694,-1.88453 -4.75782,-2.84961 -2.11559,-0.63589 -2.79883,-0.97655 -2.79883,-1.39453 1e-5,-1.05941 2.39242,-1.26432 3.60743,-0.3086 1.1168,0.87848 1.63423,0.80722 2.61914,-0.36328 1.22243,-1.45278 0.97569,-2.19308 -1.08399,-3.23633 -1.31124,-0.66415 -2.63804,-0.9346 -3.86523,-0.8457 z m 11.04297,0.12695 -0.0996,1.72852 c -0.11863,2.08429 0.083,2.25862 2.61523,2.26562 l 1.87696,0.006 -0.23438,5.47657 c -0.19211,4.47953 -0.15529,5.52885 0.20313,5.75585 0.50621,0.32068 2.54753,0.3771 3.29101,0.0918 0.43466,-0.16679 0.50586,-0.97802 0.50586,-5.74414 v -5.55089 l 2,-0.0957 2,-0.0937 v -1.89649 -1.89453 l -6.08008,-0.0254 z m 23.388671,3.67969 c 2.38104,0 4.29081,3.11721 3.37109,5.50195 -0.56258,1.45874 -2.80741,1.875 -4.36132,1.875 -1.442241,0 -2.186101,-1.86522 -2.212901,-3.37695 -0.0141,-0.79287 0.0767,-1.44147 0.20313,-1.44141 0.1265,6e-5 0.1546,-0.19534 0.0625,-0.43554 -0.27248,-0.71005 1.682891,-2.12305 2.937501,-2.12305 z m 18.39062,0.32031 c 2.43259,0 3.17969,0.37329 3.17969,1.5918 0,0.51142 -0.13156,1.01153 -0.29297,1.11133 -0.43398,0.26821 -2.96133,0.46424 -3.7539,0.29101 -0.69079,-0.151 -1.06036,-0.93843 -1.06836,-2.27539 -0.004,-0.66805 0.13471,-0.71875 1.93554,-0.71875 z" />
</svg>
